%TF.GenerationSoftware,KiCad,Pcbnew,(5.1.10)-1*%
%TF.CreationDate,2021-08-31T12:59:50-03:00*%
%TF.ProjectId,Test1,54657374-312e-46b6-9963-61645f706362,rev?*%
%TF.SameCoordinates,Original*%
%TF.FileFunction,Soldermask,Top*%
%TF.FilePolarity,Negative*%
%FSLAX46Y46*%
G04 Gerber Fmt 4.6, Leading zero omitted, Abs format (unit mm)*
G04 Created by KiCad (PCBNEW (5.1.10)-1) date 2021-08-31 12:59:51*
%MOMM*%
%LPD*%
G01*
G04 APERTURE LIST*
%TA.AperFunction,Profile*%
%ADD10C,0.100000*%
%TD*%
%ADD11C,2.000000*%
%ADD12R,1.600000X1.600000*%
%ADD13C,1.600000*%
%ADD14O,1.800000X1.800000*%
%ADD15R,1.800000X1.800000*%
%ADD16C,1.800000*%
%ADD17R,2.200000X2.200000*%
%ADD18O,2.200000X2.200000*%
%ADD19C,3.000000*%
%ADD20C,2.600000*%
%ADD21R,2.600000X2.600000*%
%ADD22R,1.350000X1.350000*%
%ADD23O,1.350000X1.350000*%
%ADD24O,1.700000X1.700000*%
%ADD25R,1.700000X1.700000*%
%ADD26R,1.050000X1.500000*%
%ADD27O,1.050000X1.500000*%
%ADD28C,1.400000*%
%ADD29O,1.400000X1.400000*%
%ADD30C,1.440000*%
%ADD31O,2.400000X1.600000*%
%ADD32R,2.400000X1.600000*%
%ADD33R,2.000000X1.905000*%
%ADD34O,2.000000X1.905000*%
G04 APERTURE END LIST*
D10*
X254000000Y-50800000D02*
X254000000Y-134620000D01*
X88900000Y-50800000D02*
X254000000Y-50800000D01*
X88900000Y-134620000D02*
X88900000Y-50800000D01*
X254000000Y-134620000D02*
X88900000Y-134620000D01*
D11*
%TO.C,CREGIN1*%
X101600000Y-74930000D03*
X101600000Y-82430000D03*
%TD*%
%TO.C,CREGIN2*%
X101600000Y-100210000D03*
X101600000Y-92710000D03*
%TD*%
D12*
%TO.C,CREGOUT1*%
X110490000Y-76835000D03*
D13*
X110490000Y-79335000D03*
%TD*%
%TO.C,CREGOUT2*%
X110490000Y-97115000D03*
D12*
X110490000Y-94615000D03*
%TD*%
D14*
%TO.C,D1*%
X115570000Y-117475000D03*
D15*
X102870000Y-117475000D03*
%TD*%
%TO.C,D2*%
X123190000Y-117475000D03*
D14*
X135890000Y-117475000D03*
%TD*%
%TO.C,D3*%
X156210000Y-117475000D03*
D15*
X143510000Y-117475000D03*
%TD*%
%TO.C,D4*%
X163830000Y-117475000D03*
D14*
X176530000Y-117475000D03*
%TD*%
D15*
%TO.C,D5*%
X184150000Y-117475000D03*
D14*
X196850000Y-117475000D03*
%TD*%
%TO.C,D6*%
X216535000Y-117475000D03*
D15*
X203835000Y-117475000D03*
%TD*%
D14*
%TO.C,D7*%
X236220000Y-109220000D03*
D15*
X236220000Y-121920000D03*
%TD*%
%TO.C,D8*%
X236220000Y-75100000D03*
D14*
X236220000Y-62400000D03*
%TD*%
D16*
%TO.C,Dled1*%
X175540000Y-56000000D03*
D15*
X173000000Y-56000000D03*
%TD*%
%TO.C,Dled2*%
X164000000Y-56000000D03*
D16*
X166540000Y-56000000D03*
%TD*%
D15*
%TO.C,Dled3*%
X155000000Y-56000000D03*
D16*
X157540000Y-56000000D03*
%TD*%
D14*
%TO.C,Dreg1*%
X99695000Y-67310000D03*
D15*
X112395000Y-67310000D03*
%TD*%
D17*
%TO.C,DREG1*%
X118745000Y-84455000D03*
D18*
X118745000Y-74295000D03*
%TD*%
D15*
%TO.C,Dreg2*%
X118745000Y-67310000D03*
D14*
X131445000Y-67310000D03*
%TD*%
D18*
%TO.C,DREG2*%
X118745000Y-90170000D03*
D17*
X118745000Y-100330000D03*
%TD*%
D19*
%TO.C,Fusible1*%
X130810000Y-98425000D03*
X130810000Y-75825000D03*
%TD*%
D20*
%TO.C,J1*%
X114220000Y-129540000D03*
X109220000Y-129540000D03*
D21*
X104220000Y-129540000D03*
%TD*%
%TO.C,J2*%
X124540000Y-129540000D03*
D20*
X129540000Y-129540000D03*
X134540000Y-129540000D03*
%TD*%
%TO.C,J3*%
X154860000Y-129540000D03*
X149860000Y-129540000D03*
D21*
X144860000Y-129540000D03*
%TD*%
%TO.C,J4*%
X165100000Y-129540000D03*
D20*
X170100000Y-129540000D03*
X175100000Y-129540000D03*
%TD*%
%TO.C,J5*%
X195420000Y-129540000D03*
X190420000Y-129540000D03*
D21*
X185420000Y-129540000D03*
%TD*%
%TO.C,J6*%
X205185000Y-129540000D03*
D20*
X210185000Y-129540000D03*
X215185000Y-129540000D03*
%TD*%
%TO.C,J7*%
X248920000Y-110570000D03*
X248920000Y-115570000D03*
D21*
X248920000Y-120570000D03*
%TD*%
%TO.C,J8*%
X248920000Y-73750000D03*
D20*
X248920000Y-68750000D03*
X248920000Y-63750000D03*
%TD*%
D22*
%TO.C,JabajoMDOT1*%
X151500000Y-98500000D03*
D23*
X151500000Y-96500000D03*
X151500000Y-94500000D03*
X151500000Y-92500000D03*
X151500000Y-90500000D03*
X151500000Y-88500000D03*
X151500000Y-86500000D03*
X151500000Y-84500000D03*
%TD*%
D20*
%TO.C,JBat1*%
X121500000Y-55880000D03*
D21*
X126500000Y-55880000D03*
%TD*%
D22*
%TO.C,JderMDOT1*%
X179000000Y-102500000D03*
D23*
X177000000Y-102500000D03*
X175000000Y-102500000D03*
X173000000Y-102500000D03*
X171000000Y-102500000D03*
X169000000Y-102500000D03*
X167000000Y-102500000D03*
X165000000Y-102500000D03*
X163000000Y-102500000D03*
X161000000Y-102500000D03*
%TD*%
%TO.C,JizqMDOT1*%
X161000000Y-80500000D03*
X163000000Y-80500000D03*
X165000000Y-80500000D03*
X167000000Y-80500000D03*
X169000000Y-80500000D03*
X171000000Y-80500000D03*
X173000000Y-80500000D03*
X175000000Y-80500000D03*
X177000000Y-80500000D03*
D22*
X179000000Y-80500000D03*
%TD*%
D21*
%TO.C,JPanel1*%
X109140000Y-55880000D03*
D20*
X104140000Y-55880000D03*
%TD*%
D24*
%TO.C,JPConf&Supply1*%
X142500000Y-77830000D03*
X142500000Y-75290000D03*
D25*
X142500000Y-72750000D03*
%TD*%
%TO.C,JPSWPUERTA1*%
X137170000Y-107500000D03*
D24*
X139710000Y-107500000D03*
X142250000Y-107500000D03*
%TD*%
D25*
%TO.C,JUSB1*%
X142500000Y-97750000D03*
D24*
X142500000Y-95210000D03*
X142500000Y-92670000D03*
X142500000Y-90130000D03*
X142500000Y-87590000D03*
X142500000Y-85050000D03*
%TD*%
D26*
%TO.C,Q1*%
X170060000Y-71370000D03*
D27*
X172600000Y-71370000D03*
X171330000Y-71370000D03*
%TD*%
%TO.C,Q2*%
X161805000Y-71370000D03*
X163075000Y-71370000D03*
D26*
X160535000Y-71370000D03*
%TD*%
D27*
%TO.C,Q3*%
X152280000Y-71370000D03*
X153550000Y-71370000D03*
D26*
X151010000Y-71370000D03*
%TD*%
D28*
%TO.C,R10*%
X198500000Y-98500000D03*
D29*
X206120000Y-98500000D03*
%TD*%
%TO.C,R11*%
X217120000Y-98500000D03*
D28*
X209500000Y-98500000D03*
%TD*%
%TO.C,R20*%
X198500000Y-94000000D03*
D29*
X206120000Y-94000000D03*
%TD*%
D28*
%TO.C,R21*%
X209500000Y-94000000D03*
D29*
X217120000Y-94000000D03*
%TD*%
%TO.C,R30*%
X206120000Y-81250000D03*
D28*
X198500000Y-81250000D03*
%TD*%
D29*
%TO.C,R31*%
X217120000Y-81250000D03*
D28*
X209500000Y-81250000D03*
%TD*%
%TO.C,R40*%
X198500000Y-85750000D03*
D29*
X206120000Y-85750000D03*
%TD*%
%TO.C,R41*%
X217120000Y-85750000D03*
D28*
X209500000Y-85750000D03*
%TD*%
%TO.C,R50*%
X221500000Y-81250000D03*
D29*
X229120000Y-81250000D03*
%TD*%
%TO.C,R51*%
X240120000Y-81250000D03*
D28*
X232500000Y-81250000D03*
%TD*%
%TO.C,R60*%
X221500000Y-85750000D03*
D29*
X229120000Y-85750000D03*
%TD*%
%TO.C,R61*%
X240120000Y-85750000D03*
D28*
X232500000Y-85750000D03*
%TD*%
%TO.C,R70*%
X221500000Y-94000000D03*
D29*
X229120000Y-94000000D03*
%TD*%
%TO.C,R71*%
X240120000Y-94000000D03*
D28*
X232500000Y-94000000D03*
%TD*%
%TO.C,R80*%
X221500000Y-98500000D03*
D29*
X229120000Y-98500000D03*
%TD*%
%TO.C,R81*%
X240120000Y-98500000D03*
D28*
X232500000Y-98500000D03*
%TD*%
D29*
%TO.C,Rb1*%
X185000000Y-74620000D03*
D28*
X185000000Y-67000000D03*
%TD*%
D29*
%TO.C,Rb2*%
X190000000Y-74620000D03*
D28*
X190000000Y-67000000D03*
%TD*%
D29*
%TO.C,Rb3*%
X195000000Y-74620000D03*
D28*
X195000000Y-67000000D03*
%TD*%
%TO.C,Rc1*%
X171000000Y-64500000D03*
D29*
X178620000Y-64500000D03*
%TD*%
D28*
%TO.C,Rc2*%
X160000000Y-64500000D03*
D29*
X167620000Y-64500000D03*
%TD*%
%TO.C,Rc3*%
X156620000Y-64500000D03*
D28*
X149000000Y-64500000D03*
%TD*%
D29*
%TO.C,RDown1*%
X145120000Y-66750000D03*
D28*
X137500000Y-66750000D03*
%TD*%
%TO.C,RModo1*%
X213000000Y-54750000D03*
D29*
X220620000Y-54750000D03*
%TD*%
D28*
%TO.C,RREG11*%
X93345000Y-108585000D03*
D29*
X100965000Y-108585000D03*
%TD*%
D28*
%TO.C,RREG12*%
X119380000Y-108585000D03*
D29*
X127000000Y-108585000D03*
%TD*%
D30*
%TO.C,RV1*%
X112395000Y-108585000D03*
X109855000Y-108585000D03*
X107315000Y-108585000D03*
%TD*%
D11*
%TO.C,SWModo1*%
X207000000Y-55325000D03*
X207000000Y-59825000D03*
X200500000Y-55325000D03*
X200500000Y-59825000D03*
%TD*%
%TO.C,SWNReset1*%
X184735000Y-59825000D03*
X184735000Y-55325000D03*
X191235000Y-59825000D03*
X191235000Y-55325000D03*
%TD*%
D21*
%TO.C,SWPanel1*%
X144000000Y-56000000D03*
D20*
X139000000Y-56000000D03*
%TD*%
D31*
%TO.C,U1*%
X213660000Y-103500000D03*
X203500000Y-111120000D03*
X213660000Y-106040000D03*
X203500000Y-108580000D03*
X213660000Y-108580000D03*
X203500000Y-106040000D03*
X213660000Y-111120000D03*
D32*
X203500000Y-103500000D03*
%TD*%
D31*
%TO.C,U2*%
X213560000Y-66100000D03*
X203400000Y-73720000D03*
X213560000Y-68640000D03*
X203400000Y-71180000D03*
X213560000Y-71180000D03*
X203400000Y-68640000D03*
X213560000Y-73720000D03*
D32*
X203400000Y-66100000D03*
%TD*%
%TO.C,U3*%
X220400000Y-66100000D03*
D31*
X230560000Y-73720000D03*
X220400000Y-68640000D03*
X230560000Y-71180000D03*
X220400000Y-71180000D03*
X230560000Y-68640000D03*
X220400000Y-73720000D03*
X230560000Y-66100000D03*
%TD*%
D32*
%TO.C,U4*%
X220500000Y-103500000D03*
D31*
X230660000Y-111120000D03*
X220500000Y-106040000D03*
X230660000Y-108580000D03*
X220500000Y-108580000D03*
X230660000Y-106040000D03*
X220500000Y-111120000D03*
X230660000Y-103500000D03*
%TD*%
D33*
%TO.C,UREG1*%
X92075000Y-80645000D03*
D34*
X92075000Y-78105000D03*
X92075000Y-75565000D03*
%TD*%
%TO.C,UREG2*%
X92075000Y-93980000D03*
X92075000Y-96520000D03*
D33*
X92075000Y-99060000D03*
%TD*%
M02*
