%TF.GenerationSoftware,KiCad,Pcbnew,(5.1.10)-1*%
%TF.CreationDate,2021-08-31T12:59:50-03:00*%
%TF.ProjectId,Test1,54657374-312e-46b6-9963-61645f706362,rev?*%
%TF.SameCoordinates,Original*%
%TF.FileFunction,Legend,Top*%
%TF.FilePolarity,Positive*%
%FSLAX46Y46*%
G04 Gerber Fmt 4.6, Leading zero omitted, Abs format (unit mm)*
G04 Created by KiCad (PCBNEW (5.1.10)-1) date 2021-08-31 12:59:50*
%MOMM*%
%LPD*%
G01*
G04 APERTURE LIST*
%TA.AperFunction,Profile*%
%ADD10C,0.100000*%
%TD*%
%ADD11C,0.120000*%
%ADD12C,0.150000*%
G04 APERTURE END LIST*
D10*
X254000000Y-50800000D02*
X254000000Y-134620000D01*
X88900000Y-50800000D02*
X254000000Y-50800000D01*
X88900000Y-134620000D02*
X88900000Y-50800000D01*
X254000000Y-134620000D02*
X88900000Y-134620000D01*
D11*
%TO.C,CREGIN1*%
X104220000Y-84050000D02*
X98980000Y-84050000D01*
X104220000Y-73310000D02*
X98980000Y-73310000D01*
X98980000Y-73310000D02*
X98980000Y-84050000D01*
X104220000Y-73310000D02*
X104220000Y-84050000D01*
%TO.C,CREGIN2*%
X104220000Y-91090000D02*
X104220000Y-101830000D01*
X98980000Y-91090000D02*
X98980000Y-101830000D01*
X104220000Y-91090000D02*
X98980000Y-91090000D01*
X104220000Y-101830000D02*
X98980000Y-101830000D01*
%TO.C,CREGOUT1*%
X112215000Y-75530225D02*
X111715000Y-75530225D01*
X111965000Y-75280225D02*
X111965000Y-75780225D01*
X110774000Y-80686000D02*
X110206000Y-80686000D01*
X111008000Y-80646000D02*
X109972000Y-80646000D01*
X111167000Y-80606000D02*
X109813000Y-80606000D01*
X111295000Y-80566000D02*
X109685000Y-80566000D01*
X111405000Y-80526000D02*
X109575000Y-80526000D01*
X111501000Y-80486000D02*
X109479000Y-80486000D01*
X111588000Y-80446000D02*
X109392000Y-80446000D01*
X111668000Y-80406000D02*
X109312000Y-80406000D01*
X109450000Y-80366000D02*
X109239000Y-80366000D01*
X111741000Y-80366000D02*
X111530000Y-80366000D01*
X109450000Y-80326000D02*
X109171000Y-80326000D01*
X111809000Y-80326000D02*
X111530000Y-80326000D01*
X109450000Y-80286000D02*
X109107000Y-80286000D01*
X111873000Y-80286000D02*
X111530000Y-80286000D01*
X109450000Y-80246000D02*
X109047000Y-80246000D01*
X111933000Y-80246000D02*
X111530000Y-80246000D01*
X109450000Y-80206000D02*
X108990000Y-80206000D01*
X111990000Y-80206000D02*
X111530000Y-80206000D01*
X109450000Y-80166000D02*
X108936000Y-80166000D01*
X112044000Y-80166000D02*
X111530000Y-80166000D01*
X109450000Y-80126000D02*
X108885000Y-80126000D01*
X112095000Y-80126000D02*
X111530000Y-80126000D01*
X109450000Y-80086000D02*
X108837000Y-80086000D01*
X112143000Y-80086000D02*
X111530000Y-80086000D01*
X109450000Y-80046000D02*
X108791000Y-80046000D01*
X112189000Y-80046000D02*
X111530000Y-80046000D01*
X109450000Y-80006000D02*
X108747000Y-80006000D01*
X112233000Y-80006000D02*
X111530000Y-80006000D01*
X109450000Y-79966000D02*
X108705000Y-79966000D01*
X112275000Y-79966000D02*
X111530000Y-79966000D01*
X109450000Y-79926000D02*
X108664000Y-79926000D01*
X112316000Y-79926000D02*
X111530000Y-79926000D01*
X109450000Y-79886000D02*
X108626000Y-79886000D01*
X112354000Y-79886000D02*
X111530000Y-79886000D01*
X109450000Y-79846000D02*
X108589000Y-79846000D01*
X112391000Y-79846000D02*
X111530000Y-79846000D01*
X109450000Y-79806000D02*
X108553000Y-79806000D01*
X112427000Y-79806000D02*
X111530000Y-79806000D01*
X109450000Y-79766000D02*
X108519000Y-79766000D01*
X112461000Y-79766000D02*
X111530000Y-79766000D01*
X109450000Y-79726000D02*
X108486000Y-79726000D01*
X112494000Y-79726000D02*
X111530000Y-79726000D01*
X109450000Y-79686000D02*
X108455000Y-79686000D01*
X112525000Y-79686000D02*
X111530000Y-79686000D01*
X109450000Y-79646000D02*
X108425000Y-79646000D01*
X112555000Y-79646000D02*
X111530000Y-79646000D01*
X109450000Y-79606000D02*
X108395000Y-79606000D01*
X112585000Y-79606000D02*
X111530000Y-79606000D01*
X109450000Y-79566000D02*
X108368000Y-79566000D01*
X112612000Y-79566000D02*
X111530000Y-79566000D01*
X109450000Y-79526000D02*
X108341000Y-79526000D01*
X112639000Y-79526000D02*
X111530000Y-79526000D01*
X109450000Y-79486000D02*
X108315000Y-79486000D01*
X112665000Y-79486000D02*
X111530000Y-79486000D01*
X109450000Y-79446000D02*
X108290000Y-79446000D01*
X112690000Y-79446000D02*
X111530000Y-79446000D01*
X109450000Y-79406000D02*
X108266000Y-79406000D01*
X112714000Y-79406000D02*
X111530000Y-79406000D01*
X109450000Y-79366000D02*
X108243000Y-79366000D01*
X112737000Y-79366000D02*
X111530000Y-79366000D01*
X109450000Y-79326000D02*
X108222000Y-79326000D01*
X112758000Y-79326000D02*
X111530000Y-79326000D01*
X109450000Y-79286000D02*
X108200000Y-79286000D01*
X112780000Y-79286000D02*
X111530000Y-79286000D01*
X109450000Y-79246000D02*
X108180000Y-79246000D01*
X112800000Y-79246000D02*
X111530000Y-79246000D01*
X109450000Y-79206000D02*
X108161000Y-79206000D01*
X112819000Y-79206000D02*
X111530000Y-79206000D01*
X109450000Y-79166000D02*
X108142000Y-79166000D01*
X112838000Y-79166000D02*
X111530000Y-79166000D01*
X109450000Y-79126000D02*
X108125000Y-79126000D01*
X112855000Y-79126000D02*
X111530000Y-79126000D01*
X109450000Y-79086000D02*
X108108000Y-79086000D01*
X112872000Y-79086000D02*
X111530000Y-79086000D01*
X109450000Y-79046000D02*
X108092000Y-79046000D01*
X112888000Y-79046000D02*
X111530000Y-79046000D01*
X109450000Y-79006000D02*
X108076000Y-79006000D01*
X112904000Y-79006000D02*
X111530000Y-79006000D01*
X109450000Y-78966000D02*
X108062000Y-78966000D01*
X112918000Y-78966000D02*
X111530000Y-78966000D01*
X109450000Y-78926000D02*
X108048000Y-78926000D01*
X112932000Y-78926000D02*
X111530000Y-78926000D01*
X109450000Y-78886000D02*
X108035000Y-78886000D01*
X112945000Y-78886000D02*
X111530000Y-78886000D01*
X109450000Y-78846000D02*
X108022000Y-78846000D01*
X112958000Y-78846000D02*
X111530000Y-78846000D01*
X109450000Y-78806000D02*
X108010000Y-78806000D01*
X112970000Y-78806000D02*
X111530000Y-78806000D01*
X109450000Y-78765000D02*
X107999000Y-78765000D01*
X112981000Y-78765000D02*
X111530000Y-78765000D01*
X109450000Y-78725000D02*
X107989000Y-78725000D01*
X112991000Y-78725000D02*
X111530000Y-78725000D01*
X109450000Y-78685000D02*
X107979000Y-78685000D01*
X113001000Y-78685000D02*
X111530000Y-78685000D01*
X109450000Y-78645000D02*
X107970000Y-78645000D01*
X113010000Y-78645000D02*
X111530000Y-78645000D01*
X109450000Y-78605000D02*
X107962000Y-78605000D01*
X113018000Y-78605000D02*
X111530000Y-78605000D01*
X109450000Y-78565000D02*
X107954000Y-78565000D01*
X113026000Y-78565000D02*
X111530000Y-78565000D01*
X109450000Y-78525000D02*
X107947000Y-78525000D01*
X113033000Y-78525000D02*
X111530000Y-78525000D01*
X109450000Y-78485000D02*
X107940000Y-78485000D01*
X113040000Y-78485000D02*
X111530000Y-78485000D01*
X109450000Y-78445000D02*
X107934000Y-78445000D01*
X113046000Y-78445000D02*
X111530000Y-78445000D01*
X109450000Y-78405000D02*
X107929000Y-78405000D01*
X113051000Y-78405000D02*
X111530000Y-78405000D01*
X109450000Y-78365000D02*
X107925000Y-78365000D01*
X113055000Y-78365000D02*
X111530000Y-78365000D01*
X109450000Y-78325000D02*
X107921000Y-78325000D01*
X113059000Y-78325000D02*
X111530000Y-78325000D01*
X113063000Y-78285000D02*
X107917000Y-78285000D01*
X113066000Y-78245000D02*
X107914000Y-78245000D01*
X113068000Y-78205000D02*
X107912000Y-78205000D01*
X113069000Y-78165000D02*
X107911000Y-78165000D01*
X113070000Y-78125000D02*
X107910000Y-78125000D01*
X113070000Y-78085000D02*
X107910000Y-78085000D01*
X113110000Y-78085000D02*
G75*
G03*
X113110000Y-78085000I-2620000J0D01*
G01*
%TO.C,CREGOUT2*%
X113110000Y-95865000D02*
G75*
G03*
X113110000Y-95865000I-2620000J0D01*
G01*
X113070000Y-95865000D02*
X107910000Y-95865000D01*
X113070000Y-95905000D02*
X107910000Y-95905000D01*
X113069000Y-95945000D02*
X107911000Y-95945000D01*
X113068000Y-95985000D02*
X107912000Y-95985000D01*
X113066000Y-96025000D02*
X107914000Y-96025000D01*
X113063000Y-96065000D02*
X107917000Y-96065000D01*
X113059000Y-96105000D02*
X111530000Y-96105000D01*
X109450000Y-96105000D02*
X107921000Y-96105000D01*
X113055000Y-96145000D02*
X111530000Y-96145000D01*
X109450000Y-96145000D02*
X107925000Y-96145000D01*
X113051000Y-96185000D02*
X111530000Y-96185000D01*
X109450000Y-96185000D02*
X107929000Y-96185000D01*
X113046000Y-96225000D02*
X111530000Y-96225000D01*
X109450000Y-96225000D02*
X107934000Y-96225000D01*
X113040000Y-96265000D02*
X111530000Y-96265000D01*
X109450000Y-96265000D02*
X107940000Y-96265000D01*
X113033000Y-96305000D02*
X111530000Y-96305000D01*
X109450000Y-96305000D02*
X107947000Y-96305000D01*
X113026000Y-96345000D02*
X111530000Y-96345000D01*
X109450000Y-96345000D02*
X107954000Y-96345000D01*
X113018000Y-96385000D02*
X111530000Y-96385000D01*
X109450000Y-96385000D02*
X107962000Y-96385000D01*
X113010000Y-96425000D02*
X111530000Y-96425000D01*
X109450000Y-96425000D02*
X107970000Y-96425000D01*
X113001000Y-96465000D02*
X111530000Y-96465000D01*
X109450000Y-96465000D02*
X107979000Y-96465000D01*
X112991000Y-96505000D02*
X111530000Y-96505000D01*
X109450000Y-96505000D02*
X107989000Y-96505000D01*
X112981000Y-96545000D02*
X111530000Y-96545000D01*
X109450000Y-96545000D02*
X107999000Y-96545000D01*
X112970000Y-96586000D02*
X111530000Y-96586000D01*
X109450000Y-96586000D02*
X108010000Y-96586000D01*
X112958000Y-96626000D02*
X111530000Y-96626000D01*
X109450000Y-96626000D02*
X108022000Y-96626000D01*
X112945000Y-96666000D02*
X111530000Y-96666000D01*
X109450000Y-96666000D02*
X108035000Y-96666000D01*
X112932000Y-96706000D02*
X111530000Y-96706000D01*
X109450000Y-96706000D02*
X108048000Y-96706000D01*
X112918000Y-96746000D02*
X111530000Y-96746000D01*
X109450000Y-96746000D02*
X108062000Y-96746000D01*
X112904000Y-96786000D02*
X111530000Y-96786000D01*
X109450000Y-96786000D02*
X108076000Y-96786000D01*
X112888000Y-96826000D02*
X111530000Y-96826000D01*
X109450000Y-96826000D02*
X108092000Y-96826000D01*
X112872000Y-96866000D02*
X111530000Y-96866000D01*
X109450000Y-96866000D02*
X108108000Y-96866000D01*
X112855000Y-96906000D02*
X111530000Y-96906000D01*
X109450000Y-96906000D02*
X108125000Y-96906000D01*
X112838000Y-96946000D02*
X111530000Y-96946000D01*
X109450000Y-96946000D02*
X108142000Y-96946000D01*
X112819000Y-96986000D02*
X111530000Y-96986000D01*
X109450000Y-96986000D02*
X108161000Y-96986000D01*
X112800000Y-97026000D02*
X111530000Y-97026000D01*
X109450000Y-97026000D02*
X108180000Y-97026000D01*
X112780000Y-97066000D02*
X111530000Y-97066000D01*
X109450000Y-97066000D02*
X108200000Y-97066000D01*
X112758000Y-97106000D02*
X111530000Y-97106000D01*
X109450000Y-97106000D02*
X108222000Y-97106000D01*
X112737000Y-97146000D02*
X111530000Y-97146000D01*
X109450000Y-97146000D02*
X108243000Y-97146000D01*
X112714000Y-97186000D02*
X111530000Y-97186000D01*
X109450000Y-97186000D02*
X108266000Y-97186000D01*
X112690000Y-97226000D02*
X111530000Y-97226000D01*
X109450000Y-97226000D02*
X108290000Y-97226000D01*
X112665000Y-97266000D02*
X111530000Y-97266000D01*
X109450000Y-97266000D02*
X108315000Y-97266000D01*
X112639000Y-97306000D02*
X111530000Y-97306000D01*
X109450000Y-97306000D02*
X108341000Y-97306000D01*
X112612000Y-97346000D02*
X111530000Y-97346000D01*
X109450000Y-97346000D02*
X108368000Y-97346000D01*
X112585000Y-97386000D02*
X111530000Y-97386000D01*
X109450000Y-97386000D02*
X108395000Y-97386000D01*
X112555000Y-97426000D02*
X111530000Y-97426000D01*
X109450000Y-97426000D02*
X108425000Y-97426000D01*
X112525000Y-97466000D02*
X111530000Y-97466000D01*
X109450000Y-97466000D02*
X108455000Y-97466000D01*
X112494000Y-97506000D02*
X111530000Y-97506000D01*
X109450000Y-97506000D02*
X108486000Y-97506000D01*
X112461000Y-97546000D02*
X111530000Y-97546000D01*
X109450000Y-97546000D02*
X108519000Y-97546000D01*
X112427000Y-97586000D02*
X111530000Y-97586000D01*
X109450000Y-97586000D02*
X108553000Y-97586000D01*
X112391000Y-97626000D02*
X111530000Y-97626000D01*
X109450000Y-97626000D02*
X108589000Y-97626000D01*
X112354000Y-97666000D02*
X111530000Y-97666000D01*
X109450000Y-97666000D02*
X108626000Y-97666000D01*
X112316000Y-97706000D02*
X111530000Y-97706000D01*
X109450000Y-97706000D02*
X108664000Y-97706000D01*
X112275000Y-97746000D02*
X111530000Y-97746000D01*
X109450000Y-97746000D02*
X108705000Y-97746000D01*
X112233000Y-97786000D02*
X111530000Y-97786000D01*
X109450000Y-97786000D02*
X108747000Y-97786000D01*
X112189000Y-97826000D02*
X111530000Y-97826000D01*
X109450000Y-97826000D02*
X108791000Y-97826000D01*
X112143000Y-97866000D02*
X111530000Y-97866000D01*
X109450000Y-97866000D02*
X108837000Y-97866000D01*
X112095000Y-97906000D02*
X111530000Y-97906000D01*
X109450000Y-97906000D02*
X108885000Y-97906000D01*
X112044000Y-97946000D02*
X111530000Y-97946000D01*
X109450000Y-97946000D02*
X108936000Y-97946000D01*
X111990000Y-97986000D02*
X111530000Y-97986000D01*
X109450000Y-97986000D02*
X108990000Y-97986000D01*
X111933000Y-98026000D02*
X111530000Y-98026000D01*
X109450000Y-98026000D02*
X109047000Y-98026000D01*
X111873000Y-98066000D02*
X111530000Y-98066000D01*
X109450000Y-98066000D02*
X109107000Y-98066000D01*
X111809000Y-98106000D02*
X111530000Y-98106000D01*
X109450000Y-98106000D02*
X109171000Y-98106000D01*
X111741000Y-98146000D02*
X111530000Y-98146000D01*
X109450000Y-98146000D02*
X109239000Y-98146000D01*
X111668000Y-98186000D02*
X109312000Y-98186000D01*
X111588000Y-98226000D02*
X109392000Y-98226000D01*
X111501000Y-98266000D02*
X109479000Y-98266000D01*
X111405000Y-98306000D02*
X109575000Y-98306000D01*
X111295000Y-98346000D02*
X109685000Y-98346000D01*
X111167000Y-98386000D02*
X109813000Y-98386000D01*
X111008000Y-98426000D02*
X109972000Y-98426000D01*
X110774000Y-98466000D02*
X110206000Y-98466000D01*
X111965000Y-93060225D02*
X111965000Y-93560225D01*
X112215000Y-93310225D02*
X111715000Y-93310225D01*
%TO.C,D1*%
X106500000Y-116005000D02*
X106500000Y-118945000D01*
X106500000Y-118945000D02*
X111940000Y-118945000D01*
X111940000Y-118945000D02*
X111940000Y-116005000D01*
X111940000Y-116005000D02*
X106500000Y-116005000D01*
X104010000Y-117475000D02*
X106500000Y-117475000D01*
X114430000Y-117475000D02*
X111940000Y-117475000D01*
X107400000Y-116005000D02*
X107400000Y-118945000D01*
X107520000Y-116005000D02*
X107520000Y-118945000D01*
X107280000Y-116005000D02*
X107280000Y-118945000D01*
%TO.C,D2*%
X127600000Y-116005000D02*
X127600000Y-118945000D01*
X127840000Y-116005000D02*
X127840000Y-118945000D01*
X127720000Y-116005000D02*
X127720000Y-118945000D01*
X134750000Y-117475000D02*
X132260000Y-117475000D01*
X124330000Y-117475000D02*
X126820000Y-117475000D01*
X132260000Y-116005000D02*
X126820000Y-116005000D01*
X132260000Y-118945000D02*
X132260000Y-116005000D01*
X126820000Y-118945000D02*
X132260000Y-118945000D01*
X126820000Y-116005000D02*
X126820000Y-118945000D01*
%TO.C,D3*%
X147140000Y-116005000D02*
X147140000Y-118945000D01*
X147140000Y-118945000D02*
X152580000Y-118945000D01*
X152580000Y-118945000D02*
X152580000Y-116005000D01*
X152580000Y-116005000D02*
X147140000Y-116005000D01*
X144650000Y-117475000D02*
X147140000Y-117475000D01*
X155070000Y-117475000D02*
X152580000Y-117475000D01*
X148040000Y-116005000D02*
X148040000Y-118945000D01*
X148160000Y-116005000D02*
X148160000Y-118945000D01*
X147920000Y-116005000D02*
X147920000Y-118945000D01*
%TO.C,D4*%
X168240000Y-116005000D02*
X168240000Y-118945000D01*
X168480000Y-116005000D02*
X168480000Y-118945000D01*
X168360000Y-116005000D02*
X168360000Y-118945000D01*
X175390000Y-117475000D02*
X172900000Y-117475000D01*
X164970000Y-117475000D02*
X167460000Y-117475000D01*
X172900000Y-116005000D02*
X167460000Y-116005000D01*
X172900000Y-118945000D02*
X172900000Y-116005000D01*
X167460000Y-118945000D02*
X172900000Y-118945000D01*
X167460000Y-116005000D02*
X167460000Y-118945000D01*
%TO.C,D5*%
X188560000Y-116005000D02*
X188560000Y-118945000D01*
X188800000Y-116005000D02*
X188800000Y-118945000D01*
X188680000Y-116005000D02*
X188680000Y-118945000D01*
X195710000Y-117475000D02*
X193220000Y-117475000D01*
X185290000Y-117475000D02*
X187780000Y-117475000D01*
X193220000Y-116005000D02*
X187780000Y-116005000D01*
X193220000Y-118945000D02*
X193220000Y-116005000D01*
X187780000Y-118945000D02*
X193220000Y-118945000D01*
X187780000Y-116005000D02*
X187780000Y-118945000D01*
%TO.C,D6*%
X207465000Y-116005000D02*
X207465000Y-118945000D01*
X207465000Y-118945000D02*
X212905000Y-118945000D01*
X212905000Y-118945000D02*
X212905000Y-116005000D01*
X212905000Y-116005000D02*
X207465000Y-116005000D01*
X204975000Y-117475000D02*
X207465000Y-117475000D01*
X215395000Y-117475000D02*
X212905000Y-117475000D01*
X208365000Y-116005000D02*
X208365000Y-118945000D01*
X208485000Y-116005000D02*
X208485000Y-118945000D01*
X208245000Y-116005000D02*
X208245000Y-118945000D01*
%TO.C,D7*%
X234750000Y-118290000D02*
X237690000Y-118290000D01*
X237690000Y-118290000D02*
X237690000Y-112850000D01*
X237690000Y-112850000D02*
X234750000Y-112850000D01*
X234750000Y-112850000D02*
X234750000Y-118290000D01*
X236220000Y-120780000D02*
X236220000Y-118290000D01*
X236220000Y-110360000D02*
X236220000Y-112850000D01*
X234750000Y-117390000D02*
X237690000Y-117390000D01*
X234750000Y-117270000D02*
X237690000Y-117270000D01*
X234750000Y-117510000D02*
X237690000Y-117510000D01*
%TO.C,D8*%
X234750000Y-70690000D02*
X237690000Y-70690000D01*
X234750000Y-70450000D02*
X237690000Y-70450000D01*
X234750000Y-70570000D02*
X237690000Y-70570000D01*
X236220000Y-63540000D02*
X236220000Y-66030000D01*
X236220000Y-73960000D02*
X236220000Y-71470000D01*
X234750000Y-66030000D02*
X234750000Y-71470000D01*
X237690000Y-66030000D02*
X234750000Y-66030000D01*
X237690000Y-71470000D02*
X237690000Y-66030000D01*
X234750000Y-71470000D02*
X237690000Y-71470000D01*
%TO.C,Dled1*%
X176770000Y-56000000D02*
G75*
G03*
X176770000Y-56000000I-2500000J0D01*
G01*
X171710000Y-54455000D02*
X171710000Y-57545000D01*
X177260000Y-55999538D02*
G75*
G02*
X171710000Y-57544830I-2990000J-462D01*
G01*
X177260000Y-56000462D02*
G75*
G03*
X171710000Y-54455170I-2990000J462D01*
G01*
%TO.C,Dled2*%
X162710000Y-54455000D02*
X162710000Y-57545000D01*
X167770000Y-56000000D02*
G75*
G03*
X167770000Y-56000000I-2500000J0D01*
G01*
X168260000Y-56000462D02*
G75*
G03*
X162710000Y-54455170I-2990000J462D01*
G01*
X168260000Y-55999538D02*
G75*
G02*
X162710000Y-57544830I-2990000J-462D01*
G01*
%TO.C,Dled3*%
X153710000Y-54455000D02*
X153710000Y-57545000D01*
X158770000Y-56000000D02*
G75*
G03*
X158770000Y-56000000I-2500000J0D01*
G01*
X159260000Y-56000462D02*
G75*
G03*
X153710000Y-54455170I-2990000J462D01*
G01*
X159260000Y-55999538D02*
G75*
G02*
X153710000Y-57544830I-2990000J-462D01*
G01*
%TO.C,Dreg1*%
X108765000Y-68780000D02*
X108765000Y-65840000D01*
X108765000Y-65840000D02*
X103325000Y-65840000D01*
X103325000Y-65840000D02*
X103325000Y-68780000D01*
X103325000Y-68780000D02*
X108765000Y-68780000D01*
X111255000Y-67310000D02*
X108765000Y-67310000D01*
X100835000Y-67310000D02*
X103325000Y-67310000D01*
X107865000Y-68780000D02*
X107865000Y-65840000D01*
X107745000Y-68780000D02*
X107745000Y-65840000D01*
X107985000Y-68780000D02*
X107985000Y-65840000D01*
%TO.C,DREG1*%
X117275000Y-81315000D02*
X120215000Y-81315000D01*
X117275000Y-81075000D02*
X120215000Y-81075000D01*
X117275000Y-81195000D02*
X120215000Y-81195000D01*
X118745000Y-75635000D02*
X118745000Y-76655000D01*
X118745000Y-83115000D02*
X118745000Y-82095000D01*
X117275000Y-76655000D02*
X117275000Y-82095000D01*
X120215000Y-76655000D02*
X117275000Y-76655000D01*
X120215000Y-82095000D02*
X120215000Y-76655000D01*
X117275000Y-82095000D02*
X120215000Y-82095000D01*
%TO.C,Dreg2*%
X123155000Y-65840000D02*
X123155000Y-68780000D01*
X123395000Y-65840000D02*
X123395000Y-68780000D01*
X123275000Y-65840000D02*
X123275000Y-68780000D01*
X130305000Y-67310000D02*
X127815000Y-67310000D01*
X119885000Y-67310000D02*
X122375000Y-67310000D01*
X127815000Y-65840000D02*
X122375000Y-65840000D01*
X127815000Y-68780000D02*
X127815000Y-65840000D01*
X122375000Y-68780000D02*
X127815000Y-68780000D01*
X122375000Y-65840000D02*
X122375000Y-68780000D01*
%TO.C,DREG2*%
X117275000Y-97970000D02*
X120215000Y-97970000D01*
X120215000Y-97970000D02*
X120215000Y-92530000D01*
X120215000Y-92530000D02*
X117275000Y-92530000D01*
X117275000Y-92530000D02*
X117275000Y-97970000D01*
X118745000Y-98990000D02*
X118745000Y-97970000D01*
X118745000Y-91510000D02*
X118745000Y-92530000D01*
X117275000Y-97070000D02*
X120215000Y-97070000D01*
X117275000Y-96950000D02*
X120215000Y-96950000D01*
X117275000Y-97190000D02*
X120215000Y-97190000D01*
%TO.C,Fusible1*%
X135610000Y-98425000D02*
X132810000Y-98425000D01*
X135610000Y-98425000D02*
X135610000Y-75825000D01*
X126010000Y-98425000D02*
X126010000Y-75825000D01*
X128810000Y-98425000D02*
X126010000Y-98425000D01*
X128810000Y-75825000D02*
X126010000Y-75825000D01*
X135610000Y-75825000D02*
X132810000Y-75825000D01*
%TO.C,J1*%
X110900000Y-129540000D02*
G75*
G03*
X110900000Y-129540000I-1680000J0D01*
G01*
X115900000Y-129540000D02*
G75*
G03*
X115900000Y-129540000I-1680000J0D01*
G01*
X101660000Y-133640000D02*
X116780000Y-133640000D01*
X101660000Y-132140000D02*
X116780000Y-132140000D01*
X101660000Y-127239000D02*
X116780000Y-127239000D01*
X101660000Y-124279000D02*
X116780000Y-124279000D01*
X101660000Y-134200000D02*
X116780000Y-134200000D01*
X101660000Y-124279000D02*
X101660000Y-134200000D01*
X116780000Y-124279000D02*
X116780000Y-134200000D01*
X110495000Y-128471000D02*
X110448000Y-128517000D01*
X108186000Y-130779000D02*
X108151000Y-130814000D01*
X110290000Y-128265000D02*
X110255000Y-128301000D01*
X107993000Y-130563000D02*
X107946000Y-130609000D01*
X115495000Y-128471000D02*
X115448000Y-128517000D01*
X113186000Y-130779000D02*
X113151000Y-130814000D01*
X115290000Y-128265000D02*
X115255000Y-128301000D01*
X112993000Y-130563000D02*
X112946000Y-130609000D01*
X101420000Y-133700000D02*
X101420000Y-134440000D01*
X101420000Y-134440000D02*
X101920000Y-134440000D01*
X104248805Y-131220253D02*
G75*
G02*
X103536000Y-131075000I-28805J1680253D01*
G01*
X102684574Y-130223042D02*
G75*
G02*
X102685000Y-128856000I1535426J683042D01*
G01*
X103536958Y-128004574D02*
G75*
G02*
X104904000Y-128005000I683042J-1535426D01*
G01*
X105755426Y-128856958D02*
G75*
G02*
X105755000Y-130224000I-1535426J-683042D01*
G01*
X104903318Y-131074756D02*
G75*
G02*
X104220000Y-131220000I-683318J1534756D01*
G01*
%TO.C,J2*%
X121740000Y-134440000D02*
X122240000Y-134440000D01*
X121740000Y-133700000D02*
X121740000Y-134440000D01*
X133313000Y-130563000D02*
X133266000Y-130609000D01*
X135610000Y-128265000D02*
X135575000Y-128301000D01*
X133506000Y-130779000D02*
X133471000Y-130814000D01*
X135815000Y-128471000D02*
X135768000Y-128517000D01*
X128313000Y-130563000D02*
X128266000Y-130609000D01*
X130610000Y-128265000D02*
X130575000Y-128301000D01*
X128506000Y-130779000D02*
X128471000Y-130814000D01*
X130815000Y-128471000D02*
X130768000Y-128517000D01*
X137100000Y-124279000D02*
X137100000Y-134200000D01*
X121980000Y-124279000D02*
X121980000Y-134200000D01*
X121980000Y-134200000D02*
X137100000Y-134200000D01*
X121980000Y-124279000D02*
X137100000Y-124279000D01*
X121980000Y-127239000D02*
X137100000Y-127239000D01*
X121980000Y-132140000D02*
X137100000Y-132140000D01*
X121980000Y-133640000D02*
X137100000Y-133640000D01*
X136220000Y-129540000D02*
G75*
G03*
X136220000Y-129540000I-1680000J0D01*
G01*
X131220000Y-129540000D02*
G75*
G03*
X131220000Y-129540000I-1680000J0D01*
G01*
X125223318Y-131074756D02*
G75*
G02*
X124540000Y-131220000I-683318J1534756D01*
G01*
X126075426Y-128856958D02*
G75*
G02*
X126075000Y-130224000I-1535426J-683042D01*
G01*
X123856958Y-128004574D02*
G75*
G02*
X125224000Y-128005000I683042J-1535426D01*
G01*
X123004574Y-130223042D02*
G75*
G02*
X123005000Y-128856000I1535426J683042D01*
G01*
X124568805Y-131220253D02*
G75*
G02*
X123856000Y-131075000I-28805J1680253D01*
G01*
%TO.C,J3*%
X151540000Y-129540000D02*
G75*
G03*
X151540000Y-129540000I-1680000J0D01*
G01*
X156540000Y-129540000D02*
G75*
G03*
X156540000Y-129540000I-1680000J0D01*
G01*
X142300000Y-133640000D02*
X157420000Y-133640000D01*
X142300000Y-132140000D02*
X157420000Y-132140000D01*
X142300000Y-127239000D02*
X157420000Y-127239000D01*
X142300000Y-124279000D02*
X157420000Y-124279000D01*
X142300000Y-134200000D02*
X157420000Y-134200000D01*
X142300000Y-124279000D02*
X142300000Y-134200000D01*
X157420000Y-124279000D02*
X157420000Y-134200000D01*
X151135000Y-128471000D02*
X151088000Y-128517000D01*
X148826000Y-130779000D02*
X148791000Y-130814000D01*
X150930000Y-128265000D02*
X150895000Y-128301000D01*
X148633000Y-130563000D02*
X148586000Y-130609000D01*
X156135000Y-128471000D02*
X156088000Y-128517000D01*
X153826000Y-130779000D02*
X153791000Y-130814000D01*
X155930000Y-128265000D02*
X155895000Y-128301000D01*
X153633000Y-130563000D02*
X153586000Y-130609000D01*
X142060000Y-133700000D02*
X142060000Y-134440000D01*
X142060000Y-134440000D02*
X142560000Y-134440000D01*
X144888805Y-131220253D02*
G75*
G02*
X144176000Y-131075000I-28805J1680253D01*
G01*
X143324574Y-130223042D02*
G75*
G02*
X143325000Y-128856000I1535426J683042D01*
G01*
X144176958Y-128004574D02*
G75*
G02*
X145544000Y-128005000I683042J-1535426D01*
G01*
X146395426Y-128856958D02*
G75*
G02*
X146395000Y-130224000I-1535426J-683042D01*
G01*
X145543318Y-131074756D02*
G75*
G02*
X144860000Y-131220000I-683318J1534756D01*
G01*
%TO.C,J4*%
X162300000Y-134440000D02*
X162800000Y-134440000D01*
X162300000Y-133700000D02*
X162300000Y-134440000D01*
X173873000Y-130563000D02*
X173826000Y-130609000D01*
X176170000Y-128265000D02*
X176135000Y-128301000D01*
X174066000Y-130779000D02*
X174031000Y-130814000D01*
X176375000Y-128471000D02*
X176328000Y-128517000D01*
X168873000Y-130563000D02*
X168826000Y-130609000D01*
X171170000Y-128265000D02*
X171135000Y-128301000D01*
X169066000Y-130779000D02*
X169031000Y-130814000D01*
X171375000Y-128471000D02*
X171328000Y-128517000D01*
X177660000Y-124279000D02*
X177660000Y-134200000D01*
X162540000Y-124279000D02*
X162540000Y-134200000D01*
X162540000Y-134200000D02*
X177660000Y-134200000D01*
X162540000Y-124279000D02*
X177660000Y-124279000D01*
X162540000Y-127239000D02*
X177660000Y-127239000D01*
X162540000Y-132140000D02*
X177660000Y-132140000D01*
X162540000Y-133640000D02*
X177660000Y-133640000D01*
X176780000Y-129540000D02*
G75*
G03*
X176780000Y-129540000I-1680000J0D01*
G01*
X171780000Y-129540000D02*
G75*
G03*
X171780000Y-129540000I-1680000J0D01*
G01*
X165783318Y-131074756D02*
G75*
G02*
X165100000Y-131220000I-683318J1534756D01*
G01*
X166635426Y-128856958D02*
G75*
G02*
X166635000Y-130224000I-1535426J-683042D01*
G01*
X164416958Y-128004574D02*
G75*
G02*
X165784000Y-128005000I683042J-1535426D01*
G01*
X163564574Y-130223042D02*
G75*
G02*
X163565000Y-128856000I1535426J683042D01*
G01*
X165128805Y-131220253D02*
G75*
G02*
X164416000Y-131075000I-28805J1680253D01*
G01*
%TO.C,J5*%
X192100000Y-129540000D02*
G75*
G03*
X192100000Y-129540000I-1680000J0D01*
G01*
X197100000Y-129540000D02*
G75*
G03*
X197100000Y-129540000I-1680000J0D01*
G01*
X182860000Y-133640000D02*
X197980000Y-133640000D01*
X182860000Y-132140000D02*
X197980000Y-132140000D01*
X182860000Y-127239000D02*
X197980000Y-127239000D01*
X182860000Y-124279000D02*
X197980000Y-124279000D01*
X182860000Y-134200000D02*
X197980000Y-134200000D01*
X182860000Y-124279000D02*
X182860000Y-134200000D01*
X197980000Y-124279000D02*
X197980000Y-134200000D01*
X191695000Y-128471000D02*
X191648000Y-128517000D01*
X189386000Y-130779000D02*
X189351000Y-130814000D01*
X191490000Y-128265000D02*
X191455000Y-128301000D01*
X189193000Y-130563000D02*
X189146000Y-130609000D01*
X196695000Y-128471000D02*
X196648000Y-128517000D01*
X194386000Y-130779000D02*
X194351000Y-130814000D01*
X196490000Y-128265000D02*
X196455000Y-128301000D01*
X194193000Y-130563000D02*
X194146000Y-130609000D01*
X182620000Y-133700000D02*
X182620000Y-134440000D01*
X182620000Y-134440000D02*
X183120000Y-134440000D01*
X185448805Y-131220253D02*
G75*
G02*
X184736000Y-131075000I-28805J1680253D01*
G01*
X183884574Y-130223042D02*
G75*
G02*
X183885000Y-128856000I1535426J683042D01*
G01*
X184736958Y-128004574D02*
G75*
G02*
X186104000Y-128005000I683042J-1535426D01*
G01*
X186955426Y-128856958D02*
G75*
G02*
X186955000Y-130224000I-1535426J-683042D01*
G01*
X186103318Y-131074756D02*
G75*
G02*
X185420000Y-131220000I-683318J1534756D01*
G01*
%TO.C,J6*%
X202385000Y-134440000D02*
X202885000Y-134440000D01*
X202385000Y-133700000D02*
X202385000Y-134440000D01*
X213958000Y-130563000D02*
X213911000Y-130609000D01*
X216255000Y-128265000D02*
X216220000Y-128301000D01*
X214151000Y-130779000D02*
X214116000Y-130814000D01*
X216460000Y-128471000D02*
X216413000Y-128517000D01*
X208958000Y-130563000D02*
X208911000Y-130609000D01*
X211255000Y-128265000D02*
X211220000Y-128301000D01*
X209151000Y-130779000D02*
X209116000Y-130814000D01*
X211460000Y-128471000D02*
X211413000Y-128517000D01*
X217745000Y-124279000D02*
X217745000Y-134200000D01*
X202625000Y-124279000D02*
X202625000Y-134200000D01*
X202625000Y-134200000D02*
X217745000Y-134200000D01*
X202625000Y-124279000D02*
X217745000Y-124279000D01*
X202625000Y-127239000D02*
X217745000Y-127239000D01*
X202625000Y-132140000D02*
X217745000Y-132140000D01*
X202625000Y-133640000D02*
X217745000Y-133640000D01*
X216865000Y-129540000D02*
G75*
G03*
X216865000Y-129540000I-1680000J0D01*
G01*
X211865000Y-129540000D02*
G75*
G03*
X211865000Y-129540000I-1680000J0D01*
G01*
X205868318Y-131074756D02*
G75*
G02*
X205185000Y-131220000I-683318J1534756D01*
G01*
X206720426Y-128856958D02*
G75*
G02*
X206720000Y-130224000I-1535426J-683042D01*
G01*
X204501958Y-128004574D02*
G75*
G02*
X205869000Y-128005000I683042J-1535426D01*
G01*
X203649574Y-130223042D02*
G75*
G02*
X203650000Y-128856000I1535426J683042D01*
G01*
X205213805Y-131220253D02*
G75*
G02*
X204501000Y-131075000I-28805J1680253D01*
G01*
%TO.C,J7*%
X250600000Y-115570000D02*
G75*
G03*
X250600000Y-115570000I-1680000J0D01*
G01*
X250600000Y-110570000D02*
G75*
G03*
X250600000Y-110570000I-1680000J0D01*
G01*
X253020000Y-123130000D02*
X253020000Y-108010000D01*
X251520000Y-123130000D02*
X251520000Y-108010000D01*
X246619000Y-123130000D02*
X246619000Y-108010000D01*
X243659000Y-123130000D02*
X243659000Y-108010000D01*
X253580000Y-123130000D02*
X253580000Y-108010000D01*
X243659000Y-123130000D02*
X253580000Y-123130000D01*
X243659000Y-108010000D02*
X253580000Y-108010000D01*
X247851000Y-114295000D02*
X247897000Y-114342000D01*
X250159000Y-116604000D02*
X250194000Y-116639000D01*
X247645000Y-114500000D02*
X247681000Y-114535000D01*
X249943000Y-116797000D02*
X249989000Y-116844000D01*
X247851000Y-109295000D02*
X247897000Y-109342000D01*
X250159000Y-111604000D02*
X250194000Y-111639000D01*
X247645000Y-109500000D02*
X247681000Y-109535000D01*
X249943000Y-111797000D02*
X249989000Y-111844000D01*
X253080000Y-123370000D02*
X253820000Y-123370000D01*
X253820000Y-123370000D02*
X253820000Y-122870000D01*
X250600253Y-120541195D02*
G75*
G02*
X250455000Y-121254000I-1680253J-28805D01*
G01*
X249603042Y-122105426D02*
G75*
G02*
X248236000Y-122105000I-683042J1535426D01*
G01*
X247384574Y-121253042D02*
G75*
G02*
X247385000Y-119886000I1535426J683042D01*
G01*
X248236958Y-119034574D02*
G75*
G02*
X249604000Y-119035000I683042J-1535426D01*
G01*
X250454756Y-119886682D02*
G75*
G02*
X250600000Y-120570000I-1534756J-683318D01*
G01*
%TO.C,J8*%
X253820000Y-76550000D02*
X253820000Y-76050000D01*
X253080000Y-76550000D02*
X253820000Y-76550000D01*
X249943000Y-64977000D02*
X249989000Y-65024000D01*
X247645000Y-62680000D02*
X247681000Y-62715000D01*
X250159000Y-64784000D02*
X250194000Y-64819000D01*
X247851000Y-62475000D02*
X247897000Y-62522000D01*
X249943000Y-69977000D02*
X249989000Y-70024000D01*
X247645000Y-67680000D02*
X247681000Y-67715000D01*
X250159000Y-69784000D02*
X250194000Y-69819000D01*
X247851000Y-67475000D02*
X247897000Y-67522000D01*
X243659000Y-61190000D02*
X253580000Y-61190000D01*
X243659000Y-76310000D02*
X253580000Y-76310000D01*
X253580000Y-76310000D02*
X253580000Y-61190000D01*
X243659000Y-76310000D02*
X243659000Y-61190000D01*
X246619000Y-76310000D02*
X246619000Y-61190000D01*
X251520000Y-76310000D02*
X251520000Y-61190000D01*
X253020000Y-76310000D02*
X253020000Y-61190000D01*
X250600000Y-63750000D02*
G75*
G03*
X250600000Y-63750000I-1680000J0D01*
G01*
X250600000Y-68750000D02*
G75*
G03*
X250600000Y-68750000I-1680000J0D01*
G01*
X250454756Y-73066682D02*
G75*
G02*
X250600000Y-73750000I-1534756J-683318D01*
G01*
X248236958Y-72214574D02*
G75*
G02*
X249604000Y-72215000I683042J-1535426D01*
G01*
X247384574Y-74433042D02*
G75*
G02*
X247385000Y-73066000I1535426J683042D01*
G01*
X249603042Y-75285426D02*
G75*
G02*
X248236000Y-75285000I-683042J1535426D01*
G01*
X250600253Y-73721195D02*
G75*
G02*
X250455000Y-74434000I-1680253J-28805D01*
G01*
%TO.C,JabajoMDOT1*%
X152560000Y-99560000D02*
X151500000Y-99560000D01*
X152560000Y-98500000D02*
X152560000Y-99560000D01*
X152560000Y-97500000D02*
X150440000Y-97500000D01*
X150440000Y-97500000D02*
X150440000Y-83440000D01*
X152560000Y-97500000D02*
X152560000Y-83440000D01*
X152560000Y-83440000D02*
X150440000Y-83440000D01*
%TO.C,JBat1*%
X123180000Y-55880000D02*
G75*
G03*
X123180000Y-55880000I-1680000J0D01*
G01*
X129060000Y-51780000D02*
X118940000Y-51780000D01*
X129060000Y-53280000D02*
X118940000Y-53280000D01*
X129060000Y-58181000D02*
X118940000Y-58181000D01*
X129060000Y-61141000D02*
X118940000Y-61141000D01*
X129060000Y-51220000D02*
X118940000Y-51220000D01*
X129060000Y-61141000D02*
X129060000Y-51220000D01*
X118940000Y-61141000D02*
X118940000Y-51220000D01*
X120225000Y-56949000D02*
X120272000Y-56903000D01*
X122534000Y-54641000D02*
X122569000Y-54606000D01*
X120430000Y-57155000D02*
X120465000Y-57119000D01*
X122727000Y-54857000D02*
X122774000Y-54811000D01*
X129300000Y-51720000D02*
X129300000Y-50980000D01*
X129300000Y-50980000D02*
X128800000Y-50980000D01*
X126471195Y-54199747D02*
G75*
G02*
X127184000Y-54345000I28805J-1680253D01*
G01*
X128035426Y-55196958D02*
G75*
G02*
X128035000Y-56564000I-1535426J-683042D01*
G01*
X127183042Y-57415426D02*
G75*
G02*
X125816000Y-57415000I-683042J1535426D01*
G01*
X124964574Y-56563042D02*
G75*
G02*
X124965000Y-55196000I1535426J683042D01*
G01*
X125816682Y-54345244D02*
G75*
G02*
X126500000Y-54200000I683318J-1534756D01*
G01*
%TO.C,JderMDOT1*%
X180060000Y-102500000D02*
X180060000Y-103560000D01*
X180060000Y-103560000D02*
X179000000Y-103560000D01*
X178000000Y-103560000D02*
X159940000Y-103560000D01*
X159940000Y-101440000D02*
X159940000Y-103560000D01*
X178000000Y-101440000D02*
X159940000Y-101440000D01*
X178000000Y-101440000D02*
X178000000Y-103560000D01*
%TO.C,JizqMDOT1*%
X178000000Y-79440000D02*
X178000000Y-81560000D01*
X178000000Y-79440000D02*
X159940000Y-79440000D01*
X159940000Y-79440000D02*
X159940000Y-81560000D01*
X178000000Y-81560000D02*
X159940000Y-81560000D01*
X180060000Y-81560000D02*
X179000000Y-81560000D01*
X180060000Y-80500000D02*
X180060000Y-81560000D01*
%TO.C,JPanel1*%
X111940000Y-50980000D02*
X111440000Y-50980000D01*
X111940000Y-51720000D02*
X111940000Y-50980000D01*
X105367000Y-54857000D02*
X105414000Y-54811000D01*
X103070000Y-57155000D02*
X103105000Y-57119000D01*
X105174000Y-54641000D02*
X105209000Y-54606000D01*
X102865000Y-56949000D02*
X102912000Y-56903000D01*
X101580000Y-61141000D02*
X101580000Y-51220000D01*
X111700000Y-61141000D02*
X111700000Y-51220000D01*
X111700000Y-51220000D02*
X101580000Y-51220000D01*
X111700000Y-61141000D02*
X101580000Y-61141000D01*
X111700000Y-58181000D02*
X101580000Y-58181000D01*
X111700000Y-53280000D02*
X101580000Y-53280000D01*
X111700000Y-51780000D02*
X101580000Y-51780000D01*
X105820000Y-55880000D02*
G75*
G03*
X105820000Y-55880000I-1680000J0D01*
G01*
X108456682Y-54345244D02*
G75*
G02*
X109140000Y-54200000I683318J-1534756D01*
G01*
X107604574Y-56563042D02*
G75*
G02*
X107605000Y-55196000I1535426J683042D01*
G01*
X109823042Y-57415426D02*
G75*
G02*
X108456000Y-57415000I-683042J1535426D01*
G01*
X110675426Y-55196958D02*
G75*
G02*
X110675000Y-56564000I-1535426J-683042D01*
G01*
X109111195Y-54199747D02*
G75*
G02*
X109824000Y-54345000I28805J-1680253D01*
G01*
%TO.C,JPConf&Supply1*%
X141170000Y-79160000D02*
X143830000Y-79160000D01*
X141170000Y-74020000D02*
X141170000Y-79160000D01*
X143830000Y-74020000D02*
X143830000Y-79160000D01*
X141170000Y-74020000D02*
X143830000Y-74020000D01*
X141170000Y-72750000D02*
X141170000Y-71420000D01*
X141170000Y-71420000D02*
X142500000Y-71420000D01*
%TO.C,JPSWPUERTA1*%
X135840000Y-108830000D02*
X135840000Y-107500000D01*
X137170000Y-108830000D02*
X135840000Y-108830000D01*
X138440000Y-108830000D02*
X138440000Y-106170000D01*
X138440000Y-106170000D02*
X143580000Y-106170000D01*
X138440000Y-108830000D02*
X143580000Y-108830000D01*
X143580000Y-108830000D02*
X143580000Y-106170000D01*
%TO.C,JUSB1*%
X142500000Y-99080000D02*
X141170000Y-99080000D01*
X141170000Y-99080000D02*
X141170000Y-97750000D01*
X141170000Y-96480000D02*
X141170000Y-83720000D01*
X143830000Y-83720000D02*
X141170000Y-83720000D01*
X143830000Y-96480000D02*
X143830000Y-83720000D01*
X143830000Y-96480000D02*
X141170000Y-96480000D01*
%TO.C,Q1*%
X169530000Y-73220000D02*
X173130000Y-73220000D01*
X173168478Y-73208478D02*
G75*
G03*
X171330000Y-68770000I-1838478J1838478D01*
G01*
X169491522Y-73208478D02*
G75*
G02*
X171330000Y-68770000I1838478J1838478D01*
G01*
%TO.C,Q2*%
X160005000Y-73220000D02*
X163605000Y-73220000D01*
X159966522Y-73208478D02*
G75*
G02*
X161805000Y-68770000I1838478J1838478D01*
G01*
X163643478Y-73208478D02*
G75*
G03*
X161805000Y-68770000I-1838478J1838478D01*
G01*
%TO.C,Q3*%
X150480000Y-73220000D02*
X154080000Y-73220000D01*
X150441522Y-73208478D02*
G75*
G02*
X152280000Y-68770000I1838478J1838478D01*
G01*
X154118478Y-73208478D02*
G75*
G03*
X152280000Y-68770000I-1838478J1838478D01*
G01*
%TO.C,R10*%
X205180000Y-98500000D02*
X204230000Y-98500000D01*
X199440000Y-98500000D02*
X200390000Y-98500000D01*
X204230000Y-97580000D02*
X200390000Y-97580000D01*
X204230000Y-99420000D02*
X204230000Y-97580000D01*
X200390000Y-99420000D02*
X204230000Y-99420000D01*
X200390000Y-97580000D02*
X200390000Y-99420000D01*
%TO.C,R11*%
X211390000Y-97580000D02*
X211390000Y-99420000D01*
X211390000Y-99420000D02*
X215230000Y-99420000D01*
X215230000Y-99420000D02*
X215230000Y-97580000D01*
X215230000Y-97580000D02*
X211390000Y-97580000D01*
X210440000Y-98500000D02*
X211390000Y-98500000D01*
X216180000Y-98500000D02*
X215230000Y-98500000D01*
%TO.C,R20*%
X205180000Y-94000000D02*
X204230000Y-94000000D01*
X199440000Y-94000000D02*
X200390000Y-94000000D01*
X204230000Y-93080000D02*
X200390000Y-93080000D01*
X204230000Y-94920000D02*
X204230000Y-93080000D01*
X200390000Y-94920000D02*
X204230000Y-94920000D01*
X200390000Y-93080000D02*
X200390000Y-94920000D01*
%TO.C,R21*%
X216180000Y-94000000D02*
X215230000Y-94000000D01*
X210440000Y-94000000D02*
X211390000Y-94000000D01*
X215230000Y-93080000D02*
X211390000Y-93080000D01*
X215230000Y-94920000D02*
X215230000Y-93080000D01*
X211390000Y-94920000D02*
X215230000Y-94920000D01*
X211390000Y-93080000D02*
X211390000Y-94920000D01*
%TO.C,R30*%
X200390000Y-80330000D02*
X200390000Y-82170000D01*
X200390000Y-82170000D02*
X204230000Y-82170000D01*
X204230000Y-82170000D02*
X204230000Y-80330000D01*
X204230000Y-80330000D02*
X200390000Y-80330000D01*
X199440000Y-81250000D02*
X200390000Y-81250000D01*
X205180000Y-81250000D02*
X204230000Y-81250000D01*
%TO.C,R31*%
X211390000Y-80330000D02*
X211390000Y-82170000D01*
X211390000Y-82170000D02*
X215230000Y-82170000D01*
X215230000Y-82170000D02*
X215230000Y-80330000D01*
X215230000Y-80330000D02*
X211390000Y-80330000D01*
X210440000Y-81250000D02*
X211390000Y-81250000D01*
X216180000Y-81250000D02*
X215230000Y-81250000D01*
%TO.C,R40*%
X205180000Y-85750000D02*
X204230000Y-85750000D01*
X199440000Y-85750000D02*
X200390000Y-85750000D01*
X204230000Y-84830000D02*
X200390000Y-84830000D01*
X204230000Y-86670000D02*
X204230000Y-84830000D01*
X200390000Y-86670000D02*
X204230000Y-86670000D01*
X200390000Y-84830000D02*
X200390000Y-86670000D01*
%TO.C,R41*%
X211390000Y-84830000D02*
X211390000Y-86670000D01*
X211390000Y-86670000D02*
X215230000Y-86670000D01*
X215230000Y-86670000D02*
X215230000Y-84830000D01*
X215230000Y-84830000D02*
X211390000Y-84830000D01*
X210440000Y-85750000D02*
X211390000Y-85750000D01*
X216180000Y-85750000D02*
X215230000Y-85750000D01*
%TO.C,R50*%
X228180000Y-81250000D02*
X227230000Y-81250000D01*
X222440000Y-81250000D02*
X223390000Y-81250000D01*
X227230000Y-80330000D02*
X223390000Y-80330000D01*
X227230000Y-82170000D02*
X227230000Y-80330000D01*
X223390000Y-82170000D02*
X227230000Y-82170000D01*
X223390000Y-80330000D02*
X223390000Y-82170000D01*
%TO.C,R51*%
X234390000Y-80330000D02*
X234390000Y-82170000D01*
X234390000Y-82170000D02*
X238230000Y-82170000D01*
X238230000Y-82170000D02*
X238230000Y-80330000D01*
X238230000Y-80330000D02*
X234390000Y-80330000D01*
X233440000Y-81250000D02*
X234390000Y-81250000D01*
X239180000Y-81250000D02*
X238230000Y-81250000D01*
%TO.C,R60*%
X228180000Y-85750000D02*
X227230000Y-85750000D01*
X222440000Y-85750000D02*
X223390000Y-85750000D01*
X227230000Y-84830000D02*
X223390000Y-84830000D01*
X227230000Y-86670000D02*
X227230000Y-84830000D01*
X223390000Y-86670000D02*
X227230000Y-86670000D01*
X223390000Y-84830000D02*
X223390000Y-86670000D01*
%TO.C,R61*%
X234390000Y-84830000D02*
X234390000Y-86670000D01*
X234390000Y-86670000D02*
X238230000Y-86670000D01*
X238230000Y-86670000D02*
X238230000Y-84830000D01*
X238230000Y-84830000D02*
X234390000Y-84830000D01*
X233440000Y-85750000D02*
X234390000Y-85750000D01*
X239180000Y-85750000D02*
X238230000Y-85750000D01*
%TO.C,R70*%
X228180000Y-94000000D02*
X227230000Y-94000000D01*
X222440000Y-94000000D02*
X223390000Y-94000000D01*
X227230000Y-93080000D02*
X223390000Y-93080000D01*
X227230000Y-94920000D02*
X227230000Y-93080000D01*
X223390000Y-94920000D02*
X227230000Y-94920000D01*
X223390000Y-93080000D02*
X223390000Y-94920000D01*
%TO.C,R71*%
X234390000Y-93080000D02*
X234390000Y-94920000D01*
X234390000Y-94920000D02*
X238230000Y-94920000D01*
X238230000Y-94920000D02*
X238230000Y-93080000D01*
X238230000Y-93080000D02*
X234390000Y-93080000D01*
X233440000Y-94000000D02*
X234390000Y-94000000D01*
X239180000Y-94000000D02*
X238230000Y-94000000D01*
%TO.C,R80*%
X228180000Y-98500000D02*
X227230000Y-98500000D01*
X222440000Y-98500000D02*
X223390000Y-98500000D01*
X227230000Y-97580000D02*
X223390000Y-97580000D01*
X227230000Y-99420000D02*
X227230000Y-97580000D01*
X223390000Y-99420000D02*
X227230000Y-99420000D01*
X223390000Y-97580000D02*
X223390000Y-99420000D01*
%TO.C,R81*%
X234390000Y-97580000D02*
X234390000Y-99420000D01*
X234390000Y-99420000D02*
X238230000Y-99420000D01*
X238230000Y-99420000D02*
X238230000Y-97580000D01*
X238230000Y-97580000D02*
X234390000Y-97580000D01*
X233440000Y-98500000D02*
X234390000Y-98500000D01*
X239180000Y-98500000D02*
X238230000Y-98500000D01*
%TO.C,Rb1*%
X185920000Y-68890000D02*
X184080000Y-68890000D01*
X184080000Y-68890000D02*
X184080000Y-72730000D01*
X184080000Y-72730000D02*
X185920000Y-72730000D01*
X185920000Y-72730000D02*
X185920000Y-68890000D01*
X185000000Y-67940000D02*
X185000000Y-68890000D01*
X185000000Y-73680000D02*
X185000000Y-72730000D01*
%TO.C,Rb2*%
X190920000Y-68890000D02*
X189080000Y-68890000D01*
X189080000Y-68890000D02*
X189080000Y-72730000D01*
X189080000Y-72730000D02*
X190920000Y-72730000D01*
X190920000Y-72730000D02*
X190920000Y-68890000D01*
X190000000Y-67940000D02*
X190000000Y-68890000D01*
X190000000Y-73680000D02*
X190000000Y-72730000D01*
%TO.C,Rb3*%
X195920000Y-68890000D02*
X194080000Y-68890000D01*
X194080000Y-68890000D02*
X194080000Y-72730000D01*
X194080000Y-72730000D02*
X195920000Y-72730000D01*
X195920000Y-72730000D02*
X195920000Y-68890000D01*
X195000000Y-67940000D02*
X195000000Y-68890000D01*
X195000000Y-73680000D02*
X195000000Y-72730000D01*
%TO.C,Rc1*%
X177680000Y-64500000D02*
X176730000Y-64500000D01*
X171940000Y-64500000D02*
X172890000Y-64500000D01*
X176730000Y-63580000D02*
X172890000Y-63580000D01*
X176730000Y-65420000D02*
X176730000Y-63580000D01*
X172890000Y-65420000D02*
X176730000Y-65420000D01*
X172890000Y-63580000D02*
X172890000Y-65420000D01*
%TO.C,Rc2*%
X166680000Y-64500000D02*
X165730000Y-64500000D01*
X160940000Y-64500000D02*
X161890000Y-64500000D01*
X165730000Y-63580000D02*
X161890000Y-63580000D01*
X165730000Y-65420000D02*
X165730000Y-63580000D01*
X161890000Y-65420000D02*
X165730000Y-65420000D01*
X161890000Y-63580000D02*
X161890000Y-65420000D01*
%TO.C,Rc3*%
X150890000Y-63580000D02*
X150890000Y-65420000D01*
X150890000Y-65420000D02*
X154730000Y-65420000D01*
X154730000Y-65420000D02*
X154730000Y-63580000D01*
X154730000Y-63580000D02*
X150890000Y-63580000D01*
X149940000Y-64500000D02*
X150890000Y-64500000D01*
X155680000Y-64500000D02*
X154730000Y-64500000D01*
%TO.C,RDown1*%
X139390000Y-65830000D02*
X139390000Y-67670000D01*
X139390000Y-67670000D02*
X143230000Y-67670000D01*
X143230000Y-67670000D02*
X143230000Y-65830000D01*
X143230000Y-65830000D02*
X139390000Y-65830000D01*
X138440000Y-66750000D02*
X139390000Y-66750000D01*
X144180000Y-66750000D02*
X143230000Y-66750000D01*
%TO.C,RModo1*%
X219680000Y-54750000D02*
X218730000Y-54750000D01*
X213940000Y-54750000D02*
X214890000Y-54750000D01*
X218730000Y-53830000D02*
X214890000Y-53830000D01*
X218730000Y-55670000D02*
X218730000Y-53830000D01*
X214890000Y-55670000D02*
X218730000Y-55670000D01*
X214890000Y-53830000D02*
X214890000Y-55670000D01*
%TO.C,RREG11*%
X100025000Y-108585000D02*
X99075000Y-108585000D01*
X94285000Y-108585000D02*
X95235000Y-108585000D01*
X99075000Y-107665000D02*
X95235000Y-107665000D01*
X99075000Y-109505000D02*
X99075000Y-107665000D01*
X95235000Y-109505000D02*
X99075000Y-109505000D01*
X95235000Y-107665000D02*
X95235000Y-109505000D01*
%TO.C,RREG12*%
X126060000Y-108585000D02*
X125110000Y-108585000D01*
X120320000Y-108585000D02*
X121270000Y-108585000D01*
X125110000Y-107665000D02*
X121270000Y-107665000D01*
X125110000Y-109505000D02*
X125110000Y-107665000D01*
X121270000Y-109505000D02*
X125110000Y-109505000D01*
X121270000Y-107665000D02*
X121270000Y-109505000D01*
%TO.C,RV1*%
X114740000Y-106055000D02*
X114740000Y-111125000D01*
X104970000Y-106055000D02*
X104970000Y-111125000D01*
X104970000Y-111125000D02*
X114740000Y-111125000D01*
X104970000Y-106055000D02*
X114740000Y-106055000D01*
%TO.C,SWModo1*%
X201500000Y-60825000D02*
X206000000Y-60825000D01*
X200250000Y-56825000D02*
X200250000Y-58325000D01*
X206000000Y-54325000D02*
X201500000Y-54325000D01*
X207250000Y-58325000D02*
X207250000Y-56825000D01*
%TO.C,SWNReset1*%
X191485000Y-58325000D02*
X191485000Y-56825000D01*
X190235000Y-54325000D02*
X185735000Y-54325000D01*
X184485000Y-56825000D02*
X184485000Y-58325000D01*
X185735000Y-60825000D02*
X190235000Y-60825000D01*
%TO.C,SWPanel1*%
X146800000Y-51100000D02*
X146300000Y-51100000D01*
X146800000Y-51840000D02*
X146800000Y-51100000D01*
X140227000Y-54977000D02*
X140274000Y-54931000D01*
X137930000Y-57275000D02*
X137965000Y-57239000D01*
X140034000Y-54761000D02*
X140069000Y-54726000D01*
X137725000Y-57069000D02*
X137772000Y-57023000D01*
X136440000Y-61261000D02*
X136440000Y-51340000D01*
X146560000Y-61261000D02*
X146560000Y-51340000D01*
X146560000Y-51340000D02*
X136440000Y-51340000D01*
X146560000Y-61261000D02*
X136440000Y-61261000D01*
X146560000Y-58301000D02*
X136440000Y-58301000D01*
X146560000Y-53400000D02*
X136440000Y-53400000D01*
X146560000Y-51900000D02*
X136440000Y-51900000D01*
X140680000Y-56000000D02*
G75*
G03*
X140680000Y-56000000I-1680000J0D01*
G01*
X143316682Y-54465244D02*
G75*
G02*
X144000000Y-54320000I683318J-1534756D01*
G01*
X142464574Y-56683042D02*
G75*
G02*
X142465000Y-55316000I1535426J683042D01*
G01*
X144683042Y-57535426D02*
G75*
G02*
X143316000Y-57535000I-683042J1535426D01*
G01*
X145535426Y-55316958D02*
G75*
G02*
X145535000Y-56684000I-1535426J-683042D01*
G01*
X143971195Y-54319747D02*
G75*
G02*
X144684000Y-54465000I28805J-1680253D01*
G01*
%TO.C,U1*%
X207580000Y-102170000D02*
X205345000Y-102170000D01*
X205345000Y-102170000D02*
X205345000Y-112450000D01*
X205345000Y-112450000D02*
X211815000Y-112450000D01*
X211815000Y-112450000D02*
X211815000Y-102170000D01*
X211815000Y-102170000D02*
X209580000Y-102170000D01*
X209580000Y-102170000D02*
G75*
G02*
X207580000Y-102170000I-1000000J0D01*
G01*
%TO.C,U2*%
X207480000Y-64770000D02*
X205245000Y-64770000D01*
X205245000Y-64770000D02*
X205245000Y-75050000D01*
X205245000Y-75050000D02*
X211715000Y-75050000D01*
X211715000Y-75050000D02*
X211715000Y-64770000D01*
X211715000Y-64770000D02*
X209480000Y-64770000D01*
X209480000Y-64770000D02*
G75*
G02*
X207480000Y-64770000I-1000000J0D01*
G01*
%TO.C,U3*%
X228715000Y-64770000D02*
X226480000Y-64770000D01*
X228715000Y-75050000D02*
X228715000Y-64770000D01*
X222245000Y-75050000D02*
X228715000Y-75050000D01*
X222245000Y-64770000D02*
X222245000Y-75050000D01*
X224480000Y-64770000D02*
X222245000Y-64770000D01*
X226480000Y-64770000D02*
G75*
G02*
X224480000Y-64770000I-1000000J0D01*
G01*
%TO.C,U4*%
X228815000Y-102170000D02*
X226580000Y-102170000D01*
X228815000Y-112450000D02*
X228815000Y-102170000D01*
X222345000Y-112450000D02*
X228815000Y-112450000D01*
X222345000Y-102170000D02*
X222345000Y-112450000D01*
X224580000Y-102170000D02*
X222345000Y-102170000D01*
X226580000Y-102170000D02*
G75*
G02*
X224580000Y-102170000I-1000000J0D01*
G01*
%TO.C,UREG1*%
X88805000Y-76254000D02*
X90315000Y-76254000D01*
X88805000Y-79955000D02*
X90315000Y-79955000D01*
X90315000Y-83225000D02*
X90315000Y-72985000D01*
X88805000Y-72985000D02*
X93446000Y-72985000D01*
X88805000Y-83225000D02*
X93446000Y-83225000D01*
X93446000Y-83225000D02*
X93446000Y-72985000D01*
X88805000Y-83225000D02*
X88805000Y-72985000D01*
%TO.C,UREG2*%
X88805000Y-101640000D02*
X88805000Y-91400000D01*
X93446000Y-101640000D02*
X93446000Y-91400000D01*
X88805000Y-101640000D02*
X93446000Y-101640000D01*
X88805000Y-91400000D02*
X93446000Y-91400000D01*
X90315000Y-101640000D02*
X90315000Y-91400000D01*
X88805000Y-98370000D02*
X90315000Y-98370000D01*
X88805000Y-94669000D02*
X90315000Y-94669000D01*
%TD*%
%TO.C,CREGIN1*%
D12*
X105707142Y-81060952D02*
X105754761Y-81108571D01*
X105802380Y-81251428D01*
X105802380Y-81346666D01*
X105754761Y-81489523D01*
X105659523Y-81584761D01*
X105564285Y-81632380D01*
X105373809Y-81680000D01*
X105230952Y-81680000D01*
X105040476Y-81632380D01*
X104945238Y-81584761D01*
X104850000Y-81489523D01*
X104802380Y-81346666D01*
X104802380Y-81251428D01*
X104850000Y-81108571D01*
X104897619Y-81060952D01*
X105802380Y-80060952D02*
X105326190Y-80394285D01*
X105802380Y-80632380D02*
X104802380Y-80632380D01*
X104802380Y-80251428D01*
X104850000Y-80156190D01*
X104897619Y-80108571D01*
X104992857Y-80060952D01*
X105135714Y-80060952D01*
X105230952Y-80108571D01*
X105278571Y-80156190D01*
X105326190Y-80251428D01*
X105326190Y-80632380D01*
X105278571Y-79632380D02*
X105278571Y-79299047D01*
X105802380Y-79156190D02*
X105802380Y-79632380D01*
X104802380Y-79632380D01*
X104802380Y-79156190D01*
X104850000Y-78203809D02*
X104802380Y-78299047D01*
X104802380Y-78441904D01*
X104850000Y-78584761D01*
X104945238Y-78680000D01*
X105040476Y-78727619D01*
X105230952Y-78775238D01*
X105373809Y-78775238D01*
X105564285Y-78727619D01*
X105659523Y-78680000D01*
X105754761Y-78584761D01*
X105802380Y-78441904D01*
X105802380Y-78346666D01*
X105754761Y-78203809D01*
X105707142Y-78156190D01*
X105373809Y-78156190D01*
X105373809Y-78346666D01*
X105802380Y-77727619D02*
X104802380Y-77727619D01*
X105802380Y-77251428D02*
X104802380Y-77251428D01*
X105802380Y-76680000D01*
X104802380Y-76680000D01*
X105802380Y-75680000D02*
X105802380Y-76251428D01*
X105802380Y-75965714D02*
X104802380Y-75965714D01*
X104945238Y-76060952D01*
X105040476Y-76156190D01*
X105088095Y-76251428D01*
%TO.C,CREGIN2*%
X105707142Y-98840952D02*
X105754761Y-98888571D01*
X105802380Y-99031428D01*
X105802380Y-99126666D01*
X105754761Y-99269523D01*
X105659523Y-99364761D01*
X105564285Y-99412380D01*
X105373809Y-99460000D01*
X105230952Y-99460000D01*
X105040476Y-99412380D01*
X104945238Y-99364761D01*
X104850000Y-99269523D01*
X104802380Y-99126666D01*
X104802380Y-99031428D01*
X104850000Y-98888571D01*
X104897619Y-98840952D01*
X105802380Y-97840952D02*
X105326190Y-98174285D01*
X105802380Y-98412380D02*
X104802380Y-98412380D01*
X104802380Y-98031428D01*
X104850000Y-97936190D01*
X104897619Y-97888571D01*
X104992857Y-97840952D01*
X105135714Y-97840952D01*
X105230952Y-97888571D01*
X105278571Y-97936190D01*
X105326190Y-98031428D01*
X105326190Y-98412380D01*
X105278571Y-97412380D02*
X105278571Y-97079047D01*
X105802380Y-96936190D02*
X105802380Y-97412380D01*
X104802380Y-97412380D01*
X104802380Y-96936190D01*
X104850000Y-95983809D02*
X104802380Y-96079047D01*
X104802380Y-96221904D01*
X104850000Y-96364761D01*
X104945238Y-96460000D01*
X105040476Y-96507619D01*
X105230952Y-96555238D01*
X105373809Y-96555238D01*
X105564285Y-96507619D01*
X105659523Y-96460000D01*
X105754761Y-96364761D01*
X105802380Y-96221904D01*
X105802380Y-96126666D01*
X105754761Y-95983809D01*
X105707142Y-95936190D01*
X105373809Y-95936190D01*
X105373809Y-96126666D01*
X105802380Y-95507619D02*
X104802380Y-95507619D01*
X105802380Y-95031428D02*
X104802380Y-95031428D01*
X105802380Y-94460000D01*
X104802380Y-94460000D01*
X104897619Y-94031428D02*
X104850000Y-93983809D01*
X104802380Y-93888571D01*
X104802380Y-93650476D01*
X104850000Y-93555238D01*
X104897619Y-93507619D01*
X104992857Y-93460000D01*
X105088095Y-93460000D01*
X105230952Y-93507619D01*
X105802380Y-94079047D01*
X105802380Y-93460000D01*
%TO.C,CREGOUT1*%
X114597142Y-81132619D02*
X114644761Y-81180238D01*
X114692380Y-81323095D01*
X114692380Y-81418333D01*
X114644761Y-81561190D01*
X114549523Y-81656428D01*
X114454285Y-81704047D01*
X114263809Y-81751666D01*
X114120952Y-81751666D01*
X113930476Y-81704047D01*
X113835238Y-81656428D01*
X113740000Y-81561190D01*
X113692380Y-81418333D01*
X113692380Y-81323095D01*
X113740000Y-81180238D01*
X113787619Y-81132619D01*
X114692380Y-80132619D02*
X114216190Y-80465952D01*
X114692380Y-80704047D02*
X113692380Y-80704047D01*
X113692380Y-80323095D01*
X113740000Y-80227857D01*
X113787619Y-80180238D01*
X113882857Y-80132619D01*
X114025714Y-80132619D01*
X114120952Y-80180238D01*
X114168571Y-80227857D01*
X114216190Y-80323095D01*
X114216190Y-80704047D01*
X114168571Y-79704047D02*
X114168571Y-79370714D01*
X114692380Y-79227857D02*
X114692380Y-79704047D01*
X113692380Y-79704047D01*
X113692380Y-79227857D01*
X113740000Y-78275476D02*
X113692380Y-78370714D01*
X113692380Y-78513571D01*
X113740000Y-78656428D01*
X113835238Y-78751666D01*
X113930476Y-78799285D01*
X114120952Y-78846904D01*
X114263809Y-78846904D01*
X114454285Y-78799285D01*
X114549523Y-78751666D01*
X114644761Y-78656428D01*
X114692380Y-78513571D01*
X114692380Y-78418333D01*
X114644761Y-78275476D01*
X114597142Y-78227857D01*
X114263809Y-78227857D01*
X114263809Y-78418333D01*
X113692380Y-77608809D02*
X113692380Y-77418333D01*
X113740000Y-77323095D01*
X113835238Y-77227857D01*
X114025714Y-77180238D01*
X114359047Y-77180238D01*
X114549523Y-77227857D01*
X114644761Y-77323095D01*
X114692380Y-77418333D01*
X114692380Y-77608809D01*
X114644761Y-77704047D01*
X114549523Y-77799285D01*
X114359047Y-77846904D01*
X114025714Y-77846904D01*
X113835238Y-77799285D01*
X113740000Y-77704047D01*
X113692380Y-77608809D01*
X113692380Y-76751666D02*
X114501904Y-76751666D01*
X114597142Y-76704047D01*
X114644761Y-76656428D01*
X114692380Y-76561190D01*
X114692380Y-76370714D01*
X114644761Y-76275476D01*
X114597142Y-76227857D01*
X114501904Y-76180238D01*
X113692380Y-76180238D01*
X113692380Y-75846904D02*
X113692380Y-75275476D01*
X114692380Y-75561190D02*
X113692380Y-75561190D01*
X114692380Y-74418333D02*
X114692380Y-74989761D01*
X114692380Y-74704047D02*
X113692380Y-74704047D01*
X113835238Y-74799285D01*
X113930476Y-74894523D01*
X113978095Y-74989761D01*
%TO.C,CREGOUT2*%
X114597142Y-98912619D02*
X114644761Y-98960238D01*
X114692380Y-99103095D01*
X114692380Y-99198333D01*
X114644761Y-99341190D01*
X114549523Y-99436428D01*
X114454285Y-99484047D01*
X114263809Y-99531666D01*
X114120952Y-99531666D01*
X113930476Y-99484047D01*
X113835238Y-99436428D01*
X113740000Y-99341190D01*
X113692380Y-99198333D01*
X113692380Y-99103095D01*
X113740000Y-98960238D01*
X113787619Y-98912619D01*
X114692380Y-97912619D02*
X114216190Y-98245952D01*
X114692380Y-98484047D02*
X113692380Y-98484047D01*
X113692380Y-98103095D01*
X113740000Y-98007857D01*
X113787619Y-97960238D01*
X113882857Y-97912619D01*
X114025714Y-97912619D01*
X114120952Y-97960238D01*
X114168571Y-98007857D01*
X114216190Y-98103095D01*
X114216190Y-98484047D01*
X114168571Y-97484047D02*
X114168571Y-97150714D01*
X114692380Y-97007857D02*
X114692380Y-97484047D01*
X113692380Y-97484047D01*
X113692380Y-97007857D01*
X113740000Y-96055476D02*
X113692380Y-96150714D01*
X113692380Y-96293571D01*
X113740000Y-96436428D01*
X113835238Y-96531666D01*
X113930476Y-96579285D01*
X114120952Y-96626904D01*
X114263809Y-96626904D01*
X114454285Y-96579285D01*
X114549523Y-96531666D01*
X114644761Y-96436428D01*
X114692380Y-96293571D01*
X114692380Y-96198333D01*
X114644761Y-96055476D01*
X114597142Y-96007857D01*
X114263809Y-96007857D01*
X114263809Y-96198333D01*
X113692380Y-95388809D02*
X113692380Y-95198333D01*
X113740000Y-95103095D01*
X113835238Y-95007857D01*
X114025714Y-94960238D01*
X114359047Y-94960238D01*
X114549523Y-95007857D01*
X114644761Y-95103095D01*
X114692380Y-95198333D01*
X114692380Y-95388809D01*
X114644761Y-95484047D01*
X114549523Y-95579285D01*
X114359047Y-95626904D01*
X114025714Y-95626904D01*
X113835238Y-95579285D01*
X113740000Y-95484047D01*
X113692380Y-95388809D01*
X113692380Y-94531666D02*
X114501904Y-94531666D01*
X114597142Y-94484047D01*
X114644761Y-94436428D01*
X114692380Y-94341190D01*
X114692380Y-94150714D01*
X114644761Y-94055476D01*
X114597142Y-94007857D01*
X114501904Y-93960238D01*
X113692380Y-93960238D01*
X113692380Y-93626904D02*
X113692380Y-93055476D01*
X114692380Y-93341190D02*
X113692380Y-93341190D01*
X113787619Y-92769761D02*
X113740000Y-92722142D01*
X113692380Y-92626904D01*
X113692380Y-92388809D01*
X113740000Y-92293571D01*
X113787619Y-92245952D01*
X113882857Y-92198333D01*
X113978095Y-92198333D01*
X114120952Y-92245952D01*
X114692380Y-92817380D01*
X114692380Y-92198333D01*
%TO.C,D1*%
X108481904Y-115457380D02*
X108481904Y-114457380D01*
X108720000Y-114457380D01*
X108862857Y-114505000D01*
X108958095Y-114600238D01*
X109005714Y-114695476D01*
X109053333Y-114885952D01*
X109053333Y-115028809D01*
X109005714Y-115219285D01*
X108958095Y-115314523D01*
X108862857Y-115409761D01*
X108720000Y-115457380D01*
X108481904Y-115457380D01*
X110005714Y-115457380D02*
X109434285Y-115457380D01*
X109720000Y-115457380D02*
X109720000Y-114457380D01*
X109624761Y-114600238D01*
X109529523Y-114695476D01*
X109434285Y-114743095D01*
X102608095Y-116027380D02*
X102608095Y-115027380D01*
X103179523Y-116027380D02*
X102750952Y-115455952D01*
X103179523Y-115027380D02*
X102608095Y-115598809D01*
%TO.C,D2*%
X128801904Y-115457380D02*
X128801904Y-114457380D01*
X129040000Y-114457380D01*
X129182857Y-114505000D01*
X129278095Y-114600238D01*
X129325714Y-114695476D01*
X129373333Y-114885952D01*
X129373333Y-115028809D01*
X129325714Y-115219285D01*
X129278095Y-115314523D01*
X129182857Y-115409761D01*
X129040000Y-115457380D01*
X128801904Y-115457380D01*
X129754285Y-114552619D02*
X129801904Y-114505000D01*
X129897142Y-114457380D01*
X130135238Y-114457380D01*
X130230476Y-114505000D01*
X130278095Y-114552619D01*
X130325714Y-114647857D01*
X130325714Y-114743095D01*
X130278095Y-114885952D01*
X129706666Y-115457380D01*
X130325714Y-115457380D01*
X122928095Y-116027380D02*
X122928095Y-115027380D01*
X123499523Y-116027380D02*
X123070952Y-115455952D01*
X123499523Y-115027380D02*
X122928095Y-115598809D01*
%TO.C,D3*%
X149121904Y-115457380D02*
X149121904Y-114457380D01*
X149360000Y-114457380D01*
X149502857Y-114505000D01*
X149598095Y-114600238D01*
X149645714Y-114695476D01*
X149693333Y-114885952D01*
X149693333Y-115028809D01*
X149645714Y-115219285D01*
X149598095Y-115314523D01*
X149502857Y-115409761D01*
X149360000Y-115457380D01*
X149121904Y-115457380D01*
X150026666Y-114457380D02*
X150645714Y-114457380D01*
X150312380Y-114838333D01*
X150455238Y-114838333D01*
X150550476Y-114885952D01*
X150598095Y-114933571D01*
X150645714Y-115028809D01*
X150645714Y-115266904D01*
X150598095Y-115362142D01*
X150550476Y-115409761D01*
X150455238Y-115457380D01*
X150169523Y-115457380D01*
X150074285Y-115409761D01*
X150026666Y-115362142D01*
X143248095Y-116027380D02*
X143248095Y-115027380D01*
X143819523Y-116027380D02*
X143390952Y-115455952D01*
X143819523Y-115027380D02*
X143248095Y-115598809D01*
%TO.C,D4*%
X169441904Y-115457380D02*
X169441904Y-114457380D01*
X169680000Y-114457380D01*
X169822857Y-114505000D01*
X169918095Y-114600238D01*
X169965714Y-114695476D01*
X170013333Y-114885952D01*
X170013333Y-115028809D01*
X169965714Y-115219285D01*
X169918095Y-115314523D01*
X169822857Y-115409761D01*
X169680000Y-115457380D01*
X169441904Y-115457380D01*
X170870476Y-114790714D02*
X170870476Y-115457380D01*
X170632380Y-114409761D02*
X170394285Y-115124047D01*
X171013333Y-115124047D01*
X163568095Y-116027380D02*
X163568095Y-115027380D01*
X164139523Y-116027380D02*
X163710952Y-115455952D01*
X164139523Y-115027380D02*
X163568095Y-115598809D01*
%TO.C,D5*%
X189761904Y-115457380D02*
X189761904Y-114457380D01*
X190000000Y-114457380D01*
X190142857Y-114505000D01*
X190238095Y-114600238D01*
X190285714Y-114695476D01*
X190333333Y-114885952D01*
X190333333Y-115028809D01*
X190285714Y-115219285D01*
X190238095Y-115314523D01*
X190142857Y-115409761D01*
X190000000Y-115457380D01*
X189761904Y-115457380D01*
X191238095Y-114457380D02*
X190761904Y-114457380D01*
X190714285Y-114933571D01*
X190761904Y-114885952D01*
X190857142Y-114838333D01*
X191095238Y-114838333D01*
X191190476Y-114885952D01*
X191238095Y-114933571D01*
X191285714Y-115028809D01*
X191285714Y-115266904D01*
X191238095Y-115362142D01*
X191190476Y-115409761D01*
X191095238Y-115457380D01*
X190857142Y-115457380D01*
X190761904Y-115409761D01*
X190714285Y-115362142D01*
X183888095Y-116027380D02*
X183888095Y-115027380D01*
X184459523Y-116027380D02*
X184030952Y-115455952D01*
X184459523Y-115027380D02*
X183888095Y-115598809D01*
%TO.C,D6*%
X209446904Y-115457380D02*
X209446904Y-114457380D01*
X209685000Y-114457380D01*
X209827857Y-114505000D01*
X209923095Y-114600238D01*
X209970714Y-114695476D01*
X210018333Y-114885952D01*
X210018333Y-115028809D01*
X209970714Y-115219285D01*
X209923095Y-115314523D01*
X209827857Y-115409761D01*
X209685000Y-115457380D01*
X209446904Y-115457380D01*
X210875476Y-114457380D02*
X210685000Y-114457380D01*
X210589761Y-114505000D01*
X210542142Y-114552619D01*
X210446904Y-114695476D01*
X210399285Y-114885952D01*
X210399285Y-115266904D01*
X210446904Y-115362142D01*
X210494523Y-115409761D01*
X210589761Y-115457380D01*
X210780238Y-115457380D01*
X210875476Y-115409761D01*
X210923095Y-115362142D01*
X210970714Y-115266904D01*
X210970714Y-115028809D01*
X210923095Y-114933571D01*
X210875476Y-114885952D01*
X210780238Y-114838333D01*
X210589761Y-114838333D01*
X210494523Y-114885952D01*
X210446904Y-114933571D01*
X210399285Y-115028809D01*
X203573095Y-116027380D02*
X203573095Y-115027380D01*
X204144523Y-116027380D02*
X203715952Y-115455952D01*
X204144523Y-115027380D02*
X203573095Y-115598809D01*
%TO.C,D7*%
X234202380Y-116308095D02*
X233202380Y-116308095D01*
X233202380Y-116070000D01*
X233250000Y-115927142D01*
X233345238Y-115831904D01*
X233440476Y-115784285D01*
X233630952Y-115736666D01*
X233773809Y-115736666D01*
X233964285Y-115784285D01*
X234059523Y-115831904D01*
X234154761Y-115927142D01*
X234202380Y-116070000D01*
X234202380Y-116308095D01*
X233202380Y-115403333D02*
X233202380Y-114736666D01*
X234202380Y-115165238D01*
X234772380Y-122181904D02*
X233772380Y-122181904D01*
X234772380Y-121610476D02*
X234200952Y-122039047D01*
X233772380Y-121610476D02*
X234343809Y-122181904D01*
%TO.C,D8*%
X234202380Y-69488095D02*
X233202380Y-69488095D01*
X233202380Y-69250000D01*
X233250000Y-69107142D01*
X233345238Y-69011904D01*
X233440476Y-68964285D01*
X233630952Y-68916666D01*
X233773809Y-68916666D01*
X233964285Y-68964285D01*
X234059523Y-69011904D01*
X234154761Y-69107142D01*
X234202380Y-69250000D01*
X234202380Y-69488095D01*
X233630952Y-68345238D02*
X233583333Y-68440476D01*
X233535714Y-68488095D01*
X233440476Y-68535714D01*
X233392857Y-68535714D01*
X233297619Y-68488095D01*
X233250000Y-68440476D01*
X233202380Y-68345238D01*
X233202380Y-68154761D01*
X233250000Y-68059523D01*
X233297619Y-68011904D01*
X233392857Y-67964285D01*
X233440476Y-67964285D01*
X233535714Y-68011904D01*
X233583333Y-68059523D01*
X233630952Y-68154761D01*
X233630952Y-68345238D01*
X233678571Y-68440476D01*
X233726190Y-68488095D01*
X233821428Y-68535714D01*
X234011904Y-68535714D01*
X234107142Y-68488095D01*
X234154761Y-68440476D01*
X234202380Y-68345238D01*
X234202380Y-68154761D01*
X234154761Y-68059523D01*
X234107142Y-68011904D01*
X234011904Y-67964285D01*
X233821428Y-67964285D01*
X233726190Y-68011904D01*
X233678571Y-68059523D01*
X233630952Y-68154761D01*
X234772380Y-75361904D02*
X233772380Y-75361904D01*
X234772380Y-74790476D02*
X234200952Y-75219047D01*
X233772380Y-74790476D02*
X234343809Y-75361904D01*
%TO.C,Dled1*%
X172389047Y-52492380D02*
X172389047Y-51492380D01*
X172627142Y-51492380D01*
X172770000Y-51540000D01*
X172865238Y-51635238D01*
X172912857Y-51730476D01*
X172960476Y-51920952D01*
X172960476Y-52063809D01*
X172912857Y-52254285D01*
X172865238Y-52349523D01*
X172770000Y-52444761D01*
X172627142Y-52492380D01*
X172389047Y-52492380D01*
X173531904Y-52492380D02*
X173436666Y-52444761D01*
X173389047Y-52349523D01*
X173389047Y-51492380D01*
X174293809Y-52444761D02*
X174198571Y-52492380D01*
X174008095Y-52492380D01*
X173912857Y-52444761D01*
X173865238Y-52349523D01*
X173865238Y-51968571D01*
X173912857Y-51873333D01*
X174008095Y-51825714D01*
X174198571Y-51825714D01*
X174293809Y-51873333D01*
X174341428Y-51968571D01*
X174341428Y-52063809D01*
X173865238Y-52159047D01*
X175198571Y-52492380D02*
X175198571Y-51492380D01*
X175198571Y-52444761D02*
X175103333Y-52492380D01*
X174912857Y-52492380D01*
X174817619Y-52444761D01*
X174770000Y-52397142D01*
X174722380Y-52301904D01*
X174722380Y-52016190D01*
X174770000Y-51920952D01*
X174817619Y-51873333D01*
X174912857Y-51825714D01*
X175103333Y-51825714D01*
X175198571Y-51873333D01*
X176198571Y-52492380D02*
X175627142Y-52492380D01*
X175912857Y-52492380D02*
X175912857Y-51492380D01*
X175817619Y-51635238D01*
X175722380Y-51730476D01*
X175627142Y-51778095D01*
%TO.C,Dled2*%
X163389047Y-52492380D02*
X163389047Y-51492380D01*
X163627142Y-51492380D01*
X163770000Y-51540000D01*
X163865238Y-51635238D01*
X163912857Y-51730476D01*
X163960476Y-51920952D01*
X163960476Y-52063809D01*
X163912857Y-52254285D01*
X163865238Y-52349523D01*
X163770000Y-52444761D01*
X163627142Y-52492380D01*
X163389047Y-52492380D01*
X164531904Y-52492380D02*
X164436666Y-52444761D01*
X164389047Y-52349523D01*
X164389047Y-51492380D01*
X165293809Y-52444761D02*
X165198571Y-52492380D01*
X165008095Y-52492380D01*
X164912857Y-52444761D01*
X164865238Y-52349523D01*
X164865238Y-51968571D01*
X164912857Y-51873333D01*
X165008095Y-51825714D01*
X165198571Y-51825714D01*
X165293809Y-51873333D01*
X165341428Y-51968571D01*
X165341428Y-52063809D01*
X164865238Y-52159047D01*
X166198571Y-52492380D02*
X166198571Y-51492380D01*
X166198571Y-52444761D02*
X166103333Y-52492380D01*
X165912857Y-52492380D01*
X165817619Y-52444761D01*
X165770000Y-52397142D01*
X165722380Y-52301904D01*
X165722380Y-52016190D01*
X165770000Y-51920952D01*
X165817619Y-51873333D01*
X165912857Y-51825714D01*
X166103333Y-51825714D01*
X166198571Y-51873333D01*
X166627142Y-51587619D02*
X166674761Y-51540000D01*
X166770000Y-51492380D01*
X167008095Y-51492380D01*
X167103333Y-51540000D01*
X167150952Y-51587619D01*
X167198571Y-51682857D01*
X167198571Y-51778095D01*
X167150952Y-51920952D01*
X166579523Y-52492380D01*
X167198571Y-52492380D01*
%TO.C,Dled3*%
X154389047Y-52492380D02*
X154389047Y-51492380D01*
X154627142Y-51492380D01*
X154770000Y-51540000D01*
X154865238Y-51635238D01*
X154912857Y-51730476D01*
X154960476Y-51920952D01*
X154960476Y-52063809D01*
X154912857Y-52254285D01*
X154865238Y-52349523D01*
X154770000Y-52444761D01*
X154627142Y-52492380D01*
X154389047Y-52492380D01*
X155531904Y-52492380D02*
X155436666Y-52444761D01*
X155389047Y-52349523D01*
X155389047Y-51492380D01*
X156293809Y-52444761D02*
X156198571Y-52492380D01*
X156008095Y-52492380D01*
X155912857Y-52444761D01*
X155865238Y-52349523D01*
X155865238Y-51968571D01*
X155912857Y-51873333D01*
X156008095Y-51825714D01*
X156198571Y-51825714D01*
X156293809Y-51873333D01*
X156341428Y-51968571D01*
X156341428Y-52063809D01*
X155865238Y-52159047D01*
X157198571Y-52492380D02*
X157198571Y-51492380D01*
X157198571Y-52444761D02*
X157103333Y-52492380D01*
X156912857Y-52492380D01*
X156817619Y-52444761D01*
X156770000Y-52397142D01*
X156722380Y-52301904D01*
X156722380Y-52016190D01*
X156770000Y-51920952D01*
X156817619Y-51873333D01*
X156912857Y-51825714D01*
X157103333Y-51825714D01*
X157198571Y-51873333D01*
X157579523Y-51492380D02*
X158198571Y-51492380D01*
X157865238Y-51873333D01*
X158008095Y-51873333D01*
X158103333Y-51920952D01*
X158150952Y-51968571D01*
X158198571Y-52063809D01*
X158198571Y-52301904D01*
X158150952Y-52397142D01*
X158103333Y-52444761D01*
X158008095Y-52492380D01*
X157722380Y-52492380D01*
X157627142Y-52444761D01*
X157579523Y-52397142D01*
%TO.C,Dreg1*%
X104116428Y-70232380D02*
X104116428Y-69232380D01*
X104354523Y-69232380D01*
X104497380Y-69280000D01*
X104592619Y-69375238D01*
X104640238Y-69470476D01*
X104687857Y-69660952D01*
X104687857Y-69803809D01*
X104640238Y-69994285D01*
X104592619Y-70089523D01*
X104497380Y-70184761D01*
X104354523Y-70232380D01*
X104116428Y-70232380D01*
X105116428Y-70232380D02*
X105116428Y-69565714D01*
X105116428Y-69756190D02*
X105164047Y-69660952D01*
X105211666Y-69613333D01*
X105306904Y-69565714D01*
X105402142Y-69565714D01*
X106116428Y-70184761D02*
X106021190Y-70232380D01*
X105830714Y-70232380D01*
X105735476Y-70184761D01*
X105687857Y-70089523D01*
X105687857Y-69708571D01*
X105735476Y-69613333D01*
X105830714Y-69565714D01*
X106021190Y-69565714D01*
X106116428Y-69613333D01*
X106164047Y-69708571D01*
X106164047Y-69803809D01*
X105687857Y-69899047D01*
X107021190Y-69565714D02*
X107021190Y-70375238D01*
X106973571Y-70470476D01*
X106925952Y-70518095D01*
X106830714Y-70565714D01*
X106687857Y-70565714D01*
X106592619Y-70518095D01*
X107021190Y-70184761D02*
X106925952Y-70232380D01*
X106735476Y-70232380D01*
X106640238Y-70184761D01*
X106592619Y-70137142D01*
X106545000Y-70041904D01*
X106545000Y-69756190D01*
X106592619Y-69660952D01*
X106640238Y-69613333D01*
X106735476Y-69565714D01*
X106925952Y-69565714D01*
X107021190Y-69613333D01*
X108021190Y-70232380D02*
X107449761Y-70232380D01*
X107735476Y-70232380D02*
X107735476Y-69232380D01*
X107640238Y-69375238D01*
X107545000Y-69470476D01*
X107449761Y-69518095D01*
X112133095Y-69662380D02*
X112133095Y-68662380D01*
X112704523Y-69662380D02*
X112275952Y-69090952D01*
X112704523Y-68662380D02*
X112133095Y-69233809D01*
%TO.C,DREG1*%
X116727380Y-81565476D02*
X115727380Y-81565476D01*
X115727380Y-81327380D01*
X115775000Y-81184523D01*
X115870238Y-81089285D01*
X115965476Y-81041666D01*
X116155952Y-80994047D01*
X116298809Y-80994047D01*
X116489285Y-81041666D01*
X116584523Y-81089285D01*
X116679761Y-81184523D01*
X116727380Y-81327380D01*
X116727380Y-81565476D01*
X116727380Y-79994047D02*
X116251190Y-80327380D01*
X116727380Y-80565476D02*
X115727380Y-80565476D01*
X115727380Y-80184523D01*
X115775000Y-80089285D01*
X115822619Y-80041666D01*
X115917857Y-79994047D01*
X116060714Y-79994047D01*
X116155952Y-80041666D01*
X116203571Y-80089285D01*
X116251190Y-80184523D01*
X116251190Y-80565476D01*
X116203571Y-79565476D02*
X116203571Y-79232142D01*
X116727380Y-79089285D02*
X116727380Y-79565476D01*
X115727380Y-79565476D01*
X115727380Y-79089285D01*
X115775000Y-78136904D02*
X115727380Y-78232142D01*
X115727380Y-78375000D01*
X115775000Y-78517857D01*
X115870238Y-78613095D01*
X115965476Y-78660714D01*
X116155952Y-78708333D01*
X116298809Y-78708333D01*
X116489285Y-78660714D01*
X116584523Y-78613095D01*
X116679761Y-78517857D01*
X116727380Y-78375000D01*
X116727380Y-78279761D01*
X116679761Y-78136904D01*
X116632142Y-78089285D01*
X116298809Y-78089285D01*
X116298809Y-78279761D01*
X116727380Y-77136904D02*
X116727380Y-77708333D01*
X116727380Y-77422619D02*
X115727380Y-77422619D01*
X115870238Y-77517857D01*
X115965476Y-77613095D01*
X116013095Y-77708333D01*
X117097380Y-84716904D02*
X116097380Y-84716904D01*
X117097380Y-84145476D02*
X116525952Y-84574047D01*
X116097380Y-84145476D02*
X116668809Y-84716904D01*
%TO.C,Dreg2*%
X123166428Y-65292380D02*
X123166428Y-64292380D01*
X123404523Y-64292380D01*
X123547380Y-64340000D01*
X123642619Y-64435238D01*
X123690238Y-64530476D01*
X123737857Y-64720952D01*
X123737857Y-64863809D01*
X123690238Y-65054285D01*
X123642619Y-65149523D01*
X123547380Y-65244761D01*
X123404523Y-65292380D01*
X123166428Y-65292380D01*
X124166428Y-65292380D02*
X124166428Y-64625714D01*
X124166428Y-64816190D02*
X124214047Y-64720952D01*
X124261666Y-64673333D01*
X124356904Y-64625714D01*
X124452142Y-64625714D01*
X125166428Y-65244761D02*
X125071190Y-65292380D01*
X124880714Y-65292380D01*
X124785476Y-65244761D01*
X124737857Y-65149523D01*
X124737857Y-64768571D01*
X124785476Y-64673333D01*
X124880714Y-64625714D01*
X125071190Y-64625714D01*
X125166428Y-64673333D01*
X125214047Y-64768571D01*
X125214047Y-64863809D01*
X124737857Y-64959047D01*
X126071190Y-64625714D02*
X126071190Y-65435238D01*
X126023571Y-65530476D01*
X125975952Y-65578095D01*
X125880714Y-65625714D01*
X125737857Y-65625714D01*
X125642619Y-65578095D01*
X126071190Y-65244761D02*
X125975952Y-65292380D01*
X125785476Y-65292380D01*
X125690238Y-65244761D01*
X125642619Y-65197142D01*
X125595000Y-65101904D01*
X125595000Y-64816190D01*
X125642619Y-64720952D01*
X125690238Y-64673333D01*
X125785476Y-64625714D01*
X125975952Y-64625714D01*
X126071190Y-64673333D01*
X126499761Y-64387619D02*
X126547380Y-64340000D01*
X126642619Y-64292380D01*
X126880714Y-64292380D01*
X126975952Y-64340000D01*
X127023571Y-64387619D01*
X127071190Y-64482857D01*
X127071190Y-64578095D01*
X127023571Y-64720952D01*
X126452142Y-65292380D01*
X127071190Y-65292380D01*
X118483095Y-65862380D02*
X118483095Y-64862380D01*
X119054523Y-65862380D02*
X118625952Y-65290952D01*
X119054523Y-64862380D02*
X118483095Y-65433809D01*
%TO.C,DREG2*%
X116727380Y-97440476D02*
X115727380Y-97440476D01*
X115727380Y-97202380D01*
X115775000Y-97059523D01*
X115870238Y-96964285D01*
X115965476Y-96916666D01*
X116155952Y-96869047D01*
X116298809Y-96869047D01*
X116489285Y-96916666D01*
X116584523Y-96964285D01*
X116679761Y-97059523D01*
X116727380Y-97202380D01*
X116727380Y-97440476D01*
X116727380Y-95869047D02*
X116251190Y-96202380D01*
X116727380Y-96440476D02*
X115727380Y-96440476D01*
X115727380Y-96059523D01*
X115775000Y-95964285D01*
X115822619Y-95916666D01*
X115917857Y-95869047D01*
X116060714Y-95869047D01*
X116155952Y-95916666D01*
X116203571Y-95964285D01*
X116251190Y-96059523D01*
X116251190Y-96440476D01*
X116203571Y-95440476D02*
X116203571Y-95107142D01*
X116727380Y-94964285D02*
X116727380Y-95440476D01*
X115727380Y-95440476D01*
X115727380Y-94964285D01*
X115775000Y-94011904D02*
X115727380Y-94107142D01*
X115727380Y-94250000D01*
X115775000Y-94392857D01*
X115870238Y-94488095D01*
X115965476Y-94535714D01*
X116155952Y-94583333D01*
X116298809Y-94583333D01*
X116489285Y-94535714D01*
X116584523Y-94488095D01*
X116679761Y-94392857D01*
X116727380Y-94250000D01*
X116727380Y-94154761D01*
X116679761Y-94011904D01*
X116632142Y-93964285D01*
X116298809Y-93964285D01*
X116298809Y-94154761D01*
X115822619Y-93583333D02*
X115775000Y-93535714D01*
X115727380Y-93440476D01*
X115727380Y-93202380D01*
X115775000Y-93107142D01*
X115822619Y-93059523D01*
X115917857Y-93011904D01*
X116013095Y-93011904D01*
X116155952Y-93059523D01*
X116727380Y-93630952D01*
X116727380Y-93011904D01*
X117097380Y-100591904D02*
X116097380Y-100591904D01*
X117097380Y-100020476D02*
X116525952Y-100449047D01*
X116097380Y-100020476D02*
X116668809Y-100591904D01*
%TO.C,Fusible1*%
X124738571Y-89746428D02*
X124738571Y-90079761D01*
X125262380Y-90079761D02*
X124262380Y-90079761D01*
X124262380Y-89603571D01*
X124595714Y-88794047D02*
X125262380Y-88794047D01*
X124595714Y-89222619D02*
X125119523Y-89222619D01*
X125214761Y-89175000D01*
X125262380Y-89079761D01*
X125262380Y-88936904D01*
X125214761Y-88841666D01*
X125167142Y-88794047D01*
X125214761Y-88365476D02*
X125262380Y-88270238D01*
X125262380Y-88079761D01*
X125214761Y-87984523D01*
X125119523Y-87936904D01*
X125071904Y-87936904D01*
X124976666Y-87984523D01*
X124929047Y-88079761D01*
X124929047Y-88222619D01*
X124881428Y-88317857D01*
X124786190Y-88365476D01*
X124738571Y-88365476D01*
X124643333Y-88317857D01*
X124595714Y-88222619D01*
X124595714Y-88079761D01*
X124643333Y-87984523D01*
X125262380Y-87508333D02*
X124595714Y-87508333D01*
X124262380Y-87508333D02*
X124310000Y-87555952D01*
X124357619Y-87508333D01*
X124310000Y-87460714D01*
X124262380Y-87508333D01*
X124357619Y-87508333D01*
X125262380Y-87032142D02*
X124262380Y-87032142D01*
X124643333Y-87032142D02*
X124595714Y-86936904D01*
X124595714Y-86746428D01*
X124643333Y-86651190D01*
X124690952Y-86603571D01*
X124786190Y-86555952D01*
X125071904Y-86555952D01*
X125167142Y-86603571D01*
X125214761Y-86651190D01*
X125262380Y-86746428D01*
X125262380Y-86936904D01*
X125214761Y-87032142D01*
X125262380Y-85984523D02*
X125214761Y-86079761D01*
X125119523Y-86127380D01*
X124262380Y-86127380D01*
X125214761Y-85222619D02*
X125262380Y-85317857D01*
X125262380Y-85508333D01*
X125214761Y-85603571D01*
X125119523Y-85651190D01*
X124738571Y-85651190D01*
X124643333Y-85603571D01*
X124595714Y-85508333D01*
X124595714Y-85317857D01*
X124643333Y-85222619D01*
X124738571Y-85175000D01*
X124833809Y-85175000D01*
X124929047Y-85651190D01*
X125262380Y-84222619D02*
X125262380Y-84794047D01*
X125262380Y-84508333D02*
X124262380Y-84508333D01*
X124405238Y-84603571D01*
X124500476Y-84698809D01*
X124548095Y-84794047D01*
%TO.C,J1*%
X108886666Y-122732380D02*
X108886666Y-123446666D01*
X108839047Y-123589523D01*
X108743809Y-123684761D01*
X108600952Y-123732380D01*
X108505714Y-123732380D01*
X109886666Y-123732380D02*
X109315238Y-123732380D01*
X109600952Y-123732380D02*
X109600952Y-122732380D01*
X109505714Y-122875238D01*
X109410476Y-122970476D01*
X109315238Y-123018095D01*
%TO.C,J2*%
X129206666Y-122732380D02*
X129206666Y-123446666D01*
X129159047Y-123589523D01*
X129063809Y-123684761D01*
X128920952Y-123732380D01*
X128825714Y-123732380D01*
X129635238Y-122827619D02*
X129682857Y-122780000D01*
X129778095Y-122732380D01*
X130016190Y-122732380D01*
X130111428Y-122780000D01*
X130159047Y-122827619D01*
X130206666Y-122922857D01*
X130206666Y-123018095D01*
X130159047Y-123160952D01*
X129587619Y-123732380D01*
X130206666Y-123732380D01*
%TO.C,J3*%
X149526666Y-122732380D02*
X149526666Y-123446666D01*
X149479047Y-123589523D01*
X149383809Y-123684761D01*
X149240952Y-123732380D01*
X149145714Y-123732380D01*
X149907619Y-122732380D02*
X150526666Y-122732380D01*
X150193333Y-123113333D01*
X150336190Y-123113333D01*
X150431428Y-123160952D01*
X150479047Y-123208571D01*
X150526666Y-123303809D01*
X150526666Y-123541904D01*
X150479047Y-123637142D01*
X150431428Y-123684761D01*
X150336190Y-123732380D01*
X150050476Y-123732380D01*
X149955238Y-123684761D01*
X149907619Y-123637142D01*
%TO.C,J4*%
X169766666Y-122732380D02*
X169766666Y-123446666D01*
X169719047Y-123589523D01*
X169623809Y-123684761D01*
X169480952Y-123732380D01*
X169385714Y-123732380D01*
X170671428Y-123065714D02*
X170671428Y-123732380D01*
X170433333Y-122684761D02*
X170195238Y-123399047D01*
X170814285Y-123399047D01*
%TO.C,J5*%
X190086666Y-122732380D02*
X190086666Y-123446666D01*
X190039047Y-123589523D01*
X189943809Y-123684761D01*
X189800952Y-123732380D01*
X189705714Y-123732380D01*
X191039047Y-122732380D02*
X190562857Y-122732380D01*
X190515238Y-123208571D01*
X190562857Y-123160952D01*
X190658095Y-123113333D01*
X190896190Y-123113333D01*
X190991428Y-123160952D01*
X191039047Y-123208571D01*
X191086666Y-123303809D01*
X191086666Y-123541904D01*
X191039047Y-123637142D01*
X190991428Y-123684761D01*
X190896190Y-123732380D01*
X190658095Y-123732380D01*
X190562857Y-123684761D01*
X190515238Y-123637142D01*
%TO.C,J6*%
X209851666Y-122732380D02*
X209851666Y-123446666D01*
X209804047Y-123589523D01*
X209708809Y-123684761D01*
X209565952Y-123732380D01*
X209470714Y-123732380D01*
X210756428Y-122732380D02*
X210565952Y-122732380D01*
X210470714Y-122780000D01*
X210423095Y-122827619D01*
X210327857Y-122970476D01*
X210280238Y-123160952D01*
X210280238Y-123541904D01*
X210327857Y-123637142D01*
X210375476Y-123684761D01*
X210470714Y-123732380D01*
X210661190Y-123732380D01*
X210756428Y-123684761D01*
X210804047Y-123637142D01*
X210851666Y-123541904D01*
X210851666Y-123303809D01*
X210804047Y-123208571D01*
X210756428Y-123160952D01*
X210661190Y-123113333D01*
X210470714Y-123113333D01*
X210375476Y-123160952D01*
X210327857Y-123208571D01*
X210280238Y-123303809D01*
%TO.C,J7*%
X242112380Y-115903333D02*
X242826666Y-115903333D01*
X242969523Y-115950952D01*
X243064761Y-116046190D01*
X243112380Y-116189047D01*
X243112380Y-116284285D01*
X242112380Y-115522380D02*
X242112380Y-114855714D01*
X243112380Y-115284285D01*
%TO.C,J8*%
X242112380Y-69083333D02*
X242826666Y-69083333D01*
X242969523Y-69130952D01*
X243064761Y-69226190D01*
X243112380Y-69369047D01*
X243112380Y-69464285D01*
X242540952Y-68464285D02*
X242493333Y-68559523D01*
X242445714Y-68607142D01*
X242350476Y-68654761D01*
X242302857Y-68654761D01*
X242207619Y-68607142D01*
X242160000Y-68559523D01*
X242112380Y-68464285D01*
X242112380Y-68273809D01*
X242160000Y-68178571D01*
X242207619Y-68130952D01*
X242302857Y-68083333D01*
X242350476Y-68083333D01*
X242445714Y-68130952D01*
X242493333Y-68178571D01*
X242540952Y-68273809D01*
X242540952Y-68464285D01*
X242588571Y-68559523D01*
X242636190Y-68607142D01*
X242731428Y-68654761D01*
X242921904Y-68654761D01*
X243017142Y-68607142D01*
X243064761Y-68559523D01*
X243112380Y-68464285D01*
X243112380Y-68273809D01*
X243064761Y-68178571D01*
X243017142Y-68130952D01*
X242921904Y-68083333D01*
X242731428Y-68083333D01*
X242636190Y-68130952D01*
X242588571Y-68178571D01*
X242540952Y-68273809D01*
%TO.C,JabajoMDOT1*%
X147142857Y-100012380D02*
X147142857Y-100726666D01*
X147095238Y-100869523D01*
X147000000Y-100964761D01*
X146857142Y-101012380D01*
X146761904Y-101012380D01*
X148047619Y-101012380D02*
X148047619Y-100488571D01*
X148000000Y-100393333D01*
X147904761Y-100345714D01*
X147714285Y-100345714D01*
X147619047Y-100393333D01*
X148047619Y-100964761D02*
X147952380Y-101012380D01*
X147714285Y-101012380D01*
X147619047Y-100964761D01*
X147571428Y-100869523D01*
X147571428Y-100774285D01*
X147619047Y-100679047D01*
X147714285Y-100631428D01*
X147952380Y-100631428D01*
X148047619Y-100583809D01*
X148523809Y-101012380D02*
X148523809Y-100012380D01*
X148523809Y-100393333D02*
X148619047Y-100345714D01*
X148809523Y-100345714D01*
X148904761Y-100393333D01*
X148952380Y-100440952D01*
X149000000Y-100536190D01*
X149000000Y-100821904D01*
X148952380Y-100917142D01*
X148904761Y-100964761D01*
X148809523Y-101012380D01*
X148619047Y-101012380D01*
X148523809Y-100964761D01*
X149857142Y-101012380D02*
X149857142Y-100488571D01*
X149809523Y-100393333D01*
X149714285Y-100345714D01*
X149523809Y-100345714D01*
X149428571Y-100393333D01*
X149857142Y-100964761D02*
X149761904Y-101012380D01*
X149523809Y-101012380D01*
X149428571Y-100964761D01*
X149380952Y-100869523D01*
X149380952Y-100774285D01*
X149428571Y-100679047D01*
X149523809Y-100631428D01*
X149761904Y-100631428D01*
X149857142Y-100583809D01*
X150333333Y-100345714D02*
X150333333Y-101202857D01*
X150285714Y-101298095D01*
X150190476Y-101345714D01*
X150142857Y-101345714D01*
X150333333Y-100012380D02*
X150285714Y-100060000D01*
X150333333Y-100107619D01*
X150380952Y-100060000D01*
X150333333Y-100012380D01*
X150333333Y-100107619D01*
X150952380Y-101012380D02*
X150857142Y-100964761D01*
X150809523Y-100917142D01*
X150761904Y-100821904D01*
X150761904Y-100536190D01*
X150809523Y-100440952D01*
X150857142Y-100393333D01*
X150952380Y-100345714D01*
X151095238Y-100345714D01*
X151190476Y-100393333D01*
X151238095Y-100440952D01*
X151285714Y-100536190D01*
X151285714Y-100821904D01*
X151238095Y-100917142D01*
X151190476Y-100964761D01*
X151095238Y-101012380D01*
X150952380Y-101012380D01*
X151714285Y-101012380D02*
X151714285Y-100012380D01*
X152047619Y-100726666D01*
X152380952Y-100012380D01*
X152380952Y-101012380D01*
X152857142Y-101012380D02*
X152857142Y-100012380D01*
X153095238Y-100012380D01*
X153238095Y-100060000D01*
X153333333Y-100155238D01*
X153380952Y-100250476D01*
X153428571Y-100440952D01*
X153428571Y-100583809D01*
X153380952Y-100774285D01*
X153333333Y-100869523D01*
X153238095Y-100964761D01*
X153095238Y-101012380D01*
X152857142Y-101012380D01*
X154047619Y-100012380D02*
X154238095Y-100012380D01*
X154333333Y-100060000D01*
X154428571Y-100155238D01*
X154476190Y-100345714D01*
X154476190Y-100679047D01*
X154428571Y-100869523D01*
X154333333Y-100964761D01*
X154238095Y-101012380D01*
X154047619Y-101012380D01*
X153952380Y-100964761D01*
X153857142Y-100869523D01*
X153809523Y-100679047D01*
X153809523Y-100345714D01*
X153857142Y-100155238D01*
X153952380Y-100060000D01*
X154047619Y-100012380D01*
X154761904Y-100012380D02*
X155333333Y-100012380D01*
X155047619Y-101012380D02*
X155047619Y-100012380D01*
X156190476Y-101012380D02*
X155619047Y-101012380D01*
X155904761Y-101012380D02*
X155904761Y-100012380D01*
X155809523Y-100155238D01*
X155714285Y-100250476D01*
X155619047Y-100298095D01*
%TO.C,JBat1*%
X122428571Y-61592380D02*
X122428571Y-62306666D01*
X122380952Y-62449523D01*
X122285714Y-62544761D01*
X122142857Y-62592380D01*
X122047619Y-62592380D01*
X123238095Y-62068571D02*
X123380952Y-62116190D01*
X123428571Y-62163809D01*
X123476190Y-62259047D01*
X123476190Y-62401904D01*
X123428571Y-62497142D01*
X123380952Y-62544761D01*
X123285714Y-62592380D01*
X122904761Y-62592380D01*
X122904761Y-61592380D01*
X123238095Y-61592380D01*
X123333333Y-61640000D01*
X123380952Y-61687619D01*
X123428571Y-61782857D01*
X123428571Y-61878095D01*
X123380952Y-61973333D01*
X123333333Y-62020952D01*
X123238095Y-62068571D01*
X122904761Y-62068571D01*
X124333333Y-62592380D02*
X124333333Y-62068571D01*
X124285714Y-61973333D01*
X124190476Y-61925714D01*
X124000000Y-61925714D01*
X123904761Y-61973333D01*
X124333333Y-62544761D02*
X124238095Y-62592380D01*
X124000000Y-62592380D01*
X123904761Y-62544761D01*
X123857142Y-62449523D01*
X123857142Y-62354285D01*
X123904761Y-62259047D01*
X124000000Y-62211428D01*
X124238095Y-62211428D01*
X124333333Y-62163809D01*
X124666666Y-61925714D02*
X125047619Y-61925714D01*
X124809523Y-61592380D02*
X124809523Y-62449523D01*
X124857142Y-62544761D01*
X124952380Y-62592380D01*
X125047619Y-62592380D01*
X125904761Y-62592380D02*
X125333333Y-62592380D01*
X125619047Y-62592380D02*
X125619047Y-61592380D01*
X125523809Y-61735238D01*
X125428571Y-61830476D01*
X125333333Y-61878095D01*
%TO.C,JderMDOT1*%
X180952380Y-106000000D02*
X181666666Y-106000000D01*
X181809523Y-106047619D01*
X181904761Y-106142857D01*
X181952380Y-106285714D01*
X181952380Y-106380952D01*
X181952380Y-105095238D02*
X180952380Y-105095238D01*
X181904761Y-105095238D02*
X181952380Y-105190476D01*
X181952380Y-105380952D01*
X181904761Y-105476190D01*
X181857142Y-105523809D01*
X181761904Y-105571428D01*
X181476190Y-105571428D01*
X181380952Y-105523809D01*
X181333333Y-105476190D01*
X181285714Y-105380952D01*
X181285714Y-105190476D01*
X181333333Y-105095238D01*
X181904761Y-104238095D02*
X181952380Y-104333333D01*
X181952380Y-104523809D01*
X181904761Y-104619047D01*
X181809523Y-104666666D01*
X181428571Y-104666666D01*
X181333333Y-104619047D01*
X181285714Y-104523809D01*
X181285714Y-104333333D01*
X181333333Y-104238095D01*
X181428571Y-104190476D01*
X181523809Y-104190476D01*
X181619047Y-104666666D01*
X181952380Y-103761904D02*
X181285714Y-103761904D01*
X181476190Y-103761904D02*
X181380952Y-103714285D01*
X181333333Y-103666666D01*
X181285714Y-103571428D01*
X181285714Y-103476190D01*
X181952380Y-103142857D02*
X180952380Y-103142857D01*
X181666666Y-102809523D01*
X180952380Y-102476190D01*
X181952380Y-102476190D01*
X181952380Y-102000000D02*
X180952380Y-102000000D01*
X180952380Y-101761904D01*
X181000000Y-101619047D01*
X181095238Y-101523809D01*
X181190476Y-101476190D01*
X181380952Y-101428571D01*
X181523809Y-101428571D01*
X181714285Y-101476190D01*
X181809523Y-101523809D01*
X181904761Y-101619047D01*
X181952380Y-101761904D01*
X181952380Y-102000000D01*
X180952380Y-100809523D02*
X180952380Y-100619047D01*
X181000000Y-100523809D01*
X181095238Y-100428571D01*
X181285714Y-100380952D01*
X181619047Y-100380952D01*
X181809523Y-100428571D01*
X181904761Y-100523809D01*
X181952380Y-100619047D01*
X181952380Y-100809523D01*
X181904761Y-100904761D01*
X181809523Y-101000000D01*
X181619047Y-101047619D01*
X181285714Y-101047619D01*
X181095238Y-101000000D01*
X181000000Y-100904761D01*
X180952380Y-100809523D01*
X180952380Y-100095238D02*
X180952380Y-99523809D01*
X181952380Y-99809523D02*
X180952380Y-99809523D01*
X181952380Y-98666666D02*
X181952380Y-99238095D01*
X181952380Y-98952380D02*
X180952380Y-98952380D01*
X181095238Y-99047619D01*
X181190476Y-99142857D01*
X181238095Y-99238095D01*
%TO.C,JizqMDOT1*%
X180952380Y-83904761D02*
X181666666Y-83904761D01*
X181809523Y-83952380D01*
X181904761Y-84047619D01*
X181952380Y-84190476D01*
X181952380Y-84285714D01*
X181952380Y-83428571D02*
X181285714Y-83428571D01*
X180952380Y-83428571D02*
X181000000Y-83476190D01*
X181047619Y-83428571D01*
X181000000Y-83380952D01*
X180952380Y-83428571D01*
X181047619Y-83428571D01*
X181285714Y-83047619D02*
X181285714Y-82523809D01*
X181952380Y-83047619D01*
X181952380Y-82523809D01*
X181285714Y-81714285D02*
X182285714Y-81714285D01*
X181904761Y-81714285D02*
X181952380Y-81809523D01*
X181952380Y-82000000D01*
X181904761Y-82095238D01*
X181857142Y-82142857D01*
X181761904Y-82190476D01*
X181476190Y-82190476D01*
X181380952Y-82142857D01*
X181333333Y-82095238D01*
X181285714Y-82000000D01*
X181285714Y-81809523D01*
X181333333Y-81714285D01*
X181952380Y-81238095D02*
X180952380Y-81238095D01*
X181666666Y-80904761D01*
X180952380Y-80571428D01*
X181952380Y-80571428D01*
X181952380Y-80095238D02*
X180952380Y-80095238D01*
X180952380Y-79857142D01*
X181000000Y-79714285D01*
X181095238Y-79619047D01*
X181190476Y-79571428D01*
X181380952Y-79523809D01*
X181523809Y-79523809D01*
X181714285Y-79571428D01*
X181809523Y-79619047D01*
X181904761Y-79714285D01*
X181952380Y-79857142D01*
X181952380Y-80095238D01*
X180952380Y-78904761D02*
X180952380Y-78714285D01*
X181000000Y-78619047D01*
X181095238Y-78523809D01*
X181285714Y-78476190D01*
X181619047Y-78476190D01*
X181809523Y-78523809D01*
X181904761Y-78619047D01*
X181952380Y-78714285D01*
X181952380Y-78904761D01*
X181904761Y-79000000D01*
X181809523Y-79095238D01*
X181619047Y-79142857D01*
X181285714Y-79142857D01*
X181095238Y-79095238D01*
X181000000Y-79000000D01*
X180952380Y-78904761D01*
X180952380Y-78190476D02*
X180952380Y-77619047D01*
X181952380Y-77904761D02*
X180952380Y-77904761D01*
X181952380Y-76761904D02*
X181952380Y-77333333D01*
X181952380Y-77047619D02*
X180952380Y-77047619D01*
X181095238Y-77142857D01*
X181190476Y-77238095D01*
X181238095Y-77333333D01*
%TO.C,JPanel1*%
X104211428Y-61592380D02*
X104211428Y-62306666D01*
X104163809Y-62449523D01*
X104068571Y-62544761D01*
X103925714Y-62592380D01*
X103830476Y-62592380D01*
X104687619Y-62592380D02*
X104687619Y-61592380D01*
X105068571Y-61592380D01*
X105163809Y-61640000D01*
X105211428Y-61687619D01*
X105259047Y-61782857D01*
X105259047Y-61925714D01*
X105211428Y-62020952D01*
X105163809Y-62068571D01*
X105068571Y-62116190D01*
X104687619Y-62116190D01*
X106116190Y-62592380D02*
X106116190Y-62068571D01*
X106068571Y-61973333D01*
X105973333Y-61925714D01*
X105782857Y-61925714D01*
X105687619Y-61973333D01*
X106116190Y-62544761D02*
X106020952Y-62592380D01*
X105782857Y-62592380D01*
X105687619Y-62544761D01*
X105640000Y-62449523D01*
X105640000Y-62354285D01*
X105687619Y-62259047D01*
X105782857Y-62211428D01*
X106020952Y-62211428D01*
X106116190Y-62163809D01*
X106592380Y-61925714D02*
X106592380Y-62592380D01*
X106592380Y-62020952D02*
X106640000Y-61973333D01*
X106735238Y-61925714D01*
X106878095Y-61925714D01*
X106973333Y-61973333D01*
X107020952Y-62068571D01*
X107020952Y-62592380D01*
X107878095Y-62544761D02*
X107782857Y-62592380D01*
X107592380Y-62592380D01*
X107497142Y-62544761D01*
X107449523Y-62449523D01*
X107449523Y-62068571D01*
X107497142Y-61973333D01*
X107592380Y-61925714D01*
X107782857Y-61925714D01*
X107878095Y-61973333D01*
X107925714Y-62068571D01*
X107925714Y-62163809D01*
X107449523Y-62259047D01*
X108497142Y-62592380D02*
X108401904Y-62544761D01*
X108354285Y-62449523D01*
X108354285Y-61592380D01*
X109401904Y-62592380D02*
X108830476Y-62592380D01*
X109116190Y-62592380D02*
X109116190Y-61592380D01*
X109020952Y-61735238D01*
X108925714Y-61830476D01*
X108830476Y-61878095D01*
%TO.C,JPConf&Supply1*%
X136880952Y-69872380D02*
X136880952Y-70586666D01*
X136833333Y-70729523D01*
X136738095Y-70824761D01*
X136595238Y-70872380D01*
X136500000Y-70872380D01*
X137357142Y-70872380D02*
X137357142Y-69872380D01*
X137738095Y-69872380D01*
X137833333Y-69920000D01*
X137880952Y-69967619D01*
X137928571Y-70062857D01*
X137928571Y-70205714D01*
X137880952Y-70300952D01*
X137833333Y-70348571D01*
X137738095Y-70396190D01*
X137357142Y-70396190D01*
X138928571Y-70777142D02*
X138880952Y-70824761D01*
X138738095Y-70872380D01*
X138642857Y-70872380D01*
X138500000Y-70824761D01*
X138404761Y-70729523D01*
X138357142Y-70634285D01*
X138309523Y-70443809D01*
X138309523Y-70300952D01*
X138357142Y-70110476D01*
X138404761Y-70015238D01*
X138500000Y-69920000D01*
X138642857Y-69872380D01*
X138738095Y-69872380D01*
X138880952Y-69920000D01*
X138928571Y-69967619D01*
X139500000Y-70872380D02*
X139404761Y-70824761D01*
X139357142Y-70777142D01*
X139309523Y-70681904D01*
X139309523Y-70396190D01*
X139357142Y-70300952D01*
X139404761Y-70253333D01*
X139500000Y-70205714D01*
X139642857Y-70205714D01*
X139738095Y-70253333D01*
X139785714Y-70300952D01*
X139833333Y-70396190D01*
X139833333Y-70681904D01*
X139785714Y-70777142D01*
X139738095Y-70824761D01*
X139642857Y-70872380D01*
X139500000Y-70872380D01*
X140261904Y-70205714D02*
X140261904Y-70872380D01*
X140261904Y-70300952D02*
X140309523Y-70253333D01*
X140404761Y-70205714D01*
X140547619Y-70205714D01*
X140642857Y-70253333D01*
X140690476Y-70348571D01*
X140690476Y-70872380D01*
X141023809Y-70205714D02*
X141404761Y-70205714D01*
X141166666Y-70872380D02*
X141166666Y-70015238D01*
X141214285Y-69920000D01*
X141309523Y-69872380D01*
X141404761Y-69872380D01*
X142547619Y-70872380D02*
X142500000Y-70872380D01*
X142404761Y-70824761D01*
X142261904Y-70681904D01*
X142023809Y-70396190D01*
X141928571Y-70253333D01*
X141880952Y-70110476D01*
X141880952Y-70015238D01*
X141928571Y-69920000D01*
X142023809Y-69872380D01*
X142071428Y-69872380D01*
X142166666Y-69920000D01*
X142214285Y-70015238D01*
X142214285Y-70062857D01*
X142166666Y-70158095D01*
X142119047Y-70205714D01*
X141833333Y-70396190D01*
X141785714Y-70443809D01*
X141738095Y-70539047D01*
X141738095Y-70681904D01*
X141785714Y-70777142D01*
X141833333Y-70824761D01*
X141928571Y-70872380D01*
X142071428Y-70872380D01*
X142166666Y-70824761D01*
X142214285Y-70777142D01*
X142357142Y-70586666D01*
X142404761Y-70443809D01*
X142404761Y-70348571D01*
X142928571Y-70824761D02*
X143071428Y-70872380D01*
X143309523Y-70872380D01*
X143404761Y-70824761D01*
X143452380Y-70777142D01*
X143500000Y-70681904D01*
X143500000Y-70586666D01*
X143452380Y-70491428D01*
X143404761Y-70443809D01*
X143309523Y-70396190D01*
X143119047Y-70348571D01*
X143023809Y-70300952D01*
X142976190Y-70253333D01*
X142928571Y-70158095D01*
X142928571Y-70062857D01*
X142976190Y-69967619D01*
X143023809Y-69920000D01*
X143119047Y-69872380D01*
X143357142Y-69872380D01*
X143500000Y-69920000D01*
X144357142Y-70205714D02*
X144357142Y-70872380D01*
X143928571Y-70205714D02*
X143928571Y-70729523D01*
X143976190Y-70824761D01*
X144071428Y-70872380D01*
X144214285Y-70872380D01*
X144309523Y-70824761D01*
X144357142Y-70777142D01*
X144833333Y-70205714D02*
X144833333Y-71205714D01*
X144833333Y-70253333D02*
X144928571Y-70205714D01*
X145119047Y-70205714D01*
X145214285Y-70253333D01*
X145261904Y-70300952D01*
X145309523Y-70396190D01*
X145309523Y-70681904D01*
X145261904Y-70777142D01*
X145214285Y-70824761D01*
X145119047Y-70872380D01*
X144928571Y-70872380D01*
X144833333Y-70824761D01*
X145738095Y-70205714D02*
X145738095Y-71205714D01*
X145738095Y-70253333D02*
X145833333Y-70205714D01*
X146023809Y-70205714D01*
X146119047Y-70253333D01*
X146166666Y-70300952D01*
X146214285Y-70396190D01*
X146214285Y-70681904D01*
X146166666Y-70777142D01*
X146119047Y-70824761D01*
X146023809Y-70872380D01*
X145833333Y-70872380D01*
X145738095Y-70824761D01*
X146785714Y-70872380D02*
X146690476Y-70824761D01*
X146642857Y-70729523D01*
X146642857Y-69872380D01*
X147071428Y-70205714D02*
X147309523Y-70872380D01*
X147547619Y-70205714D02*
X147309523Y-70872380D01*
X147214285Y-71110476D01*
X147166666Y-71158095D01*
X147071428Y-71205714D01*
X148452380Y-70872380D02*
X147880952Y-70872380D01*
X148166666Y-70872380D02*
X148166666Y-69872380D01*
X148071428Y-70015238D01*
X147976190Y-70110476D01*
X147880952Y-70158095D01*
%TO.C,JPSWPUERTA1*%
X134292380Y-112166666D02*
X135006666Y-112166666D01*
X135149523Y-112214285D01*
X135244761Y-112309523D01*
X135292380Y-112452380D01*
X135292380Y-112547619D01*
X135292380Y-111690476D02*
X134292380Y-111690476D01*
X134292380Y-111309523D01*
X134340000Y-111214285D01*
X134387619Y-111166666D01*
X134482857Y-111119047D01*
X134625714Y-111119047D01*
X134720952Y-111166666D01*
X134768571Y-111214285D01*
X134816190Y-111309523D01*
X134816190Y-111690476D01*
X135244761Y-110738095D02*
X135292380Y-110595238D01*
X135292380Y-110357142D01*
X135244761Y-110261904D01*
X135197142Y-110214285D01*
X135101904Y-110166666D01*
X135006666Y-110166666D01*
X134911428Y-110214285D01*
X134863809Y-110261904D01*
X134816190Y-110357142D01*
X134768571Y-110547619D01*
X134720952Y-110642857D01*
X134673333Y-110690476D01*
X134578095Y-110738095D01*
X134482857Y-110738095D01*
X134387619Y-110690476D01*
X134340000Y-110642857D01*
X134292380Y-110547619D01*
X134292380Y-110309523D01*
X134340000Y-110166666D01*
X134292380Y-109833333D02*
X135292380Y-109595238D01*
X134578095Y-109404761D01*
X135292380Y-109214285D01*
X134292380Y-108976190D01*
X135292380Y-108595238D02*
X134292380Y-108595238D01*
X134292380Y-108214285D01*
X134340000Y-108119047D01*
X134387619Y-108071428D01*
X134482857Y-108023809D01*
X134625714Y-108023809D01*
X134720952Y-108071428D01*
X134768571Y-108119047D01*
X134816190Y-108214285D01*
X134816190Y-108595238D01*
X134292380Y-107595238D02*
X135101904Y-107595238D01*
X135197142Y-107547619D01*
X135244761Y-107500000D01*
X135292380Y-107404761D01*
X135292380Y-107214285D01*
X135244761Y-107119047D01*
X135197142Y-107071428D01*
X135101904Y-107023809D01*
X134292380Y-107023809D01*
X134768571Y-106547619D02*
X134768571Y-106214285D01*
X135292380Y-106071428D02*
X135292380Y-106547619D01*
X134292380Y-106547619D01*
X134292380Y-106071428D01*
X135292380Y-105071428D02*
X134816190Y-105404761D01*
X135292380Y-105642857D02*
X134292380Y-105642857D01*
X134292380Y-105261904D01*
X134340000Y-105166666D01*
X134387619Y-105119047D01*
X134482857Y-105071428D01*
X134625714Y-105071428D01*
X134720952Y-105119047D01*
X134768571Y-105166666D01*
X134816190Y-105261904D01*
X134816190Y-105642857D01*
X134292380Y-104785714D02*
X134292380Y-104214285D01*
X135292380Y-104500000D02*
X134292380Y-104500000D01*
X135006666Y-103928571D02*
X135006666Y-103452380D01*
X135292380Y-104023809D02*
X134292380Y-103690476D01*
X135292380Y-103357142D01*
X135292380Y-102500000D02*
X135292380Y-103071428D01*
X135292380Y-102785714D02*
X134292380Y-102785714D01*
X134435238Y-102880952D01*
X134530476Y-102976190D01*
X134578095Y-103071428D01*
%TO.C,JUSB1*%
X140666666Y-99972380D02*
X140666666Y-100686666D01*
X140619047Y-100829523D01*
X140523809Y-100924761D01*
X140380952Y-100972380D01*
X140285714Y-100972380D01*
X141142857Y-99972380D02*
X141142857Y-100781904D01*
X141190476Y-100877142D01*
X141238095Y-100924761D01*
X141333333Y-100972380D01*
X141523809Y-100972380D01*
X141619047Y-100924761D01*
X141666666Y-100877142D01*
X141714285Y-100781904D01*
X141714285Y-99972380D01*
X142142857Y-100924761D02*
X142285714Y-100972380D01*
X142523809Y-100972380D01*
X142619047Y-100924761D01*
X142666666Y-100877142D01*
X142714285Y-100781904D01*
X142714285Y-100686666D01*
X142666666Y-100591428D01*
X142619047Y-100543809D01*
X142523809Y-100496190D01*
X142333333Y-100448571D01*
X142238095Y-100400952D01*
X142190476Y-100353333D01*
X142142857Y-100258095D01*
X142142857Y-100162857D01*
X142190476Y-100067619D01*
X142238095Y-100020000D01*
X142333333Y-99972380D01*
X142571428Y-99972380D01*
X142714285Y-100020000D01*
X143476190Y-100448571D02*
X143619047Y-100496190D01*
X143666666Y-100543809D01*
X143714285Y-100639047D01*
X143714285Y-100781904D01*
X143666666Y-100877142D01*
X143619047Y-100924761D01*
X143523809Y-100972380D01*
X143142857Y-100972380D01*
X143142857Y-99972380D01*
X143476190Y-99972380D01*
X143571428Y-100020000D01*
X143619047Y-100067619D01*
X143666666Y-100162857D01*
X143666666Y-100258095D01*
X143619047Y-100353333D01*
X143571428Y-100400952D01*
X143476190Y-100448571D01*
X143142857Y-100448571D01*
X144666666Y-100972380D02*
X144095238Y-100972380D01*
X144380952Y-100972380D02*
X144380952Y-99972380D01*
X144285714Y-100115238D01*
X144190476Y-100210476D01*
X144095238Y-100258095D01*
%TO.C,Q1*%
X171234761Y-68357619D02*
X171139523Y-68310000D01*
X171044285Y-68214761D01*
X170901428Y-68071904D01*
X170806190Y-68024285D01*
X170710952Y-68024285D01*
X170758571Y-68262380D02*
X170663333Y-68214761D01*
X170568095Y-68119523D01*
X170520476Y-67929047D01*
X170520476Y-67595714D01*
X170568095Y-67405238D01*
X170663333Y-67310000D01*
X170758571Y-67262380D01*
X170949047Y-67262380D01*
X171044285Y-67310000D01*
X171139523Y-67405238D01*
X171187142Y-67595714D01*
X171187142Y-67929047D01*
X171139523Y-68119523D01*
X171044285Y-68214761D01*
X170949047Y-68262380D01*
X170758571Y-68262380D01*
X172139523Y-68262380D02*
X171568095Y-68262380D01*
X171853809Y-68262380D02*
X171853809Y-67262380D01*
X171758571Y-67405238D01*
X171663333Y-67500476D01*
X171568095Y-67548095D01*
%TO.C,Q2*%
X161709761Y-68357619D02*
X161614523Y-68310000D01*
X161519285Y-68214761D01*
X161376428Y-68071904D01*
X161281190Y-68024285D01*
X161185952Y-68024285D01*
X161233571Y-68262380D02*
X161138333Y-68214761D01*
X161043095Y-68119523D01*
X160995476Y-67929047D01*
X160995476Y-67595714D01*
X161043095Y-67405238D01*
X161138333Y-67310000D01*
X161233571Y-67262380D01*
X161424047Y-67262380D01*
X161519285Y-67310000D01*
X161614523Y-67405238D01*
X161662142Y-67595714D01*
X161662142Y-67929047D01*
X161614523Y-68119523D01*
X161519285Y-68214761D01*
X161424047Y-68262380D01*
X161233571Y-68262380D01*
X162043095Y-67357619D02*
X162090714Y-67310000D01*
X162185952Y-67262380D01*
X162424047Y-67262380D01*
X162519285Y-67310000D01*
X162566904Y-67357619D01*
X162614523Y-67452857D01*
X162614523Y-67548095D01*
X162566904Y-67690952D01*
X161995476Y-68262380D01*
X162614523Y-68262380D01*
%TO.C,Q3*%
X152184761Y-68357619D02*
X152089523Y-68310000D01*
X151994285Y-68214761D01*
X151851428Y-68071904D01*
X151756190Y-68024285D01*
X151660952Y-68024285D01*
X151708571Y-68262380D02*
X151613333Y-68214761D01*
X151518095Y-68119523D01*
X151470476Y-67929047D01*
X151470476Y-67595714D01*
X151518095Y-67405238D01*
X151613333Y-67310000D01*
X151708571Y-67262380D01*
X151899047Y-67262380D01*
X151994285Y-67310000D01*
X152089523Y-67405238D01*
X152137142Y-67595714D01*
X152137142Y-67929047D01*
X152089523Y-68119523D01*
X151994285Y-68214761D01*
X151899047Y-68262380D01*
X151708571Y-68262380D01*
X152470476Y-67262380D02*
X153089523Y-67262380D01*
X152756190Y-67643333D01*
X152899047Y-67643333D01*
X152994285Y-67690952D01*
X153041904Y-67738571D01*
X153089523Y-67833809D01*
X153089523Y-68071904D01*
X153041904Y-68167142D01*
X152994285Y-68214761D01*
X152899047Y-68262380D01*
X152613333Y-68262380D01*
X152518095Y-68214761D01*
X152470476Y-68167142D01*
%TO.C,R10*%
X201667142Y-97032380D02*
X201333809Y-96556190D01*
X201095714Y-97032380D02*
X201095714Y-96032380D01*
X201476666Y-96032380D01*
X201571904Y-96080000D01*
X201619523Y-96127619D01*
X201667142Y-96222857D01*
X201667142Y-96365714D01*
X201619523Y-96460952D01*
X201571904Y-96508571D01*
X201476666Y-96556190D01*
X201095714Y-96556190D01*
X202619523Y-97032380D02*
X202048095Y-97032380D01*
X202333809Y-97032380D02*
X202333809Y-96032380D01*
X202238571Y-96175238D01*
X202143333Y-96270476D01*
X202048095Y-96318095D01*
X203238571Y-96032380D02*
X203333809Y-96032380D01*
X203429047Y-96080000D01*
X203476666Y-96127619D01*
X203524285Y-96222857D01*
X203571904Y-96413333D01*
X203571904Y-96651428D01*
X203524285Y-96841904D01*
X203476666Y-96937142D01*
X203429047Y-96984761D01*
X203333809Y-97032380D01*
X203238571Y-97032380D01*
X203143333Y-96984761D01*
X203095714Y-96937142D01*
X203048095Y-96841904D01*
X203000476Y-96651428D01*
X203000476Y-96413333D01*
X203048095Y-96222857D01*
X203095714Y-96127619D01*
X203143333Y-96080000D01*
X203238571Y-96032380D01*
%TO.C,R11*%
X212667142Y-97032380D02*
X212333809Y-96556190D01*
X212095714Y-97032380D02*
X212095714Y-96032380D01*
X212476666Y-96032380D01*
X212571904Y-96080000D01*
X212619523Y-96127619D01*
X212667142Y-96222857D01*
X212667142Y-96365714D01*
X212619523Y-96460952D01*
X212571904Y-96508571D01*
X212476666Y-96556190D01*
X212095714Y-96556190D01*
X213619523Y-97032380D02*
X213048095Y-97032380D01*
X213333809Y-97032380D02*
X213333809Y-96032380D01*
X213238571Y-96175238D01*
X213143333Y-96270476D01*
X213048095Y-96318095D01*
X214571904Y-97032380D02*
X214000476Y-97032380D01*
X214286190Y-97032380D02*
X214286190Y-96032380D01*
X214190952Y-96175238D01*
X214095714Y-96270476D01*
X214000476Y-96318095D01*
%TO.C,R20*%
X201667142Y-92532380D02*
X201333809Y-92056190D01*
X201095714Y-92532380D02*
X201095714Y-91532380D01*
X201476666Y-91532380D01*
X201571904Y-91580000D01*
X201619523Y-91627619D01*
X201667142Y-91722857D01*
X201667142Y-91865714D01*
X201619523Y-91960952D01*
X201571904Y-92008571D01*
X201476666Y-92056190D01*
X201095714Y-92056190D01*
X202048095Y-91627619D02*
X202095714Y-91580000D01*
X202190952Y-91532380D01*
X202429047Y-91532380D01*
X202524285Y-91580000D01*
X202571904Y-91627619D01*
X202619523Y-91722857D01*
X202619523Y-91818095D01*
X202571904Y-91960952D01*
X202000476Y-92532380D01*
X202619523Y-92532380D01*
X203238571Y-91532380D02*
X203333809Y-91532380D01*
X203429047Y-91580000D01*
X203476666Y-91627619D01*
X203524285Y-91722857D01*
X203571904Y-91913333D01*
X203571904Y-92151428D01*
X203524285Y-92341904D01*
X203476666Y-92437142D01*
X203429047Y-92484761D01*
X203333809Y-92532380D01*
X203238571Y-92532380D01*
X203143333Y-92484761D01*
X203095714Y-92437142D01*
X203048095Y-92341904D01*
X203000476Y-92151428D01*
X203000476Y-91913333D01*
X203048095Y-91722857D01*
X203095714Y-91627619D01*
X203143333Y-91580000D01*
X203238571Y-91532380D01*
%TO.C,R21*%
X212667142Y-92532380D02*
X212333809Y-92056190D01*
X212095714Y-92532380D02*
X212095714Y-91532380D01*
X212476666Y-91532380D01*
X212571904Y-91580000D01*
X212619523Y-91627619D01*
X212667142Y-91722857D01*
X212667142Y-91865714D01*
X212619523Y-91960952D01*
X212571904Y-92008571D01*
X212476666Y-92056190D01*
X212095714Y-92056190D01*
X213048095Y-91627619D02*
X213095714Y-91580000D01*
X213190952Y-91532380D01*
X213429047Y-91532380D01*
X213524285Y-91580000D01*
X213571904Y-91627619D01*
X213619523Y-91722857D01*
X213619523Y-91818095D01*
X213571904Y-91960952D01*
X213000476Y-92532380D01*
X213619523Y-92532380D01*
X214571904Y-92532380D02*
X214000476Y-92532380D01*
X214286190Y-92532380D02*
X214286190Y-91532380D01*
X214190952Y-91675238D01*
X214095714Y-91770476D01*
X214000476Y-91818095D01*
%TO.C,R30*%
X201667142Y-79782380D02*
X201333809Y-79306190D01*
X201095714Y-79782380D02*
X201095714Y-78782380D01*
X201476666Y-78782380D01*
X201571904Y-78830000D01*
X201619523Y-78877619D01*
X201667142Y-78972857D01*
X201667142Y-79115714D01*
X201619523Y-79210952D01*
X201571904Y-79258571D01*
X201476666Y-79306190D01*
X201095714Y-79306190D01*
X202000476Y-78782380D02*
X202619523Y-78782380D01*
X202286190Y-79163333D01*
X202429047Y-79163333D01*
X202524285Y-79210952D01*
X202571904Y-79258571D01*
X202619523Y-79353809D01*
X202619523Y-79591904D01*
X202571904Y-79687142D01*
X202524285Y-79734761D01*
X202429047Y-79782380D01*
X202143333Y-79782380D01*
X202048095Y-79734761D01*
X202000476Y-79687142D01*
X203238571Y-78782380D02*
X203333809Y-78782380D01*
X203429047Y-78830000D01*
X203476666Y-78877619D01*
X203524285Y-78972857D01*
X203571904Y-79163333D01*
X203571904Y-79401428D01*
X203524285Y-79591904D01*
X203476666Y-79687142D01*
X203429047Y-79734761D01*
X203333809Y-79782380D01*
X203238571Y-79782380D01*
X203143333Y-79734761D01*
X203095714Y-79687142D01*
X203048095Y-79591904D01*
X203000476Y-79401428D01*
X203000476Y-79163333D01*
X203048095Y-78972857D01*
X203095714Y-78877619D01*
X203143333Y-78830000D01*
X203238571Y-78782380D01*
%TO.C,R31*%
X212667142Y-79782380D02*
X212333809Y-79306190D01*
X212095714Y-79782380D02*
X212095714Y-78782380D01*
X212476666Y-78782380D01*
X212571904Y-78830000D01*
X212619523Y-78877619D01*
X212667142Y-78972857D01*
X212667142Y-79115714D01*
X212619523Y-79210952D01*
X212571904Y-79258571D01*
X212476666Y-79306190D01*
X212095714Y-79306190D01*
X213000476Y-78782380D02*
X213619523Y-78782380D01*
X213286190Y-79163333D01*
X213429047Y-79163333D01*
X213524285Y-79210952D01*
X213571904Y-79258571D01*
X213619523Y-79353809D01*
X213619523Y-79591904D01*
X213571904Y-79687142D01*
X213524285Y-79734761D01*
X213429047Y-79782380D01*
X213143333Y-79782380D01*
X213048095Y-79734761D01*
X213000476Y-79687142D01*
X214571904Y-79782380D02*
X214000476Y-79782380D01*
X214286190Y-79782380D02*
X214286190Y-78782380D01*
X214190952Y-78925238D01*
X214095714Y-79020476D01*
X214000476Y-79068095D01*
%TO.C,R40*%
X201667142Y-84282380D02*
X201333809Y-83806190D01*
X201095714Y-84282380D02*
X201095714Y-83282380D01*
X201476666Y-83282380D01*
X201571904Y-83330000D01*
X201619523Y-83377619D01*
X201667142Y-83472857D01*
X201667142Y-83615714D01*
X201619523Y-83710952D01*
X201571904Y-83758571D01*
X201476666Y-83806190D01*
X201095714Y-83806190D01*
X202524285Y-83615714D02*
X202524285Y-84282380D01*
X202286190Y-83234761D02*
X202048095Y-83949047D01*
X202667142Y-83949047D01*
X203238571Y-83282380D02*
X203333809Y-83282380D01*
X203429047Y-83330000D01*
X203476666Y-83377619D01*
X203524285Y-83472857D01*
X203571904Y-83663333D01*
X203571904Y-83901428D01*
X203524285Y-84091904D01*
X203476666Y-84187142D01*
X203429047Y-84234761D01*
X203333809Y-84282380D01*
X203238571Y-84282380D01*
X203143333Y-84234761D01*
X203095714Y-84187142D01*
X203048095Y-84091904D01*
X203000476Y-83901428D01*
X203000476Y-83663333D01*
X203048095Y-83472857D01*
X203095714Y-83377619D01*
X203143333Y-83330000D01*
X203238571Y-83282380D01*
%TO.C,R41*%
X212667142Y-84282380D02*
X212333809Y-83806190D01*
X212095714Y-84282380D02*
X212095714Y-83282380D01*
X212476666Y-83282380D01*
X212571904Y-83330000D01*
X212619523Y-83377619D01*
X212667142Y-83472857D01*
X212667142Y-83615714D01*
X212619523Y-83710952D01*
X212571904Y-83758571D01*
X212476666Y-83806190D01*
X212095714Y-83806190D01*
X213524285Y-83615714D02*
X213524285Y-84282380D01*
X213286190Y-83234761D02*
X213048095Y-83949047D01*
X213667142Y-83949047D01*
X214571904Y-84282380D02*
X214000476Y-84282380D01*
X214286190Y-84282380D02*
X214286190Y-83282380D01*
X214190952Y-83425238D01*
X214095714Y-83520476D01*
X214000476Y-83568095D01*
%TO.C,R50*%
X224667142Y-79782380D02*
X224333809Y-79306190D01*
X224095714Y-79782380D02*
X224095714Y-78782380D01*
X224476666Y-78782380D01*
X224571904Y-78830000D01*
X224619523Y-78877619D01*
X224667142Y-78972857D01*
X224667142Y-79115714D01*
X224619523Y-79210952D01*
X224571904Y-79258571D01*
X224476666Y-79306190D01*
X224095714Y-79306190D01*
X225571904Y-78782380D02*
X225095714Y-78782380D01*
X225048095Y-79258571D01*
X225095714Y-79210952D01*
X225190952Y-79163333D01*
X225429047Y-79163333D01*
X225524285Y-79210952D01*
X225571904Y-79258571D01*
X225619523Y-79353809D01*
X225619523Y-79591904D01*
X225571904Y-79687142D01*
X225524285Y-79734761D01*
X225429047Y-79782380D01*
X225190952Y-79782380D01*
X225095714Y-79734761D01*
X225048095Y-79687142D01*
X226238571Y-78782380D02*
X226333809Y-78782380D01*
X226429047Y-78830000D01*
X226476666Y-78877619D01*
X226524285Y-78972857D01*
X226571904Y-79163333D01*
X226571904Y-79401428D01*
X226524285Y-79591904D01*
X226476666Y-79687142D01*
X226429047Y-79734761D01*
X226333809Y-79782380D01*
X226238571Y-79782380D01*
X226143333Y-79734761D01*
X226095714Y-79687142D01*
X226048095Y-79591904D01*
X226000476Y-79401428D01*
X226000476Y-79163333D01*
X226048095Y-78972857D01*
X226095714Y-78877619D01*
X226143333Y-78830000D01*
X226238571Y-78782380D01*
%TO.C,R51*%
X235667142Y-79782380D02*
X235333809Y-79306190D01*
X235095714Y-79782380D02*
X235095714Y-78782380D01*
X235476666Y-78782380D01*
X235571904Y-78830000D01*
X235619523Y-78877619D01*
X235667142Y-78972857D01*
X235667142Y-79115714D01*
X235619523Y-79210952D01*
X235571904Y-79258571D01*
X235476666Y-79306190D01*
X235095714Y-79306190D01*
X236571904Y-78782380D02*
X236095714Y-78782380D01*
X236048095Y-79258571D01*
X236095714Y-79210952D01*
X236190952Y-79163333D01*
X236429047Y-79163333D01*
X236524285Y-79210952D01*
X236571904Y-79258571D01*
X236619523Y-79353809D01*
X236619523Y-79591904D01*
X236571904Y-79687142D01*
X236524285Y-79734761D01*
X236429047Y-79782380D01*
X236190952Y-79782380D01*
X236095714Y-79734761D01*
X236048095Y-79687142D01*
X237571904Y-79782380D02*
X237000476Y-79782380D01*
X237286190Y-79782380D02*
X237286190Y-78782380D01*
X237190952Y-78925238D01*
X237095714Y-79020476D01*
X237000476Y-79068095D01*
%TO.C,R60*%
X224667142Y-84282380D02*
X224333809Y-83806190D01*
X224095714Y-84282380D02*
X224095714Y-83282380D01*
X224476666Y-83282380D01*
X224571904Y-83330000D01*
X224619523Y-83377619D01*
X224667142Y-83472857D01*
X224667142Y-83615714D01*
X224619523Y-83710952D01*
X224571904Y-83758571D01*
X224476666Y-83806190D01*
X224095714Y-83806190D01*
X225524285Y-83282380D02*
X225333809Y-83282380D01*
X225238571Y-83330000D01*
X225190952Y-83377619D01*
X225095714Y-83520476D01*
X225048095Y-83710952D01*
X225048095Y-84091904D01*
X225095714Y-84187142D01*
X225143333Y-84234761D01*
X225238571Y-84282380D01*
X225429047Y-84282380D01*
X225524285Y-84234761D01*
X225571904Y-84187142D01*
X225619523Y-84091904D01*
X225619523Y-83853809D01*
X225571904Y-83758571D01*
X225524285Y-83710952D01*
X225429047Y-83663333D01*
X225238571Y-83663333D01*
X225143333Y-83710952D01*
X225095714Y-83758571D01*
X225048095Y-83853809D01*
X226238571Y-83282380D02*
X226333809Y-83282380D01*
X226429047Y-83330000D01*
X226476666Y-83377619D01*
X226524285Y-83472857D01*
X226571904Y-83663333D01*
X226571904Y-83901428D01*
X226524285Y-84091904D01*
X226476666Y-84187142D01*
X226429047Y-84234761D01*
X226333809Y-84282380D01*
X226238571Y-84282380D01*
X226143333Y-84234761D01*
X226095714Y-84187142D01*
X226048095Y-84091904D01*
X226000476Y-83901428D01*
X226000476Y-83663333D01*
X226048095Y-83472857D01*
X226095714Y-83377619D01*
X226143333Y-83330000D01*
X226238571Y-83282380D01*
%TO.C,R61*%
X235667142Y-84282380D02*
X235333809Y-83806190D01*
X235095714Y-84282380D02*
X235095714Y-83282380D01*
X235476666Y-83282380D01*
X235571904Y-83330000D01*
X235619523Y-83377619D01*
X235667142Y-83472857D01*
X235667142Y-83615714D01*
X235619523Y-83710952D01*
X235571904Y-83758571D01*
X235476666Y-83806190D01*
X235095714Y-83806190D01*
X236524285Y-83282380D02*
X236333809Y-83282380D01*
X236238571Y-83330000D01*
X236190952Y-83377619D01*
X236095714Y-83520476D01*
X236048095Y-83710952D01*
X236048095Y-84091904D01*
X236095714Y-84187142D01*
X236143333Y-84234761D01*
X236238571Y-84282380D01*
X236429047Y-84282380D01*
X236524285Y-84234761D01*
X236571904Y-84187142D01*
X236619523Y-84091904D01*
X236619523Y-83853809D01*
X236571904Y-83758571D01*
X236524285Y-83710952D01*
X236429047Y-83663333D01*
X236238571Y-83663333D01*
X236143333Y-83710952D01*
X236095714Y-83758571D01*
X236048095Y-83853809D01*
X237571904Y-84282380D02*
X237000476Y-84282380D01*
X237286190Y-84282380D02*
X237286190Y-83282380D01*
X237190952Y-83425238D01*
X237095714Y-83520476D01*
X237000476Y-83568095D01*
%TO.C,R70*%
X224667142Y-92532380D02*
X224333809Y-92056190D01*
X224095714Y-92532380D02*
X224095714Y-91532380D01*
X224476666Y-91532380D01*
X224571904Y-91580000D01*
X224619523Y-91627619D01*
X224667142Y-91722857D01*
X224667142Y-91865714D01*
X224619523Y-91960952D01*
X224571904Y-92008571D01*
X224476666Y-92056190D01*
X224095714Y-92056190D01*
X225000476Y-91532380D02*
X225667142Y-91532380D01*
X225238571Y-92532380D01*
X226238571Y-91532380D02*
X226333809Y-91532380D01*
X226429047Y-91580000D01*
X226476666Y-91627619D01*
X226524285Y-91722857D01*
X226571904Y-91913333D01*
X226571904Y-92151428D01*
X226524285Y-92341904D01*
X226476666Y-92437142D01*
X226429047Y-92484761D01*
X226333809Y-92532380D01*
X226238571Y-92532380D01*
X226143333Y-92484761D01*
X226095714Y-92437142D01*
X226048095Y-92341904D01*
X226000476Y-92151428D01*
X226000476Y-91913333D01*
X226048095Y-91722857D01*
X226095714Y-91627619D01*
X226143333Y-91580000D01*
X226238571Y-91532380D01*
%TO.C,R71*%
X235667142Y-92532380D02*
X235333809Y-92056190D01*
X235095714Y-92532380D02*
X235095714Y-91532380D01*
X235476666Y-91532380D01*
X235571904Y-91580000D01*
X235619523Y-91627619D01*
X235667142Y-91722857D01*
X235667142Y-91865714D01*
X235619523Y-91960952D01*
X235571904Y-92008571D01*
X235476666Y-92056190D01*
X235095714Y-92056190D01*
X236000476Y-91532380D02*
X236667142Y-91532380D01*
X236238571Y-92532380D01*
X237571904Y-92532380D02*
X237000476Y-92532380D01*
X237286190Y-92532380D02*
X237286190Y-91532380D01*
X237190952Y-91675238D01*
X237095714Y-91770476D01*
X237000476Y-91818095D01*
%TO.C,R80*%
X224667142Y-97032380D02*
X224333809Y-96556190D01*
X224095714Y-97032380D02*
X224095714Y-96032380D01*
X224476666Y-96032380D01*
X224571904Y-96080000D01*
X224619523Y-96127619D01*
X224667142Y-96222857D01*
X224667142Y-96365714D01*
X224619523Y-96460952D01*
X224571904Y-96508571D01*
X224476666Y-96556190D01*
X224095714Y-96556190D01*
X225238571Y-96460952D02*
X225143333Y-96413333D01*
X225095714Y-96365714D01*
X225048095Y-96270476D01*
X225048095Y-96222857D01*
X225095714Y-96127619D01*
X225143333Y-96080000D01*
X225238571Y-96032380D01*
X225429047Y-96032380D01*
X225524285Y-96080000D01*
X225571904Y-96127619D01*
X225619523Y-96222857D01*
X225619523Y-96270476D01*
X225571904Y-96365714D01*
X225524285Y-96413333D01*
X225429047Y-96460952D01*
X225238571Y-96460952D01*
X225143333Y-96508571D01*
X225095714Y-96556190D01*
X225048095Y-96651428D01*
X225048095Y-96841904D01*
X225095714Y-96937142D01*
X225143333Y-96984761D01*
X225238571Y-97032380D01*
X225429047Y-97032380D01*
X225524285Y-96984761D01*
X225571904Y-96937142D01*
X225619523Y-96841904D01*
X225619523Y-96651428D01*
X225571904Y-96556190D01*
X225524285Y-96508571D01*
X225429047Y-96460952D01*
X226238571Y-96032380D02*
X226333809Y-96032380D01*
X226429047Y-96080000D01*
X226476666Y-96127619D01*
X226524285Y-96222857D01*
X226571904Y-96413333D01*
X226571904Y-96651428D01*
X226524285Y-96841904D01*
X226476666Y-96937142D01*
X226429047Y-96984761D01*
X226333809Y-97032380D01*
X226238571Y-97032380D01*
X226143333Y-96984761D01*
X226095714Y-96937142D01*
X226048095Y-96841904D01*
X226000476Y-96651428D01*
X226000476Y-96413333D01*
X226048095Y-96222857D01*
X226095714Y-96127619D01*
X226143333Y-96080000D01*
X226238571Y-96032380D01*
%TO.C,R81*%
X235667142Y-97032380D02*
X235333809Y-96556190D01*
X235095714Y-97032380D02*
X235095714Y-96032380D01*
X235476666Y-96032380D01*
X235571904Y-96080000D01*
X235619523Y-96127619D01*
X235667142Y-96222857D01*
X235667142Y-96365714D01*
X235619523Y-96460952D01*
X235571904Y-96508571D01*
X235476666Y-96556190D01*
X235095714Y-96556190D01*
X236238571Y-96460952D02*
X236143333Y-96413333D01*
X236095714Y-96365714D01*
X236048095Y-96270476D01*
X236048095Y-96222857D01*
X236095714Y-96127619D01*
X236143333Y-96080000D01*
X236238571Y-96032380D01*
X236429047Y-96032380D01*
X236524285Y-96080000D01*
X236571904Y-96127619D01*
X236619523Y-96222857D01*
X236619523Y-96270476D01*
X236571904Y-96365714D01*
X236524285Y-96413333D01*
X236429047Y-96460952D01*
X236238571Y-96460952D01*
X236143333Y-96508571D01*
X236095714Y-96556190D01*
X236048095Y-96651428D01*
X236048095Y-96841904D01*
X236095714Y-96937142D01*
X236143333Y-96984761D01*
X236238571Y-97032380D01*
X236429047Y-97032380D01*
X236524285Y-96984761D01*
X236571904Y-96937142D01*
X236619523Y-96841904D01*
X236619523Y-96651428D01*
X236571904Y-96556190D01*
X236524285Y-96508571D01*
X236429047Y-96460952D01*
X237571904Y-97032380D02*
X237000476Y-97032380D01*
X237286190Y-97032380D02*
X237286190Y-96032380D01*
X237190952Y-96175238D01*
X237095714Y-96270476D01*
X237000476Y-96318095D01*
%TO.C,Rb1*%
X187372380Y-71429047D02*
X186896190Y-71762380D01*
X187372380Y-72000476D02*
X186372380Y-72000476D01*
X186372380Y-71619523D01*
X186420000Y-71524285D01*
X186467619Y-71476666D01*
X186562857Y-71429047D01*
X186705714Y-71429047D01*
X186800952Y-71476666D01*
X186848571Y-71524285D01*
X186896190Y-71619523D01*
X186896190Y-72000476D01*
X187372380Y-71000476D02*
X186372380Y-71000476D01*
X186753333Y-71000476D02*
X186705714Y-70905238D01*
X186705714Y-70714761D01*
X186753333Y-70619523D01*
X186800952Y-70571904D01*
X186896190Y-70524285D01*
X187181904Y-70524285D01*
X187277142Y-70571904D01*
X187324761Y-70619523D01*
X187372380Y-70714761D01*
X187372380Y-70905238D01*
X187324761Y-71000476D01*
X187372380Y-69571904D02*
X187372380Y-70143333D01*
X187372380Y-69857619D02*
X186372380Y-69857619D01*
X186515238Y-69952857D01*
X186610476Y-70048095D01*
X186658095Y-70143333D01*
%TO.C,Rb2*%
X192372380Y-71429047D02*
X191896190Y-71762380D01*
X192372380Y-72000476D02*
X191372380Y-72000476D01*
X191372380Y-71619523D01*
X191420000Y-71524285D01*
X191467619Y-71476666D01*
X191562857Y-71429047D01*
X191705714Y-71429047D01*
X191800952Y-71476666D01*
X191848571Y-71524285D01*
X191896190Y-71619523D01*
X191896190Y-72000476D01*
X192372380Y-71000476D02*
X191372380Y-71000476D01*
X191753333Y-71000476D02*
X191705714Y-70905238D01*
X191705714Y-70714761D01*
X191753333Y-70619523D01*
X191800952Y-70571904D01*
X191896190Y-70524285D01*
X192181904Y-70524285D01*
X192277142Y-70571904D01*
X192324761Y-70619523D01*
X192372380Y-70714761D01*
X192372380Y-70905238D01*
X192324761Y-71000476D01*
X191467619Y-70143333D02*
X191420000Y-70095714D01*
X191372380Y-70000476D01*
X191372380Y-69762380D01*
X191420000Y-69667142D01*
X191467619Y-69619523D01*
X191562857Y-69571904D01*
X191658095Y-69571904D01*
X191800952Y-69619523D01*
X192372380Y-70190952D01*
X192372380Y-69571904D01*
%TO.C,Rb3*%
X197372380Y-71429047D02*
X196896190Y-71762380D01*
X197372380Y-72000476D02*
X196372380Y-72000476D01*
X196372380Y-71619523D01*
X196420000Y-71524285D01*
X196467619Y-71476666D01*
X196562857Y-71429047D01*
X196705714Y-71429047D01*
X196800952Y-71476666D01*
X196848571Y-71524285D01*
X196896190Y-71619523D01*
X196896190Y-72000476D01*
X197372380Y-71000476D02*
X196372380Y-71000476D01*
X196753333Y-71000476D02*
X196705714Y-70905238D01*
X196705714Y-70714761D01*
X196753333Y-70619523D01*
X196800952Y-70571904D01*
X196896190Y-70524285D01*
X197181904Y-70524285D01*
X197277142Y-70571904D01*
X197324761Y-70619523D01*
X197372380Y-70714761D01*
X197372380Y-70905238D01*
X197324761Y-71000476D01*
X196372380Y-70190952D02*
X196372380Y-69571904D01*
X196753333Y-69905238D01*
X196753333Y-69762380D01*
X196800952Y-69667142D01*
X196848571Y-69619523D01*
X196943809Y-69571904D01*
X197181904Y-69571904D01*
X197277142Y-69619523D01*
X197324761Y-69667142D01*
X197372380Y-69762380D01*
X197372380Y-70048095D01*
X197324761Y-70143333D01*
X197277142Y-70190952D01*
%TO.C,Rc1*%
X174214761Y-63032380D02*
X173881428Y-62556190D01*
X173643333Y-63032380D02*
X173643333Y-62032380D01*
X174024285Y-62032380D01*
X174119523Y-62080000D01*
X174167142Y-62127619D01*
X174214761Y-62222857D01*
X174214761Y-62365714D01*
X174167142Y-62460952D01*
X174119523Y-62508571D01*
X174024285Y-62556190D01*
X173643333Y-62556190D01*
X175071904Y-62984761D02*
X174976666Y-63032380D01*
X174786190Y-63032380D01*
X174690952Y-62984761D01*
X174643333Y-62937142D01*
X174595714Y-62841904D01*
X174595714Y-62556190D01*
X174643333Y-62460952D01*
X174690952Y-62413333D01*
X174786190Y-62365714D01*
X174976666Y-62365714D01*
X175071904Y-62413333D01*
X176024285Y-63032380D02*
X175452857Y-63032380D01*
X175738571Y-63032380D02*
X175738571Y-62032380D01*
X175643333Y-62175238D01*
X175548095Y-62270476D01*
X175452857Y-62318095D01*
%TO.C,Rc2*%
X163214761Y-63032380D02*
X162881428Y-62556190D01*
X162643333Y-63032380D02*
X162643333Y-62032380D01*
X163024285Y-62032380D01*
X163119523Y-62080000D01*
X163167142Y-62127619D01*
X163214761Y-62222857D01*
X163214761Y-62365714D01*
X163167142Y-62460952D01*
X163119523Y-62508571D01*
X163024285Y-62556190D01*
X162643333Y-62556190D01*
X164071904Y-62984761D02*
X163976666Y-63032380D01*
X163786190Y-63032380D01*
X163690952Y-62984761D01*
X163643333Y-62937142D01*
X163595714Y-62841904D01*
X163595714Y-62556190D01*
X163643333Y-62460952D01*
X163690952Y-62413333D01*
X163786190Y-62365714D01*
X163976666Y-62365714D01*
X164071904Y-62413333D01*
X164452857Y-62127619D02*
X164500476Y-62080000D01*
X164595714Y-62032380D01*
X164833809Y-62032380D01*
X164929047Y-62080000D01*
X164976666Y-62127619D01*
X165024285Y-62222857D01*
X165024285Y-62318095D01*
X164976666Y-62460952D01*
X164405238Y-63032380D01*
X165024285Y-63032380D01*
%TO.C,Rc3*%
X152214761Y-63032380D02*
X151881428Y-62556190D01*
X151643333Y-63032380D02*
X151643333Y-62032380D01*
X152024285Y-62032380D01*
X152119523Y-62080000D01*
X152167142Y-62127619D01*
X152214761Y-62222857D01*
X152214761Y-62365714D01*
X152167142Y-62460952D01*
X152119523Y-62508571D01*
X152024285Y-62556190D01*
X151643333Y-62556190D01*
X153071904Y-62984761D02*
X152976666Y-63032380D01*
X152786190Y-63032380D01*
X152690952Y-62984761D01*
X152643333Y-62937142D01*
X152595714Y-62841904D01*
X152595714Y-62556190D01*
X152643333Y-62460952D01*
X152690952Y-62413333D01*
X152786190Y-62365714D01*
X152976666Y-62365714D01*
X153071904Y-62413333D01*
X153405238Y-62032380D02*
X154024285Y-62032380D01*
X153690952Y-62413333D01*
X153833809Y-62413333D01*
X153929047Y-62460952D01*
X153976666Y-62508571D01*
X154024285Y-62603809D01*
X154024285Y-62841904D01*
X153976666Y-62937142D01*
X153929047Y-62984761D01*
X153833809Y-63032380D01*
X153548095Y-63032380D01*
X153452857Y-62984761D01*
X153405238Y-62937142D01*
%TO.C,RDown1*%
X139214761Y-65282380D02*
X138881428Y-64806190D01*
X138643333Y-65282380D02*
X138643333Y-64282380D01*
X139024285Y-64282380D01*
X139119523Y-64330000D01*
X139167142Y-64377619D01*
X139214761Y-64472857D01*
X139214761Y-64615714D01*
X139167142Y-64710952D01*
X139119523Y-64758571D01*
X139024285Y-64806190D01*
X138643333Y-64806190D01*
X139643333Y-65282380D02*
X139643333Y-64282380D01*
X139881428Y-64282380D01*
X140024285Y-64330000D01*
X140119523Y-64425238D01*
X140167142Y-64520476D01*
X140214761Y-64710952D01*
X140214761Y-64853809D01*
X140167142Y-65044285D01*
X140119523Y-65139523D01*
X140024285Y-65234761D01*
X139881428Y-65282380D01*
X139643333Y-65282380D01*
X140786190Y-65282380D02*
X140690952Y-65234761D01*
X140643333Y-65187142D01*
X140595714Y-65091904D01*
X140595714Y-64806190D01*
X140643333Y-64710952D01*
X140690952Y-64663333D01*
X140786190Y-64615714D01*
X140929047Y-64615714D01*
X141024285Y-64663333D01*
X141071904Y-64710952D01*
X141119523Y-64806190D01*
X141119523Y-65091904D01*
X141071904Y-65187142D01*
X141024285Y-65234761D01*
X140929047Y-65282380D01*
X140786190Y-65282380D01*
X141452857Y-64615714D02*
X141643333Y-65282380D01*
X141833809Y-64806190D01*
X142024285Y-65282380D01*
X142214761Y-64615714D01*
X142595714Y-64615714D02*
X142595714Y-65282380D01*
X142595714Y-64710952D02*
X142643333Y-64663333D01*
X142738571Y-64615714D01*
X142881428Y-64615714D01*
X142976666Y-64663333D01*
X143024285Y-64758571D01*
X143024285Y-65282380D01*
X144024285Y-65282380D02*
X143452857Y-65282380D01*
X143738571Y-65282380D02*
X143738571Y-64282380D01*
X143643333Y-64425238D01*
X143548095Y-64520476D01*
X143452857Y-64568095D01*
%TO.C,RModo1*%
X214714761Y-53282380D02*
X214381428Y-52806190D01*
X214143333Y-53282380D02*
X214143333Y-52282380D01*
X214524285Y-52282380D01*
X214619523Y-52330000D01*
X214667142Y-52377619D01*
X214714761Y-52472857D01*
X214714761Y-52615714D01*
X214667142Y-52710952D01*
X214619523Y-52758571D01*
X214524285Y-52806190D01*
X214143333Y-52806190D01*
X215143333Y-53282380D02*
X215143333Y-52282380D01*
X215476666Y-52996666D01*
X215810000Y-52282380D01*
X215810000Y-53282380D01*
X216429047Y-53282380D02*
X216333809Y-53234761D01*
X216286190Y-53187142D01*
X216238571Y-53091904D01*
X216238571Y-52806190D01*
X216286190Y-52710952D01*
X216333809Y-52663333D01*
X216429047Y-52615714D01*
X216571904Y-52615714D01*
X216667142Y-52663333D01*
X216714761Y-52710952D01*
X216762380Y-52806190D01*
X216762380Y-53091904D01*
X216714761Y-53187142D01*
X216667142Y-53234761D01*
X216571904Y-53282380D01*
X216429047Y-53282380D01*
X217619523Y-53282380D02*
X217619523Y-52282380D01*
X217619523Y-53234761D02*
X217524285Y-53282380D01*
X217333809Y-53282380D01*
X217238571Y-53234761D01*
X217190952Y-53187142D01*
X217143333Y-53091904D01*
X217143333Y-52806190D01*
X217190952Y-52710952D01*
X217238571Y-52663333D01*
X217333809Y-52615714D01*
X217524285Y-52615714D01*
X217619523Y-52663333D01*
X218238571Y-53282380D02*
X218143333Y-53234761D01*
X218095714Y-53187142D01*
X218048095Y-53091904D01*
X218048095Y-52806190D01*
X218095714Y-52710952D01*
X218143333Y-52663333D01*
X218238571Y-52615714D01*
X218381428Y-52615714D01*
X218476666Y-52663333D01*
X218524285Y-52710952D01*
X218571904Y-52806190D01*
X218571904Y-53091904D01*
X218524285Y-53187142D01*
X218476666Y-53234761D01*
X218381428Y-53282380D01*
X218238571Y-53282380D01*
X219524285Y-53282380D02*
X218952857Y-53282380D01*
X219238571Y-53282380D02*
X219238571Y-52282380D01*
X219143333Y-52425238D01*
X219048095Y-52520476D01*
X218952857Y-52568095D01*
%TO.C,RREG11*%
X95059761Y-107117380D02*
X94726428Y-106641190D01*
X94488333Y-107117380D02*
X94488333Y-106117380D01*
X94869285Y-106117380D01*
X94964523Y-106165000D01*
X95012142Y-106212619D01*
X95059761Y-106307857D01*
X95059761Y-106450714D01*
X95012142Y-106545952D01*
X94964523Y-106593571D01*
X94869285Y-106641190D01*
X94488333Y-106641190D01*
X96059761Y-107117380D02*
X95726428Y-106641190D01*
X95488333Y-107117380D02*
X95488333Y-106117380D01*
X95869285Y-106117380D01*
X95964523Y-106165000D01*
X96012142Y-106212619D01*
X96059761Y-106307857D01*
X96059761Y-106450714D01*
X96012142Y-106545952D01*
X95964523Y-106593571D01*
X95869285Y-106641190D01*
X95488333Y-106641190D01*
X96488333Y-106593571D02*
X96821666Y-106593571D01*
X96964523Y-107117380D02*
X96488333Y-107117380D01*
X96488333Y-106117380D01*
X96964523Y-106117380D01*
X97916904Y-106165000D02*
X97821666Y-106117380D01*
X97678809Y-106117380D01*
X97535952Y-106165000D01*
X97440714Y-106260238D01*
X97393095Y-106355476D01*
X97345476Y-106545952D01*
X97345476Y-106688809D01*
X97393095Y-106879285D01*
X97440714Y-106974523D01*
X97535952Y-107069761D01*
X97678809Y-107117380D01*
X97774047Y-107117380D01*
X97916904Y-107069761D01*
X97964523Y-107022142D01*
X97964523Y-106688809D01*
X97774047Y-106688809D01*
X98916904Y-107117380D02*
X98345476Y-107117380D01*
X98631190Y-107117380D02*
X98631190Y-106117380D01*
X98535952Y-106260238D01*
X98440714Y-106355476D01*
X98345476Y-106403095D01*
X99869285Y-107117380D02*
X99297857Y-107117380D01*
X99583571Y-107117380D02*
X99583571Y-106117380D01*
X99488333Y-106260238D01*
X99393095Y-106355476D01*
X99297857Y-106403095D01*
%TO.C,RREG12*%
X121094761Y-107117380D02*
X120761428Y-106641190D01*
X120523333Y-107117380D02*
X120523333Y-106117380D01*
X120904285Y-106117380D01*
X120999523Y-106165000D01*
X121047142Y-106212619D01*
X121094761Y-106307857D01*
X121094761Y-106450714D01*
X121047142Y-106545952D01*
X120999523Y-106593571D01*
X120904285Y-106641190D01*
X120523333Y-106641190D01*
X122094761Y-107117380D02*
X121761428Y-106641190D01*
X121523333Y-107117380D02*
X121523333Y-106117380D01*
X121904285Y-106117380D01*
X121999523Y-106165000D01*
X122047142Y-106212619D01*
X122094761Y-106307857D01*
X122094761Y-106450714D01*
X122047142Y-106545952D01*
X121999523Y-106593571D01*
X121904285Y-106641190D01*
X121523333Y-106641190D01*
X122523333Y-106593571D02*
X122856666Y-106593571D01*
X122999523Y-107117380D02*
X122523333Y-107117380D01*
X122523333Y-106117380D01*
X122999523Y-106117380D01*
X123951904Y-106165000D02*
X123856666Y-106117380D01*
X123713809Y-106117380D01*
X123570952Y-106165000D01*
X123475714Y-106260238D01*
X123428095Y-106355476D01*
X123380476Y-106545952D01*
X123380476Y-106688809D01*
X123428095Y-106879285D01*
X123475714Y-106974523D01*
X123570952Y-107069761D01*
X123713809Y-107117380D01*
X123809047Y-107117380D01*
X123951904Y-107069761D01*
X123999523Y-107022142D01*
X123999523Y-106688809D01*
X123809047Y-106688809D01*
X124951904Y-107117380D02*
X124380476Y-107117380D01*
X124666190Y-107117380D02*
X124666190Y-106117380D01*
X124570952Y-106260238D01*
X124475714Y-106355476D01*
X124380476Y-106403095D01*
X125332857Y-106212619D02*
X125380476Y-106165000D01*
X125475714Y-106117380D01*
X125713809Y-106117380D01*
X125809047Y-106165000D01*
X125856666Y-106212619D01*
X125904285Y-106307857D01*
X125904285Y-106403095D01*
X125856666Y-106545952D01*
X125285238Y-107117380D01*
X125904285Y-107117380D01*
%TO.C,RV1*%
X109259761Y-105377380D02*
X108926428Y-104901190D01*
X108688333Y-105377380D02*
X108688333Y-104377380D01*
X109069285Y-104377380D01*
X109164523Y-104425000D01*
X109212142Y-104472619D01*
X109259761Y-104567857D01*
X109259761Y-104710714D01*
X109212142Y-104805952D01*
X109164523Y-104853571D01*
X109069285Y-104901190D01*
X108688333Y-104901190D01*
X109545476Y-104377380D02*
X109878809Y-105377380D01*
X110212142Y-104377380D01*
X111069285Y-105377380D02*
X110497857Y-105377380D01*
X110783571Y-105377380D02*
X110783571Y-104377380D01*
X110688333Y-104520238D01*
X110593095Y-104615476D01*
X110497857Y-104663095D01*
%TO.C,SWModo1*%
X200488095Y-53729761D02*
X200630952Y-53777380D01*
X200869047Y-53777380D01*
X200964285Y-53729761D01*
X201011904Y-53682142D01*
X201059523Y-53586904D01*
X201059523Y-53491666D01*
X201011904Y-53396428D01*
X200964285Y-53348809D01*
X200869047Y-53301190D01*
X200678571Y-53253571D01*
X200583333Y-53205952D01*
X200535714Y-53158333D01*
X200488095Y-53063095D01*
X200488095Y-52967857D01*
X200535714Y-52872619D01*
X200583333Y-52825000D01*
X200678571Y-52777380D01*
X200916666Y-52777380D01*
X201059523Y-52825000D01*
X201392857Y-52777380D02*
X201630952Y-53777380D01*
X201821428Y-53063095D01*
X202011904Y-53777380D01*
X202250000Y-52777380D01*
X202630952Y-53777380D02*
X202630952Y-52777380D01*
X202964285Y-53491666D01*
X203297619Y-52777380D01*
X203297619Y-53777380D01*
X203916666Y-53777380D02*
X203821428Y-53729761D01*
X203773809Y-53682142D01*
X203726190Y-53586904D01*
X203726190Y-53301190D01*
X203773809Y-53205952D01*
X203821428Y-53158333D01*
X203916666Y-53110714D01*
X204059523Y-53110714D01*
X204154761Y-53158333D01*
X204202380Y-53205952D01*
X204250000Y-53301190D01*
X204250000Y-53586904D01*
X204202380Y-53682142D01*
X204154761Y-53729761D01*
X204059523Y-53777380D01*
X203916666Y-53777380D01*
X205107142Y-53777380D02*
X205107142Y-52777380D01*
X205107142Y-53729761D02*
X205011904Y-53777380D01*
X204821428Y-53777380D01*
X204726190Y-53729761D01*
X204678571Y-53682142D01*
X204630952Y-53586904D01*
X204630952Y-53301190D01*
X204678571Y-53205952D01*
X204726190Y-53158333D01*
X204821428Y-53110714D01*
X205011904Y-53110714D01*
X205107142Y-53158333D01*
X205726190Y-53777380D02*
X205630952Y-53729761D01*
X205583333Y-53682142D01*
X205535714Y-53586904D01*
X205535714Y-53301190D01*
X205583333Y-53205952D01*
X205630952Y-53158333D01*
X205726190Y-53110714D01*
X205869047Y-53110714D01*
X205964285Y-53158333D01*
X206011904Y-53205952D01*
X206059523Y-53301190D01*
X206059523Y-53586904D01*
X206011904Y-53682142D01*
X205964285Y-53729761D01*
X205869047Y-53777380D01*
X205726190Y-53777380D01*
X207011904Y-53777380D02*
X206440476Y-53777380D01*
X206726190Y-53777380D02*
X206726190Y-52777380D01*
X206630952Y-52920238D01*
X206535714Y-53015476D01*
X206440476Y-53063095D01*
%TO.C,SWNReset1*%
X184080238Y-53729761D02*
X184223095Y-53777380D01*
X184461190Y-53777380D01*
X184556428Y-53729761D01*
X184604047Y-53682142D01*
X184651666Y-53586904D01*
X184651666Y-53491666D01*
X184604047Y-53396428D01*
X184556428Y-53348809D01*
X184461190Y-53301190D01*
X184270714Y-53253571D01*
X184175476Y-53205952D01*
X184127857Y-53158333D01*
X184080238Y-53063095D01*
X184080238Y-52967857D01*
X184127857Y-52872619D01*
X184175476Y-52825000D01*
X184270714Y-52777380D01*
X184508809Y-52777380D01*
X184651666Y-52825000D01*
X184985000Y-52777380D02*
X185223095Y-53777380D01*
X185413571Y-53063095D01*
X185604047Y-53777380D01*
X185842142Y-52777380D01*
X186223095Y-53777380D02*
X186223095Y-52777380D01*
X186794523Y-53777380D01*
X186794523Y-52777380D01*
X187842142Y-53777380D02*
X187508809Y-53301190D01*
X187270714Y-53777380D02*
X187270714Y-52777380D01*
X187651666Y-52777380D01*
X187746904Y-52825000D01*
X187794523Y-52872619D01*
X187842142Y-52967857D01*
X187842142Y-53110714D01*
X187794523Y-53205952D01*
X187746904Y-53253571D01*
X187651666Y-53301190D01*
X187270714Y-53301190D01*
X188651666Y-53729761D02*
X188556428Y-53777380D01*
X188365952Y-53777380D01*
X188270714Y-53729761D01*
X188223095Y-53634523D01*
X188223095Y-53253571D01*
X188270714Y-53158333D01*
X188365952Y-53110714D01*
X188556428Y-53110714D01*
X188651666Y-53158333D01*
X188699285Y-53253571D01*
X188699285Y-53348809D01*
X188223095Y-53444047D01*
X189080238Y-53729761D02*
X189175476Y-53777380D01*
X189365952Y-53777380D01*
X189461190Y-53729761D01*
X189508809Y-53634523D01*
X189508809Y-53586904D01*
X189461190Y-53491666D01*
X189365952Y-53444047D01*
X189223095Y-53444047D01*
X189127857Y-53396428D01*
X189080238Y-53301190D01*
X189080238Y-53253571D01*
X189127857Y-53158333D01*
X189223095Y-53110714D01*
X189365952Y-53110714D01*
X189461190Y-53158333D01*
X190318333Y-53729761D02*
X190223095Y-53777380D01*
X190032619Y-53777380D01*
X189937380Y-53729761D01*
X189889761Y-53634523D01*
X189889761Y-53253571D01*
X189937380Y-53158333D01*
X190032619Y-53110714D01*
X190223095Y-53110714D01*
X190318333Y-53158333D01*
X190365952Y-53253571D01*
X190365952Y-53348809D01*
X189889761Y-53444047D01*
X190651666Y-53110714D02*
X191032619Y-53110714D01*
X190794523Y-52777380D02*
X190794523Y-53634523D01*
X190842142Y-53729761D01*
X190937380Y-53777380D01*
X191032619Y-53777380D01*
X191889761Y-53777380D02*
X191318333Y-53777380D01*
X191604047Y-53777380D02*
X191604047Y-52777380D01*
X191508809Y-52920238D01*
X191413571Y-53015476D01*
X191318333Y-53063095D01*
%TO.C,SWPanel1*%
X138071428Y-62664761D02*
X138214285Y-62712380D01*
X138452380Y-62712380D01*
X138547619Y-62664761D01*
X138595238Y-62617142D01*
X138642857Y-62521904D01*
X138642857Y-62426666D01*
X138595238Y-62331428D01*
X138547619Y-62283809D01*
X138452380Y-62236190D01*
X138261904Y-62188571D01*
X138166666Y-62140952D01*
X138119047Y-62093333D01*
X138071428Y-61998095D01*
X138071428Y-61902857D01*
X138119047Y-61807619D01*
X138166666Y-61760000D01*
X138261904Y-61712380D01*
X138500000Y-61712380D01*
X138642857Y-61760000D01*
X138976190Y-61712380D02*
X139214285Y-62712380D01*
X139404761Y-61998095D01*
X139595238Y-62712380D01*
X139833333Y-61712380D01*
X140214285Y-62712380D02*
X140214285Y-61712380D01*
X140595238Y-61712380D01*
X140690476Y-61760000D01*
X140738095Y-61807619D01*
X140785714Y-61902857D01*
X140785714Y-62045714D01*
X140738095Y-62140952D01*
X140690476Y-62188571D01*
X140595238Y-62236190D01*
X140214285Y-62236190D01*
X141642857Y-62712380D02*
X141642857Y-62188571D01*
X141595238Y-62093333D01*
X141500000Y-62045714D01*
X141309523Y-62045714D01*
X141214285Y-62093333D01*
X141642857Y-62664761D02*
X141547619Y-62712380D01*
X141309523Y-62712380D01*
X141214285Y-62664761D01*
X141166666Y-62569523D01*
X141166666Y-62474285D01*
X141214285Y-62379047D01*
X141309523Y-62331428D01*
X141547619Y-62331428D01*
X141642857Y-62283809D01*
X142119047Y-62045714D02*
X142119047Y-62712380D01*
X142119047Y-62140952D02*
X142166666Y-62093333D01*
X142261904Y-62045714D01*
X142404761Y-62045714D01*
X142500000Y-62093333D01*
X142547619Y-62188571D01*
X142547619Y-62712380D01*
X143404761Y-62664761D02*
X143309523Y-62712380D01*
X143119047Y-62712380D01*
X143023809Y-62664761D01*
X142976190Y-62569523D01*
X142976190Y-62188571D01*
X143023809Y-62093333D01*
X143119047Y-62045714D01*
X143309523Y-62045714D01*
X143404761Y-62093333D01*
X143452380Y-62188571D01*
X143452380Y-62283809D01*
X142976190Y-62379047D01*
X144023809Y-62712380D02*
X143928571Y-62664761D01*
X143880952Y-62569523D01*
X143880952Y-61712380D01*
X144928571Y-62712380D02*
X144357142Y-62712380D01*
X144642857Y-62712380D02*
X144642857Y-61712380D01*
X144547619Y-61855238D01*
X144452380Y-61950476D01*
X144357142Y-61998095D01*
%TO.C,U1*%
X207818095Y-100622380D02*
X207818095Y-101431904D01*
X207865714Y-101527142D01*
X207913333Y-101574761D01*
X208008571Y-101622380D01*
X208199047Y-101622380D01*
X208294285Y-101574761D01*
X208341904Y-101527142D01*
X208389523Y-101431904D01*
X208389523Y-100622380D01*
X209389523Y-101622380D02*
X208818095Y-101622380D01*
X209103809Y-101622380D02*
X209103809Y-100622380D01*
X209008571Y-100765238D01*
X208913333Y-100860476D01*
X208818095Y-100908095D01*
%TO.C,U2*%
X207718095Y-63222380D02*
X207718095Y-64031904D01*
X207765714Y-64127142D01*
X207813333Y-64174761D01*
X207908571Y-64222380D01*
X208099047Y-64222380D01*
X208194285Y-64174761D01*
X208241904Y-64127142D01*
X208289523Y-64031904D01*
X208289523Y-63222380D01*
X208718095Y-63317619D02*
X208765714Y-63270000D01*
X208860952Y-63222380D01*
X209099047Y-63222380D01*
X209194285Y-63270000D01*
X209241904Y-63317619D01*
X209289523Y-63412857D01*
X209289523Y-63508095D01*
X209241904Y-63650952D01*
X208670476Y-64222380D01*
X209289523Y-64222380D01*
%TO.C,U3*%
X224718095Y-63222380D02*
X224718095Y-64031904D01*
X224765714Y-64127142D01*
X224813333Y-64174761D01*
X224908571Y-64222380D01*
X225099047Y-64222380D01*
X225194285Y-64174761D01*
X225241904Y-64127142D01*
X225289523Y-64031904D01*
X225289523Y-63222380D01*
X225670476Y-63222380D02*
X226289523Y-63222380D01*
X225956190Y-63603333D01*
X226099047Y-63603333D01*
X226194285Y-63650952D01*
X226241904Y-63698571D01*
X226289523Y-63793809D01*
X226289523Y-64031904D01*
X226241904Y-64127142D01*
X226194285Y-64174761D01*
X226099047Y-64222380D01*
X225813333Y-64222380D01*
X225718095Y-64174761D01*
X225670476Y-64127142D01*
%TO.C,U4*%
X224818095Y-100622380D02*
X224818095Y-101431904D01*
X224865714Y-101527142D01*
X224913333Y-101574761D01*
X225008571Y-101622380D01*
X225199047Y-101622380D01*
X225294285Y-101574761D01*
X225341904Y-101527142D01*
X225389523Y-101431904D01*
X225389523Y-100622380D01*
X226294285Y-100955714D02*
X226294285Y-101622380D01*
X226056190Y-100574761D02*
X225818095Y-101289047D01*
X226437142Y-101289047D01*
%TO.C,UREG1*%
X87257380Y-80319285D02*
X88066904Y-80319285D01*
X88162142Y-80271666D01*
X88209761Y-80224047D01*
X88257380Y-80128809D01*
X88257380Y-79938333D01*
X88209761Y-79843095D01*
X88162142Y-79795476D01*
X88066904Y-79747857D01*
X87257380Y-79747857D01*
X88257380Y-78700238D02*
X87781190Y-79033571D01*
X88257380Y-79271666D02*
X87257380Y-79271666D01*
X87257380Y-78890714D01*
X87305000Y-78795476D01*
X87352619Y-78747857D01*
X87447857Y-78700238D01*
X87590714Y-78700238D01*
X87685952Y-78747857D01*
X87733571Y-78795476D01*
X87781190Y-78890714D01*
X87781190Y-79271666D01*
X87733571Y-78271666D02*
X87733571Y-77938333D01*
X88257380Y-77795476D02*
X88257380Y-78271666D01*
X87257380Y-78271666D01*
X87257380Y-77795476D01*
X87305000Y-76843095D02*
X87257380Y-76938333D01*
X87257380Y-77081190D01*
X87305000Y-77224047D01*
X87400238Y-77319285D01*
X87495476Y-77366904D01*
X87685952Y-77414523D01*
X87828809Y-77414523D01*
X88019285Y-77366904D01*
X88114523Y-77319285D01*
X88209761Y-77224047D01*
X88257380Y-77081190D01*
X88257380Y-76985952D01*
X88209761Y-76843095D01*
X88162142Y-76795476D01*
X87828809Y-76795476D01*
X87828809Y-76985952D01*
X88257380Y-75843095D02*
X88257380Y-76414523D01*
X88257380Y-76128809D02*
X87257380Y-76128809D01*
X87400238Y-76224047D01*
X87495476Y-76319285D01*
X87543095Y-76414523D01*
%TO.C,UREG2*%
X87257380Y-98734285D02*
X88066904Y-98734285D01*
X88162142Y-98686666D01*
X88209761Y-98639047D01*
X88257380Y-98543809D01*
X88257380Y-98353333D01*
X88209761Y-98258095D01*
X88162142Y-98210476D01*
X88066904Y-98162857D01*
X87257380Y-98162857D01*
X88257380Y-97115238D02*
X87781190Y-97448571D01*
X88257380Y-97686666D02*
X87257380Y-97686666D01*
X87257380Y-97305714D01*
X87305000Y-97210476D01*
X87352619Y-97162857D01*
X87447857Y-97115238D01*
X87590714Y-97115238D01*
X87685952Y-97162857D01*
X87733571Y-97210476D01*
X87781190Y-97305714D01*
X87781190Y-97686666D01*
X87733571Y-96686666D02*
X87733571Y-96353333D01*
X88257380Y-96210476D02*
X88257380Y-96686666D01*
X87257380Y-96686666D01*
X87257380Y-96210476D01*
X87305000Y-95258095D02*
X87257380Y-95353333D01*
X87257380Y-95496190D01*
X87305000Y-95639047D01*
X87400238Y-95734285D01*
X87495476Y-95781904D01*
X87685952Y-95829523D01*
X87828809Y-95829523D01*
X88019285Y-95781904D01*
X88114523Y-95734285D01*
X88209761Y-95639047D01*
X88257380Y-95496190D01*
X88257380Y-95400952D01*
X88209761Y-95258095D01*
X88162142Y-95210476D01*
X87828809Y-95210476D01*
X87828809Y-95400952D01*
X87352619Y-94829523D02*
X87305000Y-94781904D01*
X87257380Y-94686666D01*
X87257380Y-94448571D01*
X87305000Y-94353333D01*
X87352619Y-94305714D01*
X87447857Y-94258095D01*
X87543095Y-94258095D01*
X87685952Y-94305714D01*
X88257380Y-94877142D01*
X88257380Y-94258095D01*
%TD*%
M02*
